<?xml version="1.0" encoding="UTF-8"?>
<svg id="Layer_2" data-name="Layer 2" xmlns="http://www.w3.org/2000/svg" viewBox="0 0 36.72 15.83">
  <defs>
    <style>
      .cls-1 {
        fill: #ff432f;
      }

      .cls-2 {
        fill: #ffc128;
      }
    </style>
  </defs>
  <g id="Layer_1-2" data-name="Layer 1">
    <g>
      <g>
        <path class="cls-1" d="M10.5,4.3c.32.95.12,1.75-.56,1.72-.88-.04-.17-1.85-.93-3.86-.6-1.58-2.1-2.15-2.1-2.15,0,0,.64,2.08-2.7,3.29-.05.02-.1.04-.15.06-.05.02-.11.04-.16.07C.82,4.71.2,7.75.2,7.75h0c-.13.51-.21,1.05-.21,1.6,0,3.58,2.9,6.48,6.48,6.48s6.48-2.9,6.48-6.48c0-2.05-.97-3.87-2.46-5.06Z"/>
        <path class="cls-2" d="M9.31,7.01c.19.57-.35,1.14-.76,1.12-.53-.03-.1-1.11-.56-2.32-.36-.95-1.26-1.29-1.26-1.29,0,0,.39,1.25-1.62,1.97-.03.01-.06.03-.09.04-.03.01-.07.03-.1.04-1.84.77-2.21,2.6-2.21,2.6h0c-.08.31-.13.63-.13.96,0,2.15,1.74,3.89,3.89,3.89s3.89-1.74,3.89-3.89c0-1.23-.44-2.22-1.06-3.12Z"/>
      </g>
      <g>
        <path class="cls-1" d="M34.26,4.3c.32.95.12,1.75-.56,1.72-.88-.04-.17-1.85-.93-3.86-.6-1.58-2.1-2.15-2.1-2.15,0,0,.64,2.08-2.7,3.29-.05.02-.1.04-.15.06-.05.02-.11.04-.16.07-3.07,1.29-3.69,4.33-3.69,4.33h0c-.13.51-.21,1.05-.21,1.6,0,3.58,2.9,6.48,6.48,6.48s6.48-2.9,6.48-6.48c0-2.05-.97-3.87-2.46-5.06Z"/>
        <path class="cls-2" d="M33.07,7.01c.19.57-.35,1.14-.76,1.12-.53-.03-.1-1.11-.56-2.32-.36-.95-1.26-1.29-1.26-1.29,0,0,.39,1.25-1.62,1.97-.03.01-.06.03-.09.04-.03.01-.07.03-.1.04-1.84.77-2.21,2.6-2.21,2.6h0c-.08.31-.13.63-.13.96,0,2.15,1.74,3.89,3.89,3.89s3.89-1.74,3.89-3.89c0-1.23-.44-2.22-1.06-3.12Z"/>
      </g>
    </g>
  </g>
</svg>