<?xml version="1.0" encoding="UTF-8"?>
<svg xmlns="http://www.w3.org/2000/svg" xmlns:xlink="http://www.w3.org/1999/xlink" viewBox="0 0 40.15 54.74">
  <defs>
    <style>
      .cls-1 {
        fill: #d96762;
      }

      .cls-2 {
        fill: #050b0d;
      }

      .cls-3 {
        fill: none;
        stroke: #46942f;
        stroke-miterlimit: 10;
      }

      .cls-4 {
        isolation: isolate;
      }

      .cls-5 {
        fill: url(#linear-gradient);
      }

      .cls-5, .cls-6, .cls-7, .cls-8, .cls-9, .cls-10, .cls-11, .cls-12, .cls-13, .cls-14, .cls-15, .cls-16, .cls-17, .cls-18, .cls-19, .cls-20, .cls-21, .cls-22, .cls-23, .cls-24 {
        mix-blend-mode: overlay;
      }

      .cls-6 {
        fill: url(#linear-gradient-8);
      }

      .cls-7 {
        fill: url(#linear-gradient-2);
      }

      .cls-8 {
        fill: url(#linear-gradient-3);
      }

      .cls-9 {
        fill: url(#linear-gradient-4);
      }

      .cls-10 {
        fill: url(#linear-gradient-9);
      }

      .cls-11 {
        fill: url(#linear-gradient-6);
      }

      .cls-12 {
        fill: url(#linear-gradient-5);
      }

      .cls-13 {
        fill: url(#linear-gradient-7);
      }

      .cls-25 {
        fill: #732023;
      }

      .cls-26 {
        fill: #fff;
      }

      .cls-27 {
        fill: #ff5a02;
      }

      .cls-14 {
        fill: url(#linear-gradient-10);
      }

      .cls-15 {
        fill: url(#linear-gradient-12);
      }

      .cls-16 {
        fill: url(#linear-gradient-11);
      }

      .cls-17 {
        fill: url(#linear-gradient-13);
      }

      .cls-18 {
        fill: url(#linear-gradient-22);
      }

      .cls-19 {
        fill: url(#linear-gradient-19);
      }

      .cls-20 {
        fill: url(#linear-gradient-30);
      }

      .cls-21 {
        fill: url(#linear-gradient-31);
      }

      .cls-22 {
        fill: url(#linear-gradient-15);
      }

      .cls-23 {
        fill: url(#linear-gradient-24);
      }

      .cls-24 {
        fill: url(#linear-gradient-29);
      }

      .cls-28 {
        fill: url(#linear-gradient-14);
      }

      .cls-29 {
        fill: url(#linear-gradient-21);
      }

      .cls-30 {
        fill: url(#linear-gradient-20);
      }

      .cls-31 {
        fill: url(#linear-gradient-23);
      }

      .cls-32 {
        fill: url(#linear-gradient-28);
      }

      .cls-33 {
        fill: url(#linear-gradient-25);
      }

      .cls-34 {
        fill: url(#linear-gradient-16);
      }

      .cls-35 {
        fill: url(#linear-gradient-17);
      }

      .cls-36 {
        fill: url(#linear-gradient-18);
      }

      .cls-37 {
        fill: url(#linear-gradient-27);
      }

      .cls-38 {
        fill: url(#linear-gradient-26);
      }

      .cls-39 {
        fill: #46942f;
      }

      .cls-40 {
        fill: #23699c;
      }
    </style>
    <linearGradient id="linear-gradient" x1="9.58" y1="-.13" x2="17.36" y2="10.44" gradientUnits="userSpaceOnUse">
      <stop offset="0" stop-color="#fff"/>
      <stop offset=".22" stop-color="#fff" stop-opacity=".67"/>
      <stop offset=".43" stop-color="#fff" stop-opacity=".38"/>
      <stop offset=".61" stop-color="#fff" stop-opacity=".18"/>
      <stop offset=".73" stop-color="#fff" stop-opacity=".05"/>
      <stop offset=".81" stop-color="#fff" stop-opacity="0"/>
    </linearGradient>
    <linearGradient id="linear-gradient-2" x1="9.36" y1="16.27" x2="15.75" y2="14.06" gradientUnits="userSpaceOnUse">
      <stop offset="0" stop-color="#fff"/>
      <stop offset=".27" stop-color="#fff" stop-opacity=".67"/>
      <stop offset=".54" stop-color="#fff" stop-opacity=".38"/>
      <stop offset=".75" stop-color="#fff" stop-opacity=".18"/>
      <stop offset=".91" stop-color="#fff" stop-opacity=".05"/>
      <stop offset="1" stop-color="#fff" stop-opacity="0"/>
    </linearGradient>
    <linearGradient id="linear-gradient-3" x1="27.26" y1="21.41" x2="25.6" y2="28.01" xlink:href="#linear-gradient-2"/>
    <linearGradient id="linear-gradient-4" x1="32.93" y1="24.51" x2="31.13" y2="31.66" xlink:href="#linear-gradient-2"/>
    <linearGradient id="linear-gradient-5" x1="33.62" y1="15.17" x2="22.79" y2="9.24" xlink:href="#linear-gradient-2"/>
    <linearGradient id="linear-gradient-6" x1="-121.84" y1="-258.3" x2="-119.87" y2="-256.18" gradientTransform="translate(-226.06 133.33) rotate(90)" xlink:href="#linear-gradient-2"/>
    <linearGradient id="linear-gradient-7" x1="-121.69" y1="-258.44" x2="-119.71" y2="-256.33" gradientTransform="translate(-224.94 133.37) rotate(90)" xlink:href="#linear-gradient-2"/>
    <linearGradient id="linear-gradient-8" x1="-950.32" y1="-437.51" x2="-959.98" y2="-442.81" gradientTransform="translate(-921.74 -443.32) rotate(-128.63) scale(1 -1)" xlink:href="#linear-gradient-2"/>
    <linearGradient id="linear-gradient-9" x1="-1204.55" y1="-269.75" x2="-1202.78" y2="-267.86" gradientTransform="translate(-253.07 -1179.59) rotate(-90) scale(1 -1)" xlink:href="#linear-gradient-2"/>
    <linearGradient id="linear-gradient-10" x1="-1204.41" y1="-269.87" x2="-1202.65" y2="-267.98" gradientTransform="translate(-253.45 -1178.71) rotate(-90) scale(1 -1)" xlink:href="#linear-gradient-2"/>
    <linearGradient id="linear-gradient-11" x1="3.88" y1="13.16" x2="9.61" y2="11.18" xlink:href="#linear-gradient-2"/>
    <linearGradient id="linear-gradient-12" x1="3.29" y1="12.91" x2="4.83" y2="12.36" gradientTransform="translate(7.81 .23) rotate(34.15)" xlink:href="#linear-gradient-2"/>
    <linearGradient id="linear-gradient-13" x1="3.36" y1="13.09" x2="4.9" y2="12.55" gradientTransform="translate(7.91 -.07) rotate(34.15)" xlink:href="#linear-gradient-2"/>
    <linearGradient id="linear-gradient-14" x1="25.13" y1="97.33" x2="6.42" y2="30.54" gradientUnits="userSpaceOnUse">
      <stop offset=".15" stop-color="#95ffff"/>
      <stop offset=".24" stop-color="#8ff6fa"/>
      <stop offset=".51" stop-color="#83e0f0"/>
      <stop offset=".68" stop-color="#7fd9ed"/>
    </linearGradient>
    <linearGradient id="linear-gradient-15" x1="7.44" y1="31.79" x2="1.52" y2="39.47" gradientUnits="userSpaceOnUse">
      <stop offset=".12" stop-color="#c2e9ff"/>
      <stop offset=".27" stop-color="#d9f1ff" stop-opacity=".62"/>
      <stop offset=".41" stop-color="#edf8ff" stop-opacity=".29"/>
      <stop offset=".5" stop-color="#fafdff" stop-opacity=".08"/>
      <stop offset=".55" stop-color="#fff" stop-opacity="0"/>
    </linearGradient>
    <linearGradient id="linear-gradient-16" x1="36.36" y1="89.88" x2="18.24" y2="25.21" xlink:href="#linear-gradient-14"/>
    <linearGradient id="linear-gradient-17" x1="25.9" y1="89.7" x2="9.09" y2="29.7" xlink:href="#linear-gradient-14"/>
    <linearGradient id="linear-gradient-18" x1="13.75" y1="46.26" x2="18.48" y2="65.58" xlink:href="#linear-gradient-15"/>
    <linearGradient id="linear-gradient-19" x1="13.23" y1="35.45" x2="19.62" y2="61.5" xlink:href="#linear-gradient-15"/>
    <linearGradient id="linear-gradient-20" x1="22.37" y1="93.48" x2="4.77" y2="30.64" xlink:href="#linear-gradient-14"/>
    <linearGradient id="linear-gradient-21" x1="23.78" y1="96.09" x2="5.24" y2="29.92" xlink:href="#linear-gradient-14"/>
    <linearGradient id="linear-gradient-22" x1="5.13" y1="37.44" x2="11.51" y2="63.48" xlink:href="#linear-gradient-15"/>
    <linearGradient id="linear-gradient-23" x1="10.29" y1="36.75" x2="3.55" y2="36.75" gradientUnits="userSpaceOnUse">
      <stop offset="0" stop-color="#f75803"/>
      <stop offset=".33" stop-color="#9c3701"/>
      <stop offset=".66" stop-color="#491a00"/>
      <stop offset=".89" stop-color="#140700"/>
      <stop offset="1" stop-color="#000"/>
    </linearGradient>
    <linearGradient id="linear-gradient-24" x1="8.46" y1="35.28" x2="5.4" y2="38.39" gradientUnits="userSpaceOnUse">
      <stop offset="0" stop-color="#fff"/>
      <stop offset=".09" stop-color="#fff" stop-opacity=".98"/>
      <stop offset=".18" stop-color="#fff" stop-opacity=".94"/>
      <stop offset=".26" stop-color="#fff" stop-opacity=".86"/>
      <stop offset=".35" stop-color="#fff" stop-opacity=".75"/>
      <stop offset=".43" stop-color="#fff" stop-opacity=".61"/>
      <stop offset=".52" stop-color="#fff" stop-opacity=".44"/>
      <stop offset=".6" stop-color="#fff" stop-opacity=".24"/>
      <stop offset=".69" stop-color="#fff" stop-opacity="0"/>
      <stop offset=".69" stop-color="#fff" stop-opacity="0"/>
    </linearGradient>
    <linearGradient id="linear-gradient-25" x1="17.66" y1="90.54" x2="1.34" y2="32.3" xlink:href="#linear-gradient-14"/>
    <linearGradient id="linear-gradient-26" x1="16.15" y1="90.96" x2="-.17" y2="32.72" xlink:href="#linear-gradient-14"/>
    <linearGradient id="linear-gradient-27" x1="34.81" y1="88.47" x2="17.58" y2="26.98" xlink:href="#linear-gradient-14"/>
    <linearGradient id="linear-gradient-28" x1="35.08" y1="89.49" x2="17.27" y2="25.95" xlink:href="#linear-gradient-14"/>
    <linearGradient id="linear-gradient-29" x1="21.54" y1="33.42" x2="27.92" y2="59.46" xlink:href="#linear-gradient-15"/>
    <linearGradient id="linear-gradient-30" x1="13.3" y1="31.81" x2="14.91" y2="38.4" xlink:href="#linear-gradient-15"/>
    <linearGradient id="linear-gradient-31" x1="14.43" y1="32.91" x2="15.4" y2="36.87" xlink:href="#linear-gradient-15"/>
  </defs>
  <g class="cls-4">
    <g id="Layer_2" data-name="Layer 2">
      <g id="Layer_1-2" data-name="Layer 1">
        <g>
          <path class="cls-39" d="M6.04.02s3.38-.49,8.81,3.73,4.39,6.58,4.39,6.58c0,0-1.38.56-4.62-1.76S10.82,1.48,6.04.02Z"/>
          <path class="cls-39" d="M5.94,19.91s4.43-3.85,9.25-4.42,4.91-3.65,4.91-3.65c0,0-1.97-1.69-6.65,1.05s-7.5,7.03-7.5,7.03Z"/>
          <path class="cls-3" d="M17.2,8.19s8.91,6.19,5.85,38.12"/>
          <path class="cls-5" d="M15.96,8.74s-1.47-.13-3.6-3.34S8.8.54,7.15.31c0,0,2.73.32,6.63,3.1s4.62,5.01,4.62,5.01"/>
          <path class="cls-7" d="M16.79,11.88s-2.32.36-5.09,2.43-5.02,4.79-5.02,4.79c0,0,3.44-2.74,6-3.38s3.64-.43,5.21-1.47,1.83-1.88,1.83-1.88"/>
          <g>
            <path class="cls-39" d="M27.18,22.51s.91,2.39.34,3.99-3.02,3.42-3.02,3.42c0,0-.73-2.25.1-3.64s2.46-2.91,2.58-3.76Z"/>
            <path class="cls-8" d="M24.6,29.32s-.47-1.63.17-2.79,1.5-1.91,1.87-2.43.48-1.03.48-1.03c0,0,.68,1.98.1,3.52s-2.13,2.54-2.13,2.54"/>
          </g>
          <g>
            <path class="cls-39" d="M24.2,31.52s1.2,2.1,5.31-.21,10.64-3.35,10.64-3.35c0,0-6.7-1.73-10.68-.22s-5.27,3.79-5.27,3.79Z"/>
            <path class="cls-9" d="M24.64,31.29s2.78-3.13,6.85-3.7,7.16.14,7.18.24-3.19.51-7.15,2.24-5.01,2.18-6.03,1.86"/>
          </g>
          <g>
            <path class="cls-39" d="M37.5,16.54s-2.34-3.43-8.39-2.76c-6.05.66-9.07-2.37-9.07-2.37,0,0,1.21-5.25,8.73-2.35,7.52,2.9,8.73,7.48,8.73,7.48Z"/>
            <path class="cls-12" d="M20.73,10.39s1.96-2.57,6.77-1.32,8.11,4.38,9.26,6.25c0,0-3-2.41-7.16-1.95s-7.24-.73-8.51-1.86"/>
            <ellipse class="cls-11" cx="32.19" cy="11.53" rx=".41" ry=".79" transform="translate(8.53 36.22) rotate(-65.92)"/>
            <ellipse class="cls-13" cx="32.72" cy="12.42" rx=".18" ry=".32" transform="translate(8.03 37.22) rotate(-65.92)"/>
          </g>
          <g>
            <path class="cls-39" d="M10.18,24.01s3.7-.27,6.6,4.31,6.71,5.01,6.71,5.01c0,0,2.99-3.77-3.23-7.4-6.22-3.63-10.08-1.92-10.08-1.92Z"/>
            <path class="cls-6" d="M23.82,32.28s.7-2.8-2.85-5.46-7.57-3.21-9.52-2.97c0,0,3.35.74,5.35,3.91s4.55,4.64,6.04,4.9"/>
            <ellipse class="cls-10" cx="16.64" cy="24.92" rx=".37" ry=".71" transform="translate(-13.14 28.28) rotate(-62.71)"/>
            <ellipse class="cls-14" cx="15.72" cy="25.05" rx=".16" ry=".28" transform="translate(-13.74 27.54) rotate(-62.71)"/>
          </g>
          <g>
            <path class="cls-39" d="M.45,14.94s8.57-8.83,15.41-4.85c0,0-1.26,1.57-4.28,2.33s-7.6.82-11.13,2.52Z"/>
            <path class="cls-16" d="M12.78,9.47s-1.06-.88-5.22.89S1.07,14.52,1.07,14.52c0,0,2.89-1.21,7.08-1.76s5.55-1.56,5.55-1.56"/>
            <ellipse class="cls-15" cx="3.52" cy="12.82" rx=".48" ry=".21" transform="translate(-6.59 4.19) rotate(-34.15)"/>
            <ellipse class="cls-17" cx="4.07" cy="12.84" rx=".24" ry=".11" transform="translate(-6.51 4.5) rotate(-34.15)"/>
          </g>
        </g>
        <g>
          <g>
            <path class="cls-28" d="M5.51,36.33c-.85,0-1.2-.32-1.34-.6-.12-.22-.18-.24-.21-.25,0,0-.02,0-.03,0-.08,0-.14,0-.21.02-.05.01-.14.02-.24.02-.7,0-2.26-.41-2.38-1.62-.04-.33.03-.69.19-1.04.2-.47.69-1.15,1.85-1.71.77-.36,1.72-.61,2.84-.73.52-.06,1.05-.09,1.59-.09,2.88,0,5.04.82,5.13.85.12.05.21.16.24.29.02.13-.03.26-.13.35l-.62.52c-1.54,1.29-4.27,3.49-5.29,3.78-.53.15-1,.22-1.41.22Z"/>
            <path class="cls-40" d="M7.58,30.69c2.84,0,5,.83,5,.83,0,0-.24.2-.62.52-1.28,1.07-4.18,3.43-5.15,3.71-.51.14-.95.21-1.3.21-.53,0-.88-.14-1.01-.4-.13-.24-.25-.37-.41-.43-.05-.02-.11-.03-.17-.03-.07,0-.16.01-.26.03-.04,0-.11.02-.18.02-.58,0-1.91-.34-2-1.29-.03-.26.02-.55.16-.85.23-.53.76-1.09,1.67-1.53.68-.32,1.57-.57,2.72-.7.53-.06,1.05-.09,1.55-.09M7.58,29.94h0c-.55,0-1.1.03-1.64.09-1.16.13-2.15.39-2.96.77-1.27.61-1.81,1.38-2.04,1.91-.19.4-.26.83-.22,1.23.14,1.47,1.91,1.95,2.75,1.95.12,0,.23,0,.33-.03,0,.01.02.03.03.05.15.29.58.79,1.67.79.44,0,.94-.08,1.5-.23,1.03-.3,3.52-2.26,5.43-3.86l.62-.52c.2-.17.3-.44.26-.7-.04-.26-.22-.48-.47-.58-.09-.04-2.32-.87-5.27-.87h0Z"/>
          </g>
          <path class="cls-27" d="M5.11,34.56c.04.12-.48.37-1.01.57-.12-.04-.26-.04-.43,0-.42.09-2.08-.21-2.18-1.27-.07-.72.41-1.7,1.83-2.37-.44.45-1.05,1.17-.93,1.65.18.74,2.66,1.22,2.72,1.42Z"/>
          <path class="cls-22" d="M12.58,31.52s-.24.2-.62.52c-2.04-.56-5.05-1.02-8.09-.2-.93.25-1.66.66-2.23,1.17.23-.53.76-1.09,1.67-1.53.68-.32,1.57-.57,2.72-.7,3.57-.4,6.55.74,6.55.74Z"/>
          <g>
            <path class="cls-34" d="M24.32,47.92c-.15,0-.28-.07-.35-.21-.06-.1-.09-.24-.09-.42,0-.26.07-.6.18-.89.14-.35.29-.53.44-.53.07,0,.12.06.12.12s-.06.12-.12.12c-.11.04-.38.67-.38,1.17,0,.13.02.23.06.3.03.06.07.08.14.08.07,0,.12.05.12.12s-.05.12-.12.12Z"/>
            <path class="cls-40" d="M24.52,46c-.21,0-.5.77-.5,1.3,0-.53.3-1.3.5-1.3M24.01,47.29c0,.28.08.5.31.5-.23,0-.31-.22-.31-.5M24.52,45.75h0c-.49,0-.75,1.1-.75,1.54,0,0,0,0,0,0,0,0,0,0,0,0,0,.19.03.35.1.48.1.17.26.27.46.27.14,0,.25-.11.25-.25s-.11-.25-.25-.25c-.03,0-.07-.08-.07-.26,0,0,0,0,0,0,0-.42.2-.94.32-1.06.11-.03.19-.12.19-.24,0-.14-.11-.25-.25-.25h0ZM24.01,47.54h0,0ZM24.01,47.54h0,0Z"/>
          </g>
          <g>
            <path class="cls-35" d="M15.26,54.37c-.63,0-2.12-.06-2.38-.62-.09-.23-.16-.63-.24-1.1-.06-.35-.16-.93-.23-1.05-.03,0-.31-.16-.66-.35-.72-.4-1.71-.95-2.12-1.3h0s-.05-.02-.19-.02c-.36,0-.95.14-1.57.3-.8.2-1.7.42-2.46.42-.25,0-.47-.02-.66-.07-.68-.16-1.22-.71-1.56-1.61-.3-.81-.45-2.03-.18-2.4.11-.15.31-.26.87-.53.83-.41,2.38-1.17,2.71-2.01.07-.17.18-.82-.26-3.02-.23-1.22-.61-2.75-1.09-4.44-.09-.32-.15-.51-.15-.51-.03-.11-.02-.22.04-.32.06-.09.16-.16.27-.17,0,0,.95-.14,2.02-1.34.14-.16.3-.35.47-.57,1.03-1.29,2.76-3.45,5.92-3.45.66,0,1.36.09,2.08.28,2.69.69,4.52,2.28,5.59,4.84.36.86.58,1.69.76,2.35l.12.45c.24.85.6,1.81.98,2.83.42,1.14.86,2.32,1.21,3.52.06.18.11.38.16.56l.04.15c.68,2.62-1.48,8.38-2.19,8.77-.4.22-1.15.3-1.68.3s-1.2-.07-1.52-.39c-.33-.35-.51-1.17-.7-2.38-.15.02-.27.06-.31.1-.01.03-.05.23-.07.38-.12.69-.33,1.84-1.26,2.18-.54.2-1.33.24-1.75.24Z"/>
            <path class="cls-40" d="M13.81,30.57c.6,0,1.26.08,1.99.27,3.14.81,4.57,2.78,5.34,4.62.44,1.04.66,2.03.86,2.75.52,1.82,1.53,4.08,2.19,6.36.07.23.13.47.19.7.65,2.5-1.49,8.06-2.01,8.35-.27.15-.9.25-1.5.25-.54,0-1.06-.08-1.26-.28-.41-.43-.61-2.48-.65-2.5,0,0-.04,0-.09,0-.21,0-.69.05-.84.29-.19.3-.14,2.04-1.15,2.41-.39.15-1.01.21-1.62.21-.96,0-1.93-.16-2.04-.4-.17-.41-.32-2.05-.52-2.23-.2-.17-2.23-1.19-2.83-1.71-.09-.08-.24-.12-.44-.12-.9,0-2.72.72-4.03.72-.21,0-.4-.02-.58-.06-1.52-.35-1.73-3.13-1.52-3.42.21-.29,3.09-1.25,3.63-2.63.2-.52.04-1.82-.24-3.23-.33-1.71-.85-3.59-1.1-4.47-.09-.33-.15-.52-.15-.52,0,0,1.06-.12,2.26-1.46,1.01-1.14,2.62-3.89,6.11-3.89M13.81,29.82h0c-3.34,0-5.14,2.25-6.22,3.59-.17.21-.32.4-.46.55-.96,1.07-1.76,1.21-1.8,1.21-.22.03-.41.16-.53.35-.12.19-.15.41-.09.62,0,0,.06.19.14.49.48,1.69.86,3.22,1.09,4.41.46,2.31.28,2.8.28,2.82-.28.7-1.79,1.45-2.52,1.81-.58.28-.84.41-1.01.65-.4.56-.16,1.97.13,2.75.38,1.02,1.01,1.65,1.83,1.84.22.05.47.08.75.08.81,0,1.74-.23,2.55-.43.57-.14,1.16-.29,1.48-.29.01,0,.02,0,.03,0,.44.35,1.21.79,2.1,1.28.19.1.4.22.54.3.05.21.12.59.16.84.1.57.16.93.26,1.17.1.23.39.87,2.73.87.55,0,1.32-.05,1.89-.26.82-.3,1.17-1.08,1.35-1.76.14.65.32,1.11.58,1.38.35.35.95.51,1.8.51.6,0,1.41-.09,1.87-.35.97-.54,3.07-6.5,2.37-9.19l-.03-.11c-.05-.2-.11-.41-.17-.62-.35-1.21-.79-2.39-1.22-3.54-.38-1.01-.73-1.97-.97-2.81-.04-.13-.08-.28-.12-.44-.18-.67-.4-1.51-.77-2.39-1.12-2.67-3.03-4.33-5.84-5.05-.75-.19-1.48-.29-2.18-.29h0Z"/>
          </g>
          <path class="cls-36" d="M22.37,53.62c-.52.29-2.34.39-2.76-.03-.41-.43-.61-2.48-.65-2.5-.05-.02-.75-.01-.93.28-.19.3-.14,2.04-1.15,2.41-1.01.38-3.48.21-3.66-.19-.17-.41-.32-2.05-.52-2.23-.2-.17-2.23-1.19-2.83-1.71-.59-.52-3.52.9-5.05.54-1.52-.35-1.73-3.13-1.52-3.42.21-.29,3.09-1.25,3.63-2.63.2-.52.04-1.82-.24-3.23l.34.1s.71,1.57.31,3.24c-.4,1.68-3.11,2.55-3.4,2.65.14.04.44.25.72,1.08.5,1.47.37,1.68.56,1.86s1.18.09,2.34-.26c1.16-.34,2.13-.62,2.44-.58.31.04,1.2.66,1.95,1.14.74.48,1.13.52,1.24.68.11.16.21,2.3.54,2.34.33.04,1.66.23,2.56.18.89-.05,1.08-.55,1.22-1.51.14-.96.59-1.51,1.43-1.33.84.18.6,1.89.93,2.53.33.64,1.91.42,2.32.15.4-.26,2.13-4.14,2-8.61.07.23.13.47.19.7.65,2.5-1.49,8.06-2.01,8.35Z"/>
          <path class="cls-19" d="M21.14,35.46c-.82-.88-1.44-1.44-1.47-1.52-.09-.2-1.42-2.46-5.15-2.78s-5.59,2.62-6.44,3.73c-.69.92-1.29,1.32-2.49,1.55-.09-.33-.15-.52-.15-.52,0,0,1.06-.12,2.26-1.46,1.19-1.34,3.2-4.89,8.1-3.62,3.14.81,4.57,2.78,5.34,4.62Z"/>
          <g>
            <g>
              <path class="cls-25" d="M10.87,45.35c-.46,0-.87-.3-1.15-.85-.19-.38-.37-.74-.53-1.07-.37-.77-.61-1.32-.61-1.32-.02-.04-.01-.09.02-.13.28-.32.69-.48,1.22-.48,1.09,0,2.33.68,2.38.71.03.02.06.05.06.09,0,.04.12,1.1-.14,1.97,0,.04-.02.08-.04.13-.21.56-.71.95-1.22.95Z"/>
              <path class="cls-40" d="M9.83,41.63c1.07,0,2.32.69,2.32.69,0,0,.12,1.07-.13,1.92,0,.05-.03.09-.04.14-.18.49-.63.85-1.1.85-.37,0-.76-.22-1.04-.78-.19-.38-.37-.74-.52-1.06-.37-.77-.61-1.32-.61-1.32.28-.32.69-.44,1.13-.44M9.83,41.39h0c-.57,0-1.01.18-1.32.52-.06.07-.08.17-.04.26,0,0,.24.55.62,1.33.15.32.33.69.53,1.07.4.79.96.91,1.26.91.57,0,1.12-.42,1.33-1.01.02-.06.04-.11.05-.17.26-.87.14-1.95.14-2,0-.08-.06-.15-.13-.19-.05-.03-1.32-.72-2.44-.72h0Z"/>
            </g>
            <path class="cls-1" d="M12.02,44.24s-.03.09-.04.14c-.31.87-1.49,1.34-2.14.07-.19-.38-.37-.74-.52-1.06.35-.13.85-.19,1.48.04.53.19.94.5,1.23.81Z"/>
          </g>
          <g>
            <g>
              <path class="cls-30" d="M11.92,43.39c-.92,0-1.65-.63-1.95-.95-.59.11-2.3.41-4.05.41-.92,0-1.73-.08-2.39-.25-1.31-.33-2.35-1.19-2.85-2.37-.4-.94-.4-1.97.01-2.69.78-1.36,2.1-1.55,3.51-1.75l.31-.05c1.67-.25,2.58-1.15,2.9-1.53.08-.1.24-.21.51-.21,1.54,0,6.65,3.83,6.65,8.09,0,.11-.05.22-.14.29-.04.03-1.02.82-2.25.99-.09.01-.18.02-.26.02Z"/>
              <path class="cls-40" d="M7.92,34.38c1.23,0,6.28,3.61,6.28,7.72,0,0-.92.75-2.06.9-.07,0-.14.01-.21.01-1.04,0-1.82-.99-1.82-.99,0,0-2.08.45-4.19.45-.8,0-1.6-.06-2.3-.24-2.55-.64-3.34-3.22-2.6-4.51.74-1.29,2.05-1.39,3.55-1.61,1.5-.22,2.56-.97,3.13-1.66.04-.05.12-.08.22-.08M7.92,33.63h0c-.44,0-.69.22-.8.35-.29.34-1.12,1.17-2.67,1.4l-.31.05c-1.43.21-2.91.42-3.78,1.94-.47.83-.49,1.96-.03,3.02.55,1.28,1.68,2.23,3.1,2.58.69.17,1.52.26,2.48.26,1.62,0,3.2-.25,3.93-.38.4.38,1.14.92,2.08.92.1,0,.21,0,.31-.02,1.34-.18,2.39-1.03,2.44-1.07.17-.14.28-.36.28-.58,0-4.56-5.36-8.47-7.03-8.47h0Z"/>
            </g>
            <path class="cls-29" d="M15.4,40.89l-.37,1.48s-.95,1.07-2.85,1.06c-1.9-.01-2.14-1.15-2.14-1.15,0,0-2.83.61-5.72.29-.14-.02-.27-.03-.39-.06-.01,0-.02-.01-.03-.01-2.52-.47-2.95-2.61-2.95-2.61h.01c-.28-.78-.27-1.59.05-2.16.74-1.29,2.05-1.39,3.55-1.61,1.43-.21,2.45-.9,3.04-1.55h-.01l.94-1.13s.17.1.47.27c1.22.76,4.52,3.01,5.66,5.86.11.28.31.73.43,1.2l.31.12Z"/>
            <path class="cls-18" d="M9,33.71c-.4.46-.69.89-.92,1.18-.84,1.12-1.54,1.47-3.34,1.67-1.79.21-3.44.28-3.42,2.94.01,1.83,1.6,2.66,2.58,3-2.52-.47-2.95-2.61-2.95-2.61h.01c-.28-.78-.27-1.59.05-2.16.74-1.29,2.05-1.39,3.55-1.61,1.43-.21,2.45-.9,3.04-1.55h-.01l.94-1.13s.17.1.47.27Z"/>
          </g>
          <g>
            <path class="cls-27" d="M3.79,36.08s1.12-.27,1.9.51,1.12,2.03,1.45,2.23,2.47-.26,2.81-.81-.23-2.45-2.21-3.16-3.73.42-3.95,1.23Z"/>
            <path class="cls-31" d="M6.47,34.62c.4,0,.83.07,1.27.22,1.98.71,2.55,2.61,2.21,3.16-.28.46-1.81.86-2.51.86-.14,0-.24-.02-.3-.05-.33-.21-.67-1.45-1.45-2.23-.46-.46-1.04-.56-1.43-.56-.28,0-.47.05-.47.05.17-.63,1.26-1.46,2.68-1.46M6.47,34.38c-1.48,0-2.7.85-2.91,1.64-.02.08,0,.17.06.23.05.05.11.07.18.07.02,0,.04,0,.06,0,0,0,.17-.04.41-.04.35,0,.86.08,1.26.48.42.41.7.98.93,1.44.21.41.36.71.56.83.1.06.23.09.43.09.63,0,2.36-.38,2.72-.98.17-.29.17-.77-.02-1.3-.36-1-1.22-1.83-2.32-2.22-.44-.16-.9-.24-1.35-.24h0Z"/>
          </g>
          <path class="cls-23" d="M4.13,35.86s.98-1.11,2.28-1.1,2.65.74,3.2,2-.38,1.67-1.53,1.81-.95-.51-1.66-1.36-1.57-1.41-2.29-1.35Z"/>
          <g>
            <ellipse class="cls-2" cx="14.12" cy="38.26" rx="1.67" ry=".58" transform="translate(-26.23 44.22) rotate(-78.15)"/>
            <ellipse class="cls-26" cx="14.28" cy="37.49" rx=".69" ry=".26" transform="translate(-25.34 43.77) rotate(-78.15)"/>
          </g>
          <g>
            <path class="cls-33" d="M3.1,38.47s.37.65.46,2.06"/>
            <path class="cls-40" d="M3.1,38.47c.45.57.57,1.35.46,2.06-.22-.69-.31-1.35-.46-2.06h0Z"/>
          </g>
          <g>
            <path class="cls-38" d="M1.76,38.18s-.19.42-.29,1.83"/>
            <path class="cls-40" d="M1.76,38.18c-.03.63-.07,1.22-.29,1.83-.12-.62-.07-1.29.29-1.83h0Z"/>
          </g>
          <g>
            <g>
              <path class="cls-37" d="M22.16,47.51c-.16,0-.32-.01-.49-.04-.7-.12-1.57-.61-2.32-1.31-.74-.69-1.75-1.95-2.32-4-.99-3.57-.29-7.4-.26-7.56.03-.14.13-.26.27-.29l3.11-.83s.06-.01.1-.01c.08,0,.17.03.23.08.12.1,3.09,2.47,5.12,6.24.51.95.87,1.83,1.08,2.59.45,1.65.19,2.93-.69,3.43-.42.24-.75.36-1.05.46-.14.05-.27.09-.4.15-.14.06-.27.14-.39.24-.29.24-.64.51-1.07.68-.3.12-.61.18-.93.18Z"/>
              <path class="cls-40" d="M20.26,33.83s3.01,2.38,5.03,6.13c.52.97.86,1.8,1.04,2.51.46,1.69.09,2.67-.51,3.01-.61.35-1.02.42-1.42.59-.16.07-.31.16-.47.29-.29.24-.6.47-.97.62-.24.09-.5.15-.79.15-.14,0-.28-.01-.43-.04-.49-.09-1.31-.45-2.13-1.22-.85-.79-1.71-2.02-2.21-3.82-.98-3.53-.25-7.39-.25-7.39l3.11-.83M20.26,33.08c-.06,0-.13,0-.19.03l-3.11.83c-.28.07-.49.3-.54.58-.03.16-.75,4.08.26,7.73.59,2.14,1.65,3.45,2.42,4.17.81.75,1.75,1.28,2.52,1.41.19.03.37.05.56.05.37,0,.73-.07,1.07-.21.48-.19.85-.48,1.17-.74.09-.08.19-.14.3-.18.13-.06.25-.1.38-.14.29-.1.66-.23,1.11-.49.39-.22,1.59-1.16.86-3.86-.21-.79-.58-1.69-1.11-2.67-2.07-3.84-5.09-6.26-5.22-6.36-.13-.11-.3-.16-.46-.16h0Z"/>
            </g>
            <path class="cls-32" d="M25.81,45.48c-.1.06-.2.11-.29.15-.45.22-.8.29-1.12.44-.16.07-.32.16-.48.29-.29.24-.59.47-.96.62-.35.14-.74.2-1.23.12-.49-.09-1.31-.46-2.13-1.22-.65-.61-1.3-1.47-1.8-2.64v-.02c-1.33-2.68-1.34-9.23-1.34-9.23l1.66-.87s.36-.12.73-.19c.29-.05.6-.07.73.06.28.29.67.84.67.84,0,0,1.58,1.25,3.22,3.36v.02c.63.8,1.26,1.72,1.81,2.75.52.96.86,1.8,1.04,2.51.46,1.69.09,2.66-.51,3.01Z"/>
            <path class="cls-27" d="M23.56,45.23c-.05.89-.29,1.43-.6,1.75-.34.14-.74.2-1.22.11-.49-.09-1.31-.45-2.13-1.22,0,0,.49.07.69-.13s-.28-4.33.6-4.49c.88-.15,2.78,2.05,2.67,3.97Z"/>
            <path class="cls-27" d="M25.82,45.48c-.61.35-1.02.42-1.42.59,0-.59.5-.78.39-2.12-.11-1.34-1.2-3.65-.21-3.3.62.22,1.31,1.15,1.75,1.82.46,1.69.09,2.67-.51,3.01Z"/>
            <path class="cls-24" d="M25.81,45.48c-.1.06-.2.11-.29.15.28-.73.67-2.53-.67-5.15-1.78-3.48-5.1-6.35-5.18-6.54-.04-.08-.28-.51-.82-1.01.29-.05.6-.07.73.06.28.29.67.84.67.84,0,0,1.58,1.25,3.22,3.36v.02c.63.8,1.26,1.72,1.81,2.75.52.96.86,1.8,1.04,2.51.46,1.69.09,2.66-.51,3.01Z"/>
          </g>
          <ellipse class="cls-20" cx="13.21" cy="31.46" rx="1.69" ry=".76"/>
          <ellipse class="cls-21" cx="14.37" cy="32.7" rx=".85" ry=".48"/>
        </g>
      </g>
    </g>
  </g>
</svg>