<?xml version="1.0" encoding="UTF-8"?>
<svg xmlns="http://www.w3.org/2000/svg" xmlns:xlink="http://www.w3.org/1999/xlink" viewBox="0 0 77.16 36.14">
  <defs>
    <style>
      .cls-1 {
        fill: #f591bd;
      }

      .cls-2 {
        fill: url(#linear-gradient-8);
      }

      .cls-3 {
        fill: url(#linear-gradient-7);
      }

      .cls-4 {
        fill: url(#linear-gradient-6);
      }

      .cls-5 {
        fill: url(#linear-gradient-4);
      }

      .cls-6 {
        fill: url(#linear-gradient-2);
      }

      .cls-7 {
        fill: #402766;
      }

      .cls-8 {
        fill: none;
        stroke: #402766;
        stroke-linecap: round;
        stroke-linejoin: round;
        stroke-width: .28px;
      }

      .cls-9 {
        fill: url(#linear-gradient);
      }

      .cls-10 {
        isolation: isolate;
      }

      .cls-11 {
        fill: #ffbdd5;
      }

      .cls-11, .cls-12, .cls-13, .cls-14, .cls-15, .cls-16, .cls-17, .cls-18, .cls-19, .cls-20 {
        mix-blend-mode: overlay;
      }

      .cls-12 {
        fill: url(#linear-gradient-3);
      }

      .cls-13 {
        fill: url(#linear-gradient-9);
      }

      .cls-21 {
        fill: #fff;
      }

      .cls-14 {
        fill: url(#linear-gradient-10);
      }

      .cls-15 {
        fill: url(#linear-gradient-20);
      }

      .cls-16 {
        fill: url(#linear-gradient-19);
      }

      .cls-17 {
        fill: url(#linear-gradient-14);
      }

      .cls-18 {
        fill: url(#linear-gradient-17);
      }

      .cls-19 {
        fill: url(#linear-gradient-18);
      }

      .cls-22 {
        fill: url(#linear-gradient-11);
      }

      .cls-23 {
        fill: url(#linear-gradient-12);
      }

      .cls-24 {
        fill: url(#linear-gradient-13);
      }

      .cls-25 {
        fill: url(#linear-gradient-15);
      }

      .cls-26 {
        fill: url(#linear-gradient-16);
      }

      .cls-27 {
        fill: #512791;
      }

      .cls-28 {
        fill: #ff80ac;
      }

      .cls-20 {
        fill: url(#linear-gradient-5);
        opacity: .56;
      }
    </style>
    <linearGradient id="linear-gradient" x1="-3058.73" y1="90.98" x2="-3065.9" y2="139.22" gradientTransform="translate(-3061.41 92.9) rotate(176.55) scale(1 -1)" gradientUnits="userSpaceOnUse">
      <stop offset="0" stop-color="#fce3e3"/>
      <stop offset="1" stop-color="#f7dad9"/>
    </linearGradient>
    <linearGradient id="linear-gradient-2" x1="-3087.75" y1="87.61" x2="-3094.96" y2="136.13" xlink:href="#linear-gradient"/>
    <linearGradient id="linear-gradient-3" x1="-3092.23" y1="115.42" x2="-3093.53" y2="117.73" gradientTransform="translate(-3061.41 92.9) rotate(176.55) scale(1 -1)" gradientUnits="userSpaceOnUse">
      <stop offset=".12" stop-color="#e8f7ff"/>
      <stop offset=".27" stop-color="#f0faff" stop-opacity=".62"/>
      <stop offset=".41" stop-color="#f8fcff" stop-opacity=".29"/>
      <stop offset=".5" stop-color="#fdfeff" stop-opacity=".08"/>
      <stop offset=".55" stop-color="#fff" stop-opacity="0"/>
    </linearGradient>
    <linearGradient id="linear-gradient-4" x1="-3072.76" y1="96.21" x2="-3078.68" y2="136" xlink:href="#linear-gradient"/>
    <linearGradient id="linear-gradient-5" x1="-3073.76" y1="103.14" x2="-3079.99" y2="114.2" xlink:href="#linear-gradient-3"/>
    <linearGradient id="linear-gradient-6" x1="-3073.75" y1="95.6" x2="-3079.55" y2="134.64" xlink:href="#linear-gradient"/>
    <linearGradient id="linear-gradient-7" x1="-3086.72" y1="88.21" x2="-3093.71" y2="135.26" xlink:href="#linear-gradient"/>
    <linearGradient id="linear-gradient-8" x1="-3075.18" y1="96.08" x2="-3080.78" y2="133.75" xlink:href="#linear-gradient"/>
    <linearGradient id="linear-gradient-9" x1="-3087.59" y1="120.34" x2="-3089.73" y2="109.36" xlink:href="#linear-gradient-3"/>
    <linearGradient id="linear-gradient-10" x1="-3088.8" y1="113.94" x2="-3096.73" y2="128.03" xlink:href="#linear-gradient-3"/>
    <linearGradient id="linear-gradient-11" x1="-3077.93" y1="108.5" x2="-3080.63" y2="130.59" gradientTransform="translate(-3061.41 92.9) rotate(176.55) scale(1 -1)" gradientUnits="userSpaceOnUse">
      <stop offset="0" stop-color="#ff70a4"/>
      <stop offset="1" stop-color="#ef548d"/>
    </linearGradient>
    <linearGradient id="linear-gradient-12" x1="-3074.04" y1="95.69" x2="-3079.84" y2="134.67" xlink:href="#linear-gradient"/>
    <linearGradient id="linear-gradient-13" x1="-3074.15" y1="96.23" x2="-3079.75" y2="133.91" xlink:href="#linear-gradient"/>
    <linearGradient id="linear-gradient-14" x1="-3068.17" y1="120.76" x2="-3075.01" y2="132.92" xlink:href="#linear-gradient-3"/>
    <linearGradient id="linear-gradient-15" x1="-3076.42" y1="95.9" x2="-3082.02" y2="133.57" xlink:href="#linear-gradient"/>
    <linearGradient id="linear-gradient-16" x1="-3076.42" y1="95.9" x2="-3082.02" y2="133.57" xlink:href="#linear-gradient"/>
    <linearGradient id="linear-gradient-17" x1="-3066.79" y1="125.02" x2="-3069.39" y2="111.69" xlink:href="#linear-gradient-3"/>
    <linearGradient id="linear-gradient-18" x1="46.42" y1="21" x2="46.48" y2="28.83" gradientUnits="userSpaceOnUse">
      <stop offset=".15" stop-color="#fff"/>
      <stop offset=".15" stop-color="#fff" stop-opacity=".98"/>
      <stop offset=".27" stop-color="#fff" stop-opacity=".69"/>
      <stop offset=".38" stop-color="#fff" stop-opacity=".44"/>
      <stop offset=".48" stop-color="#fff" stop-opacity=".25"/>
      <stop offset=".57" stop-color="#fff" stop-opacity=".11"/>
      <stop offset=".64" stop-color="#fff" stop-opacity=".03"/>
      <stop offset=".69" stop-color="#fff" stop-opacity="0"/>
    </linearGradient>
    <linearGradient id="linear-gradient-19" x1="59.43" y1="21" x2="59.49" y2="28.83" xlink:href="#linear-gradient-18"/>
    <linearGradient id="linear-gradient-20" x1="72.44" y1="21" x2="72.5" y2="28.83" xlink:href="#linear-gradient-18"/>
  </defs>
  <g class="cls-10">
    <g id="Layer_2" data-name="Layer 2">
      <g id="Layer_1-2" data-name="Layer 1">
        <g>
          <path class="cls-9" d="M4.04,33.08c-1.19,0-3.12-.32-3.55-1.19-.16-.31-.11-.66.13-.96,1.04-1.36,4.87-1.46,5.3-1.47.81.15,1.28.57,1.37,1.17.12.76-.43,1.61-1.36,2.1-.54.29-1.33.35-1.89.35h0Z"/>
          <path class="cls-7" d="M5.92,29.84c1.45.28,1.23,1.78-.18,2.54-.4.21-1.02.31-1.7.31-1.74,0-3.81-.63-3.12-1.53.96-1.25,5-1.31,5-1.31M5.92,29.06s0,0-.01,0c-.74.01-4.47.14-5.61,1.62-.33.43-.39.93-.17,1.38.55,1.11,2.71,1.41,3.91,1.41.6,0,1.45-.07,2.07-.4,1.09-.58,1.7-1.57,1.56-2.51-.12-.76-.72-1.32-1.6-1.49-.05,0-.1-.01-.15-.01h0Z"/>
        </g>
        <g>
          <path class="cls-6" d="M30.63,24.09c-.11,0-.21,0-.31-.02-.81-.12-1.46-.49-1.8-1.03-.22-.36-.28-.75-.15-1.12.1-.34.36-.66.77-.9.17-.07,2.33-.8,4.01-.8.67,0,1.18.11,1.55.35.3.19.46.46.46.78-.01.75-.98,1.42-1.56,1.76-1.01.6-2.17,1-2.96,1h0Z"/>
          <path class="cls-7" d="M33.15,20.61c.53,0,1.01.08,1.34.29.7.44-.03,1.25-1.09,1.86-.89.53-2.01.94-2.77.94-.09,0-.17,0-.25-.02-1.17-.17-1.87-.94-1.64-1.65.07-.24.26-.49.6-.68,0,0,2.18-.74,3.81-.74M33.15,19.82c-1.75,0-3.97.75-4.07.79-.05.02-.1.04-.15.07-.62.37-.86.83-.95,1.15-.15.45-.08.97.2,1.42.4.64,1.15,1.08,2.07,1.21.11.02.23.03.36.03,1.04,0,2.36-.57,3.17-1.05.78-.46,1.73-1.19,1.74-2.08,0-.45-.22-.85-.64-1.12-.43-.27-1-.41-1.75-.41h0Z"/>
        </g>
        <path class="cls-12" d="M33.39,22.76c1.06-.62,1.79-1.43,1.09-1.86-1.33-.85-5.15.46-5.15.46-.33.2-.53.44-.6.68,1.24-.39,3.46-1.03,4.62-.95,1.22.09.97.87.04,1.67Z"/>
        <g>
          <path class="cls-5" d="M7.04,17.06c-1.1,0-2-.32-2.52-.9-.02-.02-.03-.04-.04-.05-.43-.49-.57-1.15-.4-1.89.26-1.1,1.35-1.72,3.1-1.75-.98-1.19-1.65-2.17-2.06-2.82-2.41-3.84-1.74-5.67-.75-6.53.5-.43,1.1-.65,1.79-.65,1.4,0,3.13.92,5.14,2.72.55.5,1.04.98,1.42,1.38-.05-.46-.08-1.01-.07-1.59.03-2.96,1.21-4.59,3.33-4.59,1.62.02,2.8.99,3.49,2.8.63,1.62.75,3.57.76,4.69.17-.07.36-.1.56-.1.72,0,1.61.51,1.75,1.94.12,1.24-.42,2.02-.79,2.4-.01.02-.03.04-.04.05-.38.38-.73.54-.77.55-.46.17-10.74,3.9-12.89,4.26-.35.06-.69.08-1.02.08h0Z"/>
          <path class="cls-7" d="M15.99.78s.04,0,.07,0c1.59.02,2.53,1.14,3.06,2.55.9,2.33.71,5.44.71,5.44.15-.37.54-.6.96-.6.6,0,1.25.45,1.36,1.59.1,1.05-.31,1.73-.72,2.12h0c-.34.34-.65.48-.65.48,0,0-10.66,3.87-12.8,4.23-.33.05-.65.08-.95.08-.95,0-1.77-.26-2.23-.77h0c-.36-.39-.5-.92-.35-1.59.29-1.25,1.86-1.45,2.83-1.45.42,0,.72.04.77.04-.14-.16-1.47-1.65-2.6-3.46-1.33-2.13-2.36-4.69-.82-6.03.45-.39.97-.56,1.53-.56,1.58,0,3.45,1.34,4.88,2.62,1.32,1.19,2.26,2.32,2.26,2.32,0,0-.29-1.31-.26-2.81.02-1.95.56-4.21,2.94-4.21M15.99,0h0c-2.34,0-3.7,1.82-3.73,4.98,0,.19,0,.38,0,.56-.22-.21-.45-.43-.7-.65-2.09-1.87-3.91-2.82-5.4-2.82-.78,0-1.47.25-2.04.75-1.1.96-1.88,2.95.67,7.03.35.56.88,1.34,1.61,2.28-1.5.19-2.45.88-2.7,2-.2.85-.04,1.63.47,2.22.02.03.04.05.06.07.59.66,1.59,1.03,2.81,1.03.35,0,.71-.03,1.08-.09,2.18-.37,12.5-4.11,12.94-4.27.11-.05.52-.23.94-.65.03-.03.05-.06.08-.09.42-.44,1.01-1.31.87-2.68-.16-1.58-1.19-2.29-2.14-2.29-.06,0-.12,0-.18,0-.04-1.18-.21-2.89-.77-4.35C18.9.56,17.27.02,16.07,0h-.07Z"/>
        </g>
        <path class="cls-1" d="M13.05,4.99c.35.23.62.38.7.32.25-.18,1.06-1.16,1.28-1.08.23.09,1.79,1.83,2.37,1.73.36-.06,1.15-1.52,1.71-2.63-.53-1.4-1.47-2.53-3.06-2.55-2.44-.04-2.99,2.24-3.01,4.21Z"/>
        <path class="cls-1" d="M5.46,9.44c.38-.32.73-2.56.73-2.56,0,0,2.59,1.05,2.75.68.16-.36-.1-1.73-.1-1.73,0,0,1.43-.2,2.21-.35-1.93-1.73-4.67-3.57-6.41-2.06-1.54,1.34-.51,3.9.82,6.03Z"/>
        <path class="cls-20" d="M4.82,15.89c-.09-.63-.08-1.3.22-1.74.73-1.09,3.89-.63,3.94-.61,0-.03-.91-1.07-2.68-3.98-1.81-3.01-2.52-6.11.03-6.13,2.54,0,7.56,5.61,7.56,5.61,0,0-.18-1.24-.32-3.13-.13-1.88.71-5.02,3.48-4.22,2.76.82,2.3,8.11,2.3,8.11,0,0,1.56-1.3,2.15-.13.27.55.15,1.43-.05,2.2.41-.39.82-1.07.72-2.12-.19-1.93-1.96-1.89-2.33-.99,0,0,.19-3.11-.71-5.44-.53-1.4-1.47-2.53-3.06-2.55-2.44-.04-2.99,2.24-3.01,4.21-.02,1.5.26,2.81.26,2.81,0,0-.95-1.14-2.26-2.32-1.93-1.73-4.67-3.57-6.41-2.06-1.54,1.34-.51,3.9.82,6.03,1.13,1.81,2.47,3.3,2.6,3.46-.15-.01-3.18-.38-3.6,1.41-.16.67-.01,1.2.35,1.58Z"/>
        <g>
          <path class="cls-4" d="M7.4,35.74c-.24,0-.5,0-.77-.03-2.48-.16-2.87-1.01-2.88-1.5-.02-.63.6-1.23,1.48-1.49-.7-.55-1.63-1.61-2.27-3.73-1.34-4.45,1.08-11.61,7.34-15.43,2.44-1.49,5.16-2.28,7.87-2.28,7.22,0,13.05,5.36,13.86,12.73.05.43-.07.82-.34,1.12-.48.53-1.44.8-2.85.8-.3,0-.55-.01-.73-.02-.19,0-.34-.15-.37-.34-.04-.37-1.08-1.16-1.91-1.79-1.02-.78-1.05-1.2-.88-1.97.12-.56.31-1.41-.34-3.31-.68-1.97-2.69-3.25-5.11-3.25-2.08,0-4.12.98-5.58,2.69h0s-2.05,3.07-.81,8.51c.33,1.46.15,2.74-.54,3.82-.68,1.08-1.75,1.74-2.62,2.14.21.1.45.23.69.4.52.36.73.88.57,1.39-.3.95-1.75,1.54-3.8,1.54Z"/>
          <path class="cls-7" d="M18.16,11.68c6.67,0,12.64,4.86,13.47,12.39.14,1.3-1.64,1.49-2.8,1.49-.29,0-.54-.01-.71-.02-.06-.49-.76-1.07-2.06-2.06-1.87-1.43.28-1.12-1.08-5.1-.76-2.2-3-3.51-5.48-3.51-2.02,0-4.2.87-5.88,2.82,0,0-2.19,3.15-.9,8.85,1.06,4.68-3.85,5.88-4.29,5.98.05,0,.13-.02.26-.02.34,0,.94.1,1.72.64,1.13.79.17,2.22-3,2.22-.23,0-.48,0-.74-.02-3.77-.24-2.68-2.13-.78-2.34,1.3-.15-1.24.22-2.54-4.1-1.3-4.32,1.07-11.26,7.17-14.98,2.49-1.52,5.13-2.22,7.66-2.22M18.16,10.89h0c-2.77,0-5.56.81-8.07,2.34-2.95,1.8-5.32,4.5-6.67,7.62-1.25,2.87-1.56,5.88-.84,8.26.54,1.77,1.27,2.84,1.91,3.49-.71.38-1.15.98-1.14,1.63.02.63.46,1.71,3.25,1.89.28.02.54.03.79.03,2.25,0,3.81-.68,4.17-1.82.21-.67-.06-1.37-.72-1.83-.03-.02-.06-.04-.08-.06.76-.43,1.56-1.06,2.13-1.96.74-1.17.94-2.55.59-4.11-1.13-4.98.57-7.89.76-8.21,1.41-1.62,3.27-2.51,5.25-2.51,2.26,0,4.12,1.17,4.74,2.98.62,1.8.45,2.55.33,3.1-.21.94-.11,1.5,1.02,2.37.58.44,1.65,1.27,1.76,1.56.05.38.35.64.73.66.18,0,.44.02.75.02,1.55,0,2.58-.31,3.14-.93.35-.39.5-.88.44-1.42-.83-7.58-6.82-13.08-14.24-13.08h0Z"/>
        </g>
        <g>
          <path class="cls-3" d="M30.37,27.37c-1.63,0-2.26-.6-2.49-.96-.22-.34-.26-.74-.12-1.06.02-.04.04-.07.07-.1.08-.08,1.98-2.08,4.8-2.08.17,0,.34,0,.51.02,1.59.14,1.77.98,1.78,1.34,0,1.24-1.8,2.6-3.72,2.8-.3.03-.58.04-.83.04Z"/>
          <path class="cls-7" d="M32.62,23.56c.16,0,.32,0,.48.02,2.94.26.84,3.07-1.95,3.36-.29.03-.55.04-.79.04-2.09,0-2.45-1.02-2.25-1.46,0,0,1.83-1.96,4.51-1.96M32.63,22.78h0c-2.98,0-5,2.12-5.08,2.21-.06.06-.1.13-.14.21-.2.44-.15.97.14,1.43.33.52,1.09,1.14,2.82,1.14.27,0,.56-.02.87-.05,2.14-.22,4.08-1.74,4.07-3.19,0-.36-.16-1.55-2.13-1.73-.19-.02-.37-.02-.55-.02h0Z"/>
        </g>
        <path class="cls-2" d="M5.87,32.98c-1.89.22-2.98,2.1.79,2.35,2.05.13,3.33-.28,3.88-.83h.01c.45-.46.4-.99-.15-1.37-1.06-.73-1.8-.64-1.97-.61.38-.09,4.15-1,4.41-4.33.02-.23.02-.47,0-.73,0-.11-.02-.23-.04-.34-.01-.05-.02-.12-.02-.2-.01-.04-.01-.07-.02-.11-.03-.08-.04-.18-.06-.26-1.29-5.7.9-8.85.9-8.85.18-.21.36-.4.55-.58,2.24-2.2,5.17-2.68,7.46-1.89.16.04.32.11.47.17,1.34.57,2.41,1.6,2.88,2.99,1.37,3.99-.78,3.67,1.09,5.1.04.04.09.07.13.1,1.2.93,1.86,1.49,1.92,1.96-.22.48.25,1.7,3.05,1.42,1.36-.13,2.56-.89,3.09-1.64.54-.79.35-1.59-1.15-1.72-.55-.04-1.05.01-1.53.1-.06-.48-.14-.95-.25-1.42h0c-.16-.71-.37-1.39-.62-2.03-2.04-5.34-6.91-8.97-12.27-9.35-.02,0-.04,0-.05,0-2.65-.18-5.41.43-8,2.02-1.12.67-2.11,1.5-2.96,2.42h0c-2.13,2.27-3.48,5.12-4.07,7.81-.29,1.29-.4,2.57-.34,3.7.05.75.16,1.44.34,2.06,1.31,4.32,3.84,3.96,2.54,4.1Z"/>
        <path class="cls-1" d="M22.09,15.39c1.34.57,2.41,1.6,2.88,2.99,1.37,3.99-.78,3.67,1.09,5.1.04.04.09.07.13.1-.01-.92,0-2.17.21-2.21.33-.06,2.3,1.78,2.59,1.74.29-.04.47-1.74.62-1.93.08-.1.92.51,1.7,1.09-.16-.7-.37-1.38-.62-2.02-.82-.72-2.04-1.78-2.14-1.67-.15.17.12,2.06.15,2.42s-.73.11-2.02-2.19c-1.29-2.3-4.11-5.34-4.11-5.34,0,0-.2.98-.47,1.93Z"/>
        <path class="cls-13" d="M25.01,14.45s2.4.97,4.23,4.54,1.25,5.47,1.44,5.67,1.9-.94,2.85-.04-2.2,2.16-3.54,2.02-1.75-.9-1.67-1.38-.62-.96-1.92-2.11-2.64-3.83-2.83-5.37"/>
        <path class="cls-14" d="M18.42,10.88c1.76.35,4.52,1.23,7.45,3.52,4.94,3.83,5.19,9.92,5.19,9.92,0,0,1.78-.63,2.69-.05.36.23.48.63.5,1.04.54-.79.35-1.59-1.15-1.72-.55-.04-1.05.01-1.53.1-.06-.48-.14-.95-.25-1.42h0c-.16-.71-.37-1.39-.62-2.03-2.04-5.34-6.91-8.97-12.27-9.35Z"/>
        <g>
          <path class="cls-22" d="M18.05,27.36c-2.76,0-5.28-1.48-6.42-3.77-.26-.53-.45-1.09-.54-1.66-.29-1.64.1-3.33,1.1-4.76,1.12-1.6,2.93-2.72,4.95-3.07.46-.08.93-.12,1.4-.12,2.75,0,5.27,1.47,6.4,3.74.28.57.46,1.12.56,1.69.64,3.62-2.07,7.14-6.05,7.85-.46.08-.93.12-1.39.12h0Z"/>
          <path class="cls-7" d="M18.54,14.2c2.69,0,5.1,1.42,6.19,3.61.25.51.44,1.04.54,1.62.62,3.51-2,6.9-5.86,7.58-.46.08-.91.12-1.36.12-2.7,0-5.11-1.43-6.21-3.64-.25-.5-.43-1.03-.53-1.6-.62-3.5,2-6.9,5.86-7.57.46-.08.91-.12,1.36-.12M18.54,13.74c-.48,0-.96.04-1.44.13-2.08.36-3.94,1.52-5.1,3.17-1.04,1.48-1.44,3.23-1.14,4.94.1.6.29,1.18.57,1.73,1.17,2.37,3.77,3.89,6.62,3.89.48,0,.96-.04,1.44-.13,4.1-.72,6.9-4.37,6.24-8.12-.1-.58-.29-1.16-.58-1.74-1.17-2.35-3.77-3.87-6.61-3.87h0Z"/>
        </g>
        <path class="cls-11" d="M11.84,23.49c1.27,2.57,4.34,4.09,7.56,3.52,3.86-.68,6.48-4.07,5.86-7.58-.1-.58-.29-1.11-.54-1.62.42,1.33.68,3.24-.23,5.16-1.65,3.5-6.37,4.73-9.69,3.2-1.31-.61-2.3-1.77-2.97-2.67Z"/>
        <g>
          <path class="cls-23" d="M12.84,27.61s-.05,0-.08-.01c-.04-.02-4.18-1.58-4.26-5.99-.08-4.47,5.34-8.32,5.4-8.35.14-.1,2.26-.65,4.46-.65,2.37,0,4.03.61,4.95,1.82.04.05.06.13.04.19-.02.07-.06.12-.12.16-.03.01-2.51,1.24-5.15,1.78-3.01.62-4.6,2.16-4.98,4.84-.44,3.1-.03,5.93-.02,5.96.01.08-.02.16-.08.21-.04.03-.09.05-.15.05Z"/>
          <path class="cls-7" d="M18.36,12.84c1.82,0,3.74.38,4.76,1.72,0,0-2.45,1.22-5.09,1.76-2.64.54-4.71,1.86-5.16,5.03-.45,3.17-.02,6.03-.02,6.03,0,0-4.03-1.47-4.11-5.78s5.15-8.06,5.3-8.16c.08-.05,2.12-.61,4.33-.61M18.36,12.38h0c-2.1,0-4.35.52-4.59.69-.06.04-5.58,3.96-5.5,8.55.09,4.57,4.37,6.19,4.41,6.2.05.02.11.03.16.03.11,0,.21-.04.29-.1.13-.1.19-.27.17-.43,0-.03-.41-2.83.02-5.89.37-2.57,1.89-4.04,4.8-4.64,2.66-.55,5.1-1.75,5.2-1.8.12-.06.21-.17.25-.31.03-.13,0-.28-.08-.39-.96-1.27-2.68-1.91-5.13-1.91h0Z"/>
        </g>
        <path class="cls-24" d="M8.57,24.92c.29.59.6,1.16.92,1.63.49.73,1.01,1.27,1.45,1.42,1.43.49,1.91.21,1.91.21,0,0-.01-.41-.04-.78v-.03s.03.02.03.02c0,0-.02-.1-.03-.28-.01-.05-.02-.12-.02-.2v-.09s-.02-.02-.02-.02c-.1-1-.24-3.13.09-5.43.19-1.27.64-2.23,1.26-2.97l1.15-.53,2.88-1.34h.01s.98-.46.98-.46c.09-.03.17-.05.26-.08.84-.24,1.61-.53,2.22-.76.21-.09.42-.17.59-.24.08-.04.16-.06.23-.1.27.14.65.36,1.09.68.36.25.55.06.64-.24.13-.38.11-.94.11-.94,0,0-3.1-3.38-8.8-2.05-5.7,1.32-7.93,6.05-8.09,8.27-.08,1.1.44,2.82,1.17,4.33Z"/>
        <path class="cls-1" d="M22.56,13.45s-.14.72-.35,1.52c.08-.04.16-.06.23-.1.27.14.65.36,1.09.68.36.25.55.06.64-.24-.89-1.08-1.62-1.86-1.62-1.86Z"/>
        <path class="cls-1" d="M18.17,16.51l.98-.46c.09-.03.17-.05.26-.08-.28-.18-.5-.29-.61-.28-.13.02-.35.37-.62.81Z"/>
        <path class="cls-1" d="M18.16,16.51l.99-.46c.09-.03.17-.05.26-.08-.28-.18-.5-.29-.61-.28-.13.02-.35.37-.63.81Z"/>
        <path class="cls-1" d="M2.98,26.82c.52.35.91.57,1,.57.29-.04,1.85-3.03,2.21-2.96.36.06,1.69,3.26,2.15,3.23.21-.02.69-.56,1.16-1.11.5-.58.98-1.17,1.11-1.19.14,0,1.16.99,2.2,2.03.01.02.02.03.04.05,0-.11-.02-.23-.04-.34-.01-.05-.02-.12-.02-.2v-.09s-.02-.02-.02-.02c-.1-1-.24-3.13.09-5.43.19-1.27.64-2.23,1.26-2.97l1.15-.53c-.37-.23-.76-.5-1.11-.75-.69-.49-1.25-.92-1.25-.92,0,0-.63.95-1.18,3.66-.55,2.7-.42,4.27-.42,4.27,0,0-.74-1.79-1.04-1.64-.31.14-1.41,2.41-1.7,2.45-.29.04-1.87-3.42-2.14-3.35-.26.06-1.93,1.94-2.27,2.2-.11.09-.44-.2-.83-.65-.29,1.29-.4,2.57-.34,3.7Z"/>
        <path class="cls-17" d="M5.87,32.98c-1.89.22-2.98,2.1.79,2.35,2.05.13,3.33-.28,3.88-.83-1.69.81-5.51.54-5.34-.31.16-.86,2.02-1.17,2.02-1.17,0,0-3.72-2.65-3.5-7.46.21-4.68,3.49-9.98,3.68-10.25-2.13,2.26-3.48,5.1-4.07,7.8-.29,1.29-.4,2.57-.34,3.7.05.75.16,1.44.34,2.06,1.31,4.32,3.84,3.96,2.54,4.1Z"/>
        <g>
          <path class="cls-25" d="M22.94,14.45s-.31,3.34-1.05,3.69-3.07-1.21-3.07-1.21c0,0-1.09,2.43-1.59,2.58s-3.4-.72-4.61-2.13"/>
          <path class="cls-21" d="M22.98,14.46c.08,1.3.12,2.52-.62,3.72-.1.16-.4.33-.61.32-1.14-.14-1.99-.97-3.01-1.42,0,0,.25-.07.25-.07-.3.83-.58,1.68-1.09,2.42-.14.14-.2.35-.6.48-.52.07-.77-.04-1.21-.14-1.31-.43-2.85-1.17-3.46-2.42,1.27.85,2.69,1.39,4.15,1.72.14.03.33.06.36.06.56-.55,1.1-1.54,1.57-2.29.05-.08.16-.1.23-.04.77.59,1.77,1.18,2.76,1.09.38-.31.5-1.08.7-1.69.16-.57.32-1.16.52-1.75,0-.04.08-.04.08,0h0Z"/>
        </g>
        <path class="cls-26" d="M12.62,17.38c1.21,1.41,4.11,2.27,4.6,2.13.5-.15,1.59-2.57,1.59-2.57,0,0,2.33,1.55,3.07,1.21.73-.34,1.04-3.68,1.04-3.68l-.65.19-8.29,2.35-1.38.39Z"/>
        <path class="cls-1" d="M12.62,17.38c1.21,1.41,4.11,2.27,4.6,2.13.5-.15,1.59-2.57,1.59-2.57,0,0,2.33,1.55,3.07,1.21.73-.34,1.04-3.68,1.04-3.68l-.65.19c-.26,1.06-.66,2.47-.95,2.48-.47.03-2.18-1.49-2.55-1.43s-1.53,2.74-2.14,2.81c-.38.04-1.77-.89-2.72-1.57l-1.3.44Z"/>
        <path class="cls-8" d="M24.42,21.63s-1.23.25-1.38.41,0,.72-.04.81-1.4.41-1.45.41-.21-.72-.46-.72-1.48.19-1.58.32c-.11.15.02.73-.01.74-.13.06-1.54.36-1.61.36s-.4-.54-.56-.51-.86.54-2.32.67"/>
        <path class="cls-7" d="M17.08,21.7c-.14-.6-.76-2.16-1.44-2.01s-.36,2.1.15,2.48,1.35-.23,1.29-.47Z"/>
        <path class="cls-7" d="M15.48,19.96s-.16.22-.66.21-.76-.15-.76-.15c0,0,.68.56,1.2.42"/>
        <path class="cls-21" d="M16.54,20.91s-.65.33-.88.27-.3-.99-.03-1.16.56.08.91.89Z"/>
        <path class="cls-7" d="M22.68,20.19c-.24-.57-.65-2.19-.01-2.47s1.52,1.49,1.33,2.1-1.22.6-1.32.37Z"/>
        <path class="cls-7" d="M22.95,17.83s.26.08.66-.21.53-.57.53-.57c0,0-.22.85-.73,1.05"/>
        <path class="cls-21" d="M22.65,19.23s.72-.11.87-.3-.34-.98-.66-.96-.4.39-.21,1.26Z"/>
        <path class="cls-18" d="M12.86,19.48s-1.27,2.91-.48,6.67c.79,3.76-2.63,5.9-4.62,5.94s-4.16-3.99-3.6-7.61c.56-3.62,2.46-6.52,2.46-6.52"/>
        <g>
          <path class="cls-28" d="M46.45,29.51c-.1,0-.19-.06-.22-.16-.87-2.57-1.51-3.22-4.08-4.08-.09-.03-.16-.12-.16-.22s.06-.19.16-.22c2.57-.87,3.22-1.51,4.08-4.08.03-.09.12-.16.22-.16s.19.06.22.16c.87,2.57,1.51,3.21,4.08,4.08.09.03.16.12.16.22s-.06.19-.16.22c-2.57.87-3.21,1.52-4.08,4.08-.03.09-.12.16-.22.16Z"/>
          <path class="cls-27" d="M46.45,20.82c.89,2.62,1.6,3.34,4.23,4.23-2.62.89-3.34,1.6-4.23,4.23-.89-2.62-1.6-3.34-4.23-4.23,2.62-.89,3.34-1.6,4.23-4.23M46.45,20.36c-.2,0-.38.13-.44.32-.84,2.48-1.46,3.1-3.94,3.94-.19.06-.32.24-.32.44s.13.38.32.44c2.48.84,3.1,1.46,3.94,3.94.06.19.24.32.44.32s.38-.13.44-.32c.84-2.48,1.46-3.1,3.94-3.94.19-.06.32-.24.32-.44s-.13-.38-.32-.44c-2.48-.84-3.1-1.46-3.94-3.94-.06-.19-.24-.32-.44-.32h0Z"/>
        </g>
        <path class="cls-19" d="M49.82,25.05c-2.09.71-2.66,1.28-3.37,3.37-.71-2.09-1.28-2.66-3.37-3.37,2.09-.71,2.66-1.28,3.37-3.37.71,2.09,1.28,2.66,3.37,3.37Z"/>
        <g>
          <path class="cls-28" d="M59.46,29.51c-.1,0-.19-.06-.22-.16-.87-2.57-1.51-3.22-4.08-4.08-.09-.03-.16-.12-.16-.22s.06-.19.16-.22c2.57-.87,3.22-1.51,4.08-4.08.03-.09.12-.16.22-.16s.19.06.22.16c.87,2.57,1.52,3.21,4.08,4.08.09.03.16.12.16.22s-.06.19-.16.22c-2.57.87-3.22,1.51-4.08,4.08-.03.09-.12.16-.22.16Z"/>
          <path class="cls-27" d="M59.46,20.82c.89,2.62,1.6,3.34,4.23,4.23-2.62.89-3.34,1.6-4.23,4.23-.89-2.62-1.6-3.34-4.23-4.23,2.62-.89,3.34-1.6,4.23-4.23M59.46,20.36c-.2,0-.38.13-.44.32-.84,2.48-1.46,3.1-3.94,3.94-.19.06-.32.24-.32.44s.13.38.32.44c2.48.84,3.1,1.46,3.94,3.94.06.19.24.32.44.32h0c.2,0,.38-.13.44-.32.84-2.48,1.46-3.1,3.94-3.94.19-.06.32-.24.32-.44s-.13-.38-.32-.44c-2.48-.84-3.1-1.46-3.94-3.94-.06-.19-.24-.32-.44-.32h0Z"/>
        </g>
        <path class="cls-16" d="M62.83,25.05c-2.09.71-2.66,1.28-3.37,3.37-.71-2.09-1.28-2.66-3.37-3.37,2.09-.71,2.66-1.28,3.37-3.37.71,2.09,1.28,2.66,3.37,3.37Z"/>
        <g>
          <path class="cls-28" d="M72.47,29.51c-.1,0-.19-.06-.22-.16-.87-2.57-1.51-3.21-4.08-4.08-.09-.03-.16-.12-.16-.22s.06-.19.16-.22c2.57-.87,3.22-1.52,4.08-4.08.03-.09.12-.16.22-.16s.19.06.22.16c.87,2.57,1.52,3.21,4.08,4.08.09.03.16.12.16.22s-.06.19-.16.22c-2.57.87-3.22,1.51-4.08,4.08-.03.09-.12.16-.22.16h0Z"/>
          <path class="cls-27" d="M72.47,20.82c.89,2.62,1.6,3.34,4.23,4.23-2.62.89-3.34,1.6-4.23,4.23-.89-2.62-1.6-3.34-4.23-4.23,2.62-.89,3.34-1.6,4.23-4.23M72.47,20.36c-.2,0-.38.13-.44.32-.84,2.48-1.46,3.1-3.94,3.94-.19.06-.32.24-.32.44s.13.38.32.44c2.48.84,3.1,1.46,3.94,3.94.06.19.24.32.44.32h0c.2,0,.38-.13.44-.32.84-2.48,1.46-3.1,3.94-3.94.19-.06.32-.24.32-.44s-.13-.38-.32-.44c-2.48-.84-3.1-1.46-3.94-3.94-.06-.19-.24-.32-.44-.32h0Z"/>
        </g>
        <path class="cls-15" d="M75.84,25.05c-2.09.71-2.66,1.28-3.37,3.37-.71-2.09-1.28-2.66-3.37-3.37,2.09-.71,2.66-1.28,3.37-3.37.71,2.09,1.28,2.66,3.37,3.37Z"/>
      </g>
    </g>
  </g>
</svg>