<?xml version="1.0" encoding="UTF-8"?>
<svg xmlns="http://www.w3.org/2000/svg" xmlns:xlink="http://www.w3.org/1999/xlink" viewBox="0 0 54.92 36.79">
  <defs>
    <style>
      .cls-1 {
        fill: none;
      }

      .cls-2 {
        fill: #a82a12;
      }

      .cls-3 {
        fill: #ffc869;
      }

      .cls-4 {
        fill: #ff432f;
      }

      .cls-5 {
        fill: url(#radial-gradient-3);
      }

      .cls-6 {
        fill: url(#radial-gradient-2);
      }

      .cls-7 {
        fill: #ff761c;
      }

      .cls-8 {
        fill: url(#radial-gradient);
      }

      .cls-9 {
        fill: #ffdb24;
      }

      .cls-10 {
        isolation: isolate;
      }

      .cls-11 {
        fill: url(#linear-gradient);
      }

      .cls-11, .cls-12, .cls-13, .cls-14, .cls-15, .cls-16 {
        mix-blend-mode: overlay;
      }

      .cls-17 {
        fill: #f2eaac;
      }

      .cls-18 {
        fill: #241713;
      }

      .cls-12 {
        fill: url(#linear-gradient-2);
      }

      .cls-13 {
        fill: url(#linear-gradient-3);
      }

      .cls-14 {
        fill: url(#linear-gradient-4);
      }

      .cls-15 {
        fill: url(#linear-gradient-6);
      }

      .cls-16 {
        fill: url(#linear-gradient-5);
      }

      .cls-19 {
        fill: #fcb52c;
      }

      .cls-20 {
        fill: #2e4665;
      }

      .cls-21 {
        clip-path: url(#clippath);
      }

      .cls-22 {
        fill: #d96518;
      }
    </style>
    <radialGradient id="radial-gradient" cx="35.23" cy="6.3" fx="35.23" fy="6.3" r="30.51" gradientUnits="userSpaceOnUse">
      <stop offset=".15" stop-color="#fff"/>
      <stop offset=".15" stop-color="#fff" stop-opacity=".98"/>
      <stop offset=".27" stop-color="#fff" stop-opacity=".69"/>
      <stop offset=".38" stop-color="#fff" stop-opacity=".44"/>
      <stop offset=".48" stop-color="#fff" stop-opacity=".25"/>
      <stop offset=".57" stop-color="#fff" stop-opacity=".11"/>
      <stop offset=".64" stop-color="#fff" stop-opacity=".03"/>
      <stop offset=".69" stop-color="#fff" stop-opacity="0"/>
    </radialGradient>
    <radialGradient id="radial-gradient-2" cx="31.66" cy="4.26" fx="31.66" fy="4.26" r="15.78" xlink:href="#radial-gradient"/>
    <radialGradient id="radial-gradient-3" cx="31.66" cy="4.26" fx="31.66" fy="4.26" r="15.78" xlink:href="#radial-gradient"/>
    <linearGradient id="linear-gradient" x1="27.64" y1="30.05" x2="24.88" y2="21.76" gradientUnits="userSpaceOnUse">
      <stop offset=".26" stop-color="#fff"/>
      <stop offset=".32" stop-color="#fff" stop-opacity=".97"/>
      <stop offset=".41" stop-color="#fff" stop-opacity=".88"/>
      <stop offset=".52" stop-color="#fff" stop-opacity=".74"/>
      <stop offset=".65" stop-color="#fff" stop-opacity=".54"/>
      <stop offset=".8" stop-color="#fff" stop-opacity=".28"/>
      <stop offset=".95" stop-color="#fff" stop-opacity="0"/>
    </linearGradient>
    <linearGradient id="linear-gradient-2" x1="14.81" y1="-.6" x2="14.98" y2="20.2" gradientUnits="userSpaceOnUse">
      <stop offset=".15" stop-color="#fff"/>
      <stop offset=".15" stop-color="#fff" stop-opacity=".98"/>
      <stop offset=".27" stop-color="#fff" stop-opacity=".69"/>
      <stop offset=".38" stop-color="#fff" stop-opacity=".44"/>
      <stop offset=".48" stop-color="#fff" stop-opacity=".25"/>
      <stop offset=".57" stop-color="#fff" stop-opacity=".11"/>
      <stop offset=".64" stop-color="#fff" stop-opacity=".03"/>
      <stop offset=".69" stop-color="#fff" stop-opacity="0"/>
    </linearGradient>
    <clipPath id="clippath">
      <path class="cls-1" d="M23.07,20.73l6.24-2.9s.42,2.21-1.26,3.61-4.21.65-4.97-.71Z"/>
    </clipPath>
    <linearGradient id="linear-gradient-3" x1="4.55" y1="3.83" x2="4.62" y2="11.39" xlink:href="#linear-gradient-2"/>
    <linearGradient id="linear-gradient-4" x1="36.8" y1="31.29" x2="36.84" y2="36.02" xlink:href="#linear-gradient-2"/>
    <linearGradient id="linear-gradient-5" x1="45.01" y1="3.63" x2="45.05" y2="8.36" xlink:href="#linear-gradient-2"/>
    <linearGradient id="linear-gradient-6" x1="28.58" y1="8.13" x2="28.67" y2="19.37" xlink:href="#linear-gradient-2"/>
  </defs>
  <g class="cls-10">
    <g id="Layer_2" data-name="Layer 2">
      <g id="Layer_1-2" data-name="Layer 1">
        <g>
          <g>
            <g>
              <path class="cls-17" d="M53.24,30.69c-2.91,0-11.32-5.94-13.99-7.87.02.3-.02.64-.15.97-.21.53-.63.93-1.25,1.18-.36.15-.72.22-1.09.22-.58,0-1.04-.19-1.32-.35-.63.75-2.57,2.72-5.53,2.72-1.11,0-2.25-.28-3.4-.84-.12-.06-.2-.18-.21-.32,0-.02-.17-2.48-1.38-2.48-1.59,0-6.48,1.51-6.53,1.52-.03.01-.89.28-1.96.28-1.64,0-2.88-.64-3.58-1.84-1.53-2.64,2.18-8.67,2.59-9.31.08-.27.44-1.45,1.24-2.93,1-1.89,2.81-4.48,5.73-6.05,1.73-.94,3.68-1.42,5.77-1.42,1.43,0,2.96.22,4.54.67,11.97,3.34,20.64,18,21.71,23.52.14.65.15,1.15.04,1.53-.07.27-.27.62-.81.76-.13.03-.28.05-.43.05Z"/>
              <path class="cls-22" d="M28.18,4.55c1.34,0,2.82.2,4.44.65,11.89,3.32,20.44,18.06,21.44,23.23.12.58.14,1.04.05,1.35-.07.27-.26.43-.54.5-.1.02-.22.04-.34.04-3.32,0-14.57-8.39-14.57-8.39,0,0,.88,1.95-.96,2.7-.34.14-.66.19-.95.19-.85,0-1.4-.47-1.4-.47,0,0-2.01,2.84-5.45,2.84-.97,0-2.05-.23-3.23-.8,0,0-.15-2.83-1.75-2.84-.01,0-.02,0-.03,0-1.63,0-6.61,1.54-6.61,1.54,0,0-.83.27-1.85.27-1.12,0-2.48-.32-3.26-1.66-1.49-2.57,2.61-8.97,2.61-8.97,0,0,.34-1.27,1.22-2.91,1.02-1.93,2.79-4.4,5.58-5.9,1.54-.83,3.39-1.37,5.6-1.37M28.18,3.8h0c-2.16,0-4.16.49-5.96,1.46-3.01,1.62-4.86,4.27-5.89,6.21-.77,1.43-1.14,2.59-1.25,2.95-.65,1.03-4.18,6.88-2.57,9.66.77,1.33,2.12,2.03,3.91,2.03,1.13,0,2.04-.29,2.08-.3,1.35-.42,5.13-1.5,6.38-1.5.69,0,.99,1.47,1.03,2.13.02.27.18.51.42.63,1.19.58,2.39.88,3.56.88,2.85,0,4.8-1.72,5.62-2.63.32.14.73.26,1.23.26.41,0,.83-.08,1.23-.25.7-.29,1.21-.77,1.46-1.39.05-.14.1-.28.12-.41,3.2,2.31,10.8,7.55,13.66,7.55.19,0,.36-.02.52-.06.57-.14.95-.51,1.09-1.04.12-.41.11-.97-.04-1.69-1.08-5.58-9.86-20.42-21.97-23.8-1.61-.45-3.18-.68-4.64-.68h0Z"/>
            </g>
            <path class="cls-3" d="M54.12,29.78c-.84,3.05-15.45-7.85-15.45-7.85,0,0,.88,1.95-.96,2.7-1.37.56-2.35-.28-2.35-.28,0,0-3.3,4.67-8.68,2.04,0,0-.15-2.83-1.75-2.84-1.6-.02-6.64,1.54-6.64,1.54,0,0-3.62,1.17-5.11-1.39-1.49-2.57,2.61-8.97,2.61-8.97,0,0,1.65-6.04,6.8-8.81-4.66,3.7-1.95,10.01-1.95,10.01,0,0,2.98-1.58,7.98-3.76,5-2.17,10.99-3.25,10.67-2.01s-4.74,4.66-4.74,4.66c0,0,1.13.1,1.29.93.16.83-.38,3.03-.32,3.06.07.03,2.54.3,2.54.3,0,0,7.84,6.02,12.27,8.36,1.54.81,2.78,1.03,3.74.96.12.58.14,1.04.05,1.35Z"/>
            <path class="cls-8" d="M54.12,29.78c-.07.27-.26.43-.54.5-.01-1.14-.32-2.61-1.19-4.49-2.86-6.17-9.28-16.3-21.07-19.87-6.3-1.91-11.13,1.89-14.31,5.9,1.02-1.93,2.79-4.4,5.58-5.9,2.47-1.34,5.75-1.92,10.04-.72,11.89,3.32,20.44,18.06,21.44,23.23.12.58.14,1.04.05,1.35Z"/>
            <ellipse class="cls-6" cx="28.39" cy="5.78" rx="1.85" ry=".85"/>
            <ellipse class="cls-5" cx="30.36" cy="7.48" rx=".85" ry=".45"/>
            <g>
              <path class="cls-4" d="M26.6,27.4c-.42-.09-1.01-1.05-1.37-1.7-.42.47-1.35,1.34-2.48,1.41-.06,0-.12,0-.19,0-1.28,0-2.94-.79-3.37-1-.25.1-.88.31-1.63.31-1.19,0-2.73-.53-3.33-3.05-.71-3.03-4.12-20.1-2.04-22.73.2-.26.46-.39.75-.39.13,0,.26.03.4.08,3.34,1.25,5.09,13.48,5.4,15.87,9.59-5.78,16.04-7.85,18.9-7.85.79,0,1.28.17,1.44.5.06.12.12.36-.11.67-.82,1.09-7.83,6.22-11.41,8.82,2.55-1.15,6.14-2.74,6.63-2.74.11,0,.24.08.28.18.04.11.14.39-1.39,3.29.63.33,1.65.94,1.58,1.53-.06.58-1.6,1.51-2.43,1.97.3.85.78,2.45.35,2.9-.14.14-.4.21-.83.21-.97,0-2.62-.32-3.16-.43-.64,1.02-1.46,2.17-1.94,2.17-.02,0-.06,0-.08,0Z"/>
              <path class="cls-2" d="M12.97.5c.1,0,.2.02.32.06,3.53,1.32,5.28,16.05,5.28,16.05,10.32-6.27,16.6-8.01,19.1-8.01,1.09,0,1.46.33,1.13.77-1.08,1.42-13.43,10.26-13.43,10.26,0,0,8.18-3.79,8.85-3.79.02,0,.04,0,.04.02.11.3-1.49,3.32-1.49,3.32,0,0,1.74.83,1.67,1.39-.06.56-2.49,1.88-2.49,1.88,0,0,.89,2.41.47,2.84-.09.09-.33.13-.65.13-1.14,0-3.28-.46-3.28-.46,0,0-1.35,2.2-1.82,2.2,0,0-.02,0-.03,0-.44-.09-1.37-1.9-1.37-1.9,0,0-1.11,1.52-2.54,1.61-.06,0-.11,0-.17,0-1.41,0-3.36-1.03-3.36-1.03,0,0-.73.33-1.64.33-1.13,0-2.53-.52-3.08-2.86C13.54,19.24,9.99.5,12.97.5M12.96,0c-.26,0-.63.08-.95.49-2.35,2.96,1.95,22.74,1.99,22.94.66,2.82,2.52,3.24,3.57,3.24.69,0,1.3-.17,1.61-.28.56.27,2.13.98,3.38.98.07,0,.14,0,.2,0,1.03-.07,1.89-.74,2.41-1.25.81,1.41,1.22,1.5,1.37,1.53.03,0,.09.01.13.01.2,0,.7,0,2.06-2.14.67.13,2.13.4,3.04.4.52,0,.82-.08,1.01-.28.39-.4.31-1.4-.22-2.96,1.52-.86,2.32-1.56,2.38-2.06.07-.63-.69-1.22-1.49-1.66,1.46-2.8,1.36-3.07,1.28-3.27-.07-.2-.3-.34-.51-.34h0c-.4,0-2.35.81-4.53,1.77,3.75-2.74,8.79-6.5,9.51-7.45.33-.43.2-.8.14-.93-.21-.43-.76-.63-1.67-.63-2.86,0-9.25,2.03-18.7,7.69-.44-3.29-2.16-14.44-5.51-15.69C13.29.03,13.12,0,12.97,0h0Z"/>
            </g>
            <path class="cls-11" d="M14.65,21.4s.19,3.17,1.97,3.93,2.66-.21,2.66-.21c0,0,1.51,1.34,3.28,1.21s2.62-1.79,2.62-1.79c0,0,1.21,2.04,1.6,1.98s1.23-2.12,1.23-2.12c0,0,3.17.98,3.72.55s-.32-2.76-.32-2.76c0,0,2.43-1.22,2.47-1.65s-1.55-1.11-1.55-1.11c0,0,1.3-2.66,1.19-2.83s-3.87,1.55-3.87,1.55"/>
            <path class="cls-12" d="M14.04,19.11S10.77,1.82,12.85,1.24s4.32,8.83,4.8,17.13"/>
            <path class="cls-2" d="M16.9,24.39c.4-.54.87-.82,1.5-.95-.19.66-.83,1.04-1.5.95h0Z"/>
            <g>
              <path class="cls-19" d="M23.07,20.73l6.24-2.9s.42,2.21-1.26,3.61-4.21.65-4.97-.71Z"/>
              <g class="cls-21">
                <g>
                  <path class="cls-20" d="M27.4,21.07c-.17.15-.38.27-.61.38-.3.14-.6.22-.89.25-.75.07-1.42-.19-1.67-.73-.24-.53-.02-1.19.5-1.71.22-.22.49-.41.81-.55.5-.23,1.01-.3,1.45-.25.51.08.93.32,1.11.73.28.6-.03,1.35-.71,1.88Z"/>
                  <path class="cls-18" d="M25.9,21.7c-.75.07-1.42-.19-1.67-.73-.24-.53-.02-1.19.5-1.71-.17.6-.22,1.33.19,1.85.26.32.62.5.97.59Z"/>
                  <path class="cls-18" d="M27.4,21.07c.28-.44.76-1.52-.4-2.61.51.08.93.32,1.11.73.28.6-.03,1.35-.71,1.88Z"/>
                  <ellipse class="cls-18" cx="26.15" cy="20.13" rx=".58" ry=".99" transform="translate(-4.55 8.02) rotate(-16.06)"/>
                </g>
              </g>
            </g>
          </g>
          <g>
            <g>
              <path class="cls-9" d="M4.58,12.08c-.11,0-.2-.07-.24-.17-.83-2.47-1.46-3.09-3.93-3.93-.1-.03-.17-.13-.17-.24s.07-.2.17-.24c2.47-.83,3.09-1.46,3.93-3.93.04-.1.13-.17.24-.17s.2.07.24.17c.83,2.47,1.46,3.1,3.93,3.93.1.03.17.13.17.24s-.07.2-.17.24c-2.47.83-3.09,1.46-3.93,3.93-.04.1-.13.17-.24.17h0Z"/>
              <path class="cls-7" d="M4.59,3.66c.86,2.54,1.55,3.23,4.09,4.09-2.54.86-3.23,1.55-4.09,4.09-.86-2.54-1.55-3.23-4.09-4.09,2.54-.86,3.23-1.55,4.09-4.09M4.59,3.16c-.21,0-.41.14-.47.34-.81,2.4-1.37,2.96-3.77,3.77-.2.07-.34.26-.34.47s.14.41.34.47c2.4.81,2.96,1.37,3.77,3.77.07.2.26.34.47.34s.41-.14.47-.34c.81-2.4,1.37-2.96,3.77-3.77.2-.07.34-.26.34-.47s-.14-.41-.34-.47c-2.4-.81-2.96-1.37-3.77-3.77-.07-.2-.26-.34-.47-.34h0Z"/>
            </g>
            <path class="cls-13" d="M7.84,7.74c-2.02.68-2.57,1.23-3.26,3.26-.68-2.02-1.23-2.57-3.26-3.26,2.02-.68,2.57-1.23,3.26-3.26.68,2.02,1.23,2.57,3.26,3.26Z"/>
          </g>
          <g>
            <g>
              <path class="cls-9" d="M36.83,36.54c-.11,0-.2-.07-.24-.17-.51-1.51-.89-1.89-2.4-2.4-.1-.03-.17-.13-.17-.24s.07-.2.17-.24c1.51-.51,1.89-.89,2.4-2.4.04-.1.13-.17.24-.17s.2.07.24.17c.51,1.51.89,1.89,2.4,2.4.1.03.17.13.17.24s-.07.2-.17.24c-1.51.51-1.89.89-2.4,2.4-.04.1-.13.17-.24.17Z"/>
              <path class="cls-7" d="M36.83,31.18c.54,1.59.97,2.02,2.55,2.55-1.59.54-2.02.97-2.55,2.55-.54-1.59-.97-2.02-2.55-2.55,1.59-.54,2.02-.97,2.55-2.55M36.83,30.68c-.21,0-.41.14-.47.34-.49,1.44-.8,1.75-2.24,2.24-.2.07-.34.26-.34.47s.14.41.34.47c1.44.49,1.75.8,2.24,2.24.07.2.26.34.47.34s.41-.14.47-.34c.49-1.44.8-1.75,2.24-2.24.2-.07.34-.26.34-.47s-.14-.41-.34-.47c-1.44-.49-1.75-.8-2.24-2.24-.07-.2-.26-.34-.47-.34h0Z"/>
            </g>
            <path class="cls-14" d="M38.86,33.73c-1.26.43-1.61.77-2.04,2.04-.43-1.26-.77-1.61-2.04-2.04,1.26-.43,1.61-.77,2.04-2.04.43,1.26.77,1.61,2.04,2.04Z"/>
          </g>
          <g>
            <g>
              <path class="cls-9" d="M45.03,8.88c-.11,0-.2-.07-.24-.17-.51-1.51-.89-1.89-2.4-2.4-.1-.03-.17-.13-.17-.24s.07-.2.17-.24c1.51-.51,1.89-.89,2.4-2.4.04-.1.13-.17.24-.17s.2.07.24.17c.51,1.51.89,1.89,2.4,2.4.1.03.17.13.17.24s-.07.2-.17.24c-1.51.51-1.89.89-2.4,2.4-.04.1-.13.17-.24.17Z"/>
              <path class="cls-7" d="M45.03,3.53c.54,1.59.97,2.02,2.55,2.55-1.59.54-2.02.97-2.55,2.55-.54-1.59-.97-2.02-2.55-2.55,1.59-.54,2.02-.97,2.55-2.55M45.03,3.03c-.21,0-.41.14-.47.34-.49,1.44-.8,1.75-2.24,2.24-.2.07-.34.26-.34.47s.14.41.34.47c1.44.49,1.75.8,2.24,2.24.07.2.26.34.47.34s.41-.14.47-.34c.49-1.44.8-1.75,2.24-2.24.2-.07.34-.26.34-.47s-.14-.41-.34-.47c-1.44-.49-1.75-.8-2.24-2.24-.07-.2-.26-.34-.47-.34h0Z"/>
            </g>
            <path class="cls-16" d="M47.07,6.08c-1.26.43-1.61.77-2.04,2.04-.43-1.26-.77-1.61-2.04-2.04,1.26-.43,1.61-.77,2.04-2.04.43,1.26.77,1.61,2.04,2.04Z"/>
          </g>
          <path class="cls-15" d="M19.18,16.74s15.22-8.62,18.7-7.62c1.94.56-13.31,9.7-13.31,9.7"/>
        </g>
      </g>
    </g>
  </g>
</svg>