<?xml version="1.0" encoding="UTF-8"?>
<svg xmlns="http://www.w3.org/2000/svg" xmlns:xlink="http://www.w3.org/1999/xlink" viewBox="0 0 44.33 30.33">
  <defs>
    <style>
      .cls-1 {
        fill: #cf2b8e;
      }

      .cls-2 {
        fill: url(#radial-gradient-7);
      }

      .cls-3 {
        fill: url(#radial-gradient-6);
      }

      .cls-4 {
        fill: url(#radial-gradient-5);
      }

      .cls-5 {
        fill: url(#radial-gradient-4);
      }

      .cls-6 {
        fill: url(#radial-gradient-9);
      }

      .cls-7 {
        fill: url(#radial-gradient-8);
      }

      .cls-8 {
        fill: url(#radial-gradient-3);
      }

      .cls-9 {
        fill: url(#radial-gradient-2);
      }

      .cls-10 {
        fill: url(#linear-gradient-8);
      }

      .cls-11 {
        fill: url(#linear-gradient-7);
      }

      .cls-12 {
        fill: url(#linear-gradient-5);
      }

      .cls-13 {
        fill: url(#linear-gradient-6);
      }

      .cls-14 {
        fill: url(#linear-gradient-9);
      }

      .cls-15 {
        fill: url(#linear-gradient-4);
      }

      .cls-16 {
        fill: url(#linear-gradient-3);
      }

      .cls-17 {
        fill: url(#linear-gradient-2);
      }

      .cls-18 {
        opacity: .43;
      }

      .cls-18, .cls-19, .cls-20 {
        fill: #fff;
      }

      .cls-18, .cls-19, .cls-21, .cls-22, .cls-23, .cls-24, .cls-25 {
        mix-blend-mode: overlay;
      }

      .cls-19 {
        opacity: .64;
      }

      .cls-26 {
        fill: #402766;
      }

      .cls-27 {
        fill: url(#radial-gradient);
      }

      .cls-28 {
        fill: url(#linear-gradient);
      }

      .cls-29 {
        isolation: isolate;
      }

      .cls-30 {
        fill: #262a2b;
      }

      .cls-31 {
        fill: url(#radial-gradient-10);
      }

      .cls-21 {
        fill: url(#linear-gradient-13);
      }

      .cls-22 {
        fill: url(#linear-gradient-15);
      }

      .cls-32 {
        fill: #d9ba8b;
      }

      .cls-33 {
        fill: url(#linear-gradient-10);
      }

      .cls-34 {
        fill: url(#linear-gradient-11);
      }

      .cls-35 {
        fill: url(#linear-gradient-12);
      }

      .cls-36 {
        fill: url(#linear-gradient-19);
      }

      .cls-37 {
        fill: url(#linear-gradient-14);
      }

      .cls-38 {
        fill: url(#linear-gradient-21);
      }

      .cls-39 {
        fill: url(#linear-gradient-20);
      }

      .cls-40 {
        fill: url(#linear-gradient-22);
      }

      .cls-41 {
        fill: url(#linear-gradient-23);
      }

      .cls-42 {
        fill: url(#linear-gradient-28);
      }

      .cls-43 {
        fill: url(#linear-gradient-25);
      }

      .cls-44 {
        fill: url(#linear-gradient-16);
      }

      .cls-45 {
        fill: url(#linear-gradient-17);
      }

      .cls-46 {
        fill: url(#linear-gradient-18);
      }

      .cls-47 {
        fill: url(#linear-gradient-27);
      }

      .cls-48 {
        fill: url(#linear-gradient-24);
      }

      .cls-49 {
        fill: url(#linear-gradient-26);
      }

      .cls-50 {
        fill: url(#linear-gradient-29);
      }

      .cls-24 {
        opacity: .26;
      }

      .cls-25 {
        opacity: .3;
      }

      .cls-51 {
        fill: #a0a0a0;
        mix-blend-mode: multiply;
        opacity: .54;
      }
    </style>
    <linearGradient id="linear-gradient" x1="29.09" y1="8.08" x2="24.16" y2="16.64" gradientUnits="userSpaceOnUse">
      <stop offset="0" stop-color="#c5b8d2"/>
      <stop offset="1" stop-color="#aa86b5"/>
    </linearGradient>
    <linearGradient id="linear-gradient-2" x1="18.83" y1="15.87" x2="23.46" y2="15.87" xlink:href="#linear-gradient"/>
    <linearGradient id="linear-gradient-3" x1="19.32" y1="18.12" x2="8.75" y2="32.63" gradientUnits="userSpaceOnUse">
      <stop offset="0" stop-color="#5e478e"/>
      <stop offset=".9" stop-color="#6740a6"/>
    </linearGradient>
    <linearGradient id="linear-gradient-4" x1="9.87" y1="21.18" x2="24.44" y2="21.18" gradientUnits="userSpaceOnUse">
      <stop offset=".12" stop-color="#e8f7ff"/>
      <stop offset=".31" stop-color="#e8f7ff" stop-opacity=".99"/>
      <stop offset=".43" stop-color="#e9f7ff" stop-opacity=".96"/>
      <stop offset=".53" stop-color="#eaf7ff" stop-opacity=".9"/>
      <stop offset=".62" stop-color="#ecf8ff" stop-opacity=".82"/>
      <stop offset=".7" stop-color="#eef9ff" stop-opacity=".71"/>
      <stop offset=".78" stop-color="#f1faff" stop-opacity=".59"/>
      <stop offset=".85" stop-color="#f5fbff" stop-opacity=".43"/>
      <stop offset=".92" stop-color="#f9fcff" stop-opacity=".26"/>
      <stop offset=".98" stop-color="#fdfeff" stop-opacity=".06"/>
      <stop offset="1" stop-color="#fff" stop-opacity="0"/>
    </linearGradient>
    <linearGradient id="linear-gradient-5" x1="33.81" y1="-1.09" x2="28.42" y2="8.91" gradientUnits="userSpaceOnUse">
      <stop offset="0" stop-color="#f3e4c7"/>
      <stop offset=".9" stop-color="#f2e28a"/>
    </linearGradient>
    <linearGradient id="linear-gradient-6" x1="16.06" y1="6.93" x2="24.04" y2="6.93" xlink:href="#linear-gradient-3"/>
    <linearGradient id="linear-gradient-7" x1="18.86" y1="5.75" x2="16.48" y2="9.88" xlink:href="#linear-gradient"/>
    <linearGradient id="linear-gradient-8" x1="16.38" y1="6.93" x2="23.74" y2="6.93" xlink:href="#linear-gradient-4"/>
    <linearGradient id="linear-gradient-9" x1="22.68" y1="4.36" x2="18.61" y2="11.44" xlink:href="#linear-gradient"/>
    <linearGradient id="linear-gradient-10" x1="19.82" y1="7.95" x2="24.21" y2="7.95" xlink:href="#linear-gradient"/>
    <linearGradient id="linear-gradient-11" x1="20.19" y1="9.1" x2="26.48" y2="9.1" xlink:href="#linear-gradient"/>
    <linearGradient id="linear-gradient-12" x1="19.01" y1="13.81" x2="27.89" y2="13.81" xlink:href="#linear-gradient-3"/>
    <linearGradient id="linear-gradient-13" x1="22.7" y1="14.62" x2="20.47" y2="18.59" gradientUnits="userSpaceOnUse">
      <stop offset=".12" stop-color="#e8f7ff"/>
      <stop offset=".27" stop-color="#f0faff" stop-opacity=".62"/>
      <stop offset=".41" stop-color="#f8fcff" stop-opacity=".29"/>
      <stop offset=".5" stop-color="#fdfeff" stop-opacity=".08"/>
      <stop offset=".55" stop-color="#fff" stop-opacity="0"/>
    </linearGradient>
    <linearGradient id="linear-gradient-14" x1="22.27" y1="9.06" x2="34.07" y2="9.06" xlink:href="#linear-gradient-3"/>
    <linearGradient id="linear-gradient-15" x1="27.68" y1="9.44" x2="25.71" y2="12.94" xlink:href="#linear-gradient-13"/>
    <linearGradient id="linear-gradient-16" x1="25.61" y1="17.39" x2="41.59" y2="17.39" xlink:href="#linear-gradient"/>
    <linearGradient id="linear-gradient-17" x1="27.68" y1="18.31" x2="42.94" y2="18.31" xlink:href="#linear-gradient"/>
    <linearGradient id="linear-gradient-18" x1="34.38" y1="16.87" x2="44.01" y2="16.87" xlink:href="#linear-gradient-3"/>
    <linearGradient id="linear-gradient-19" x1="34.7" y1="16.87" x2="43.7" y2="16.87" xlink:href="#linear-gradient-4"/>
    <linearGradient id="linear-gradient-20" x1="35.85" y1="11.76" x2="27.49" y2="26.3" xlink:href="#linear-gradient"/>
    <linearGradient id="linear-gradient-21" x1="31.29" y1="26.28" x2="31.29" y2="9.63" xlink:href="#linear-gradient-4"/>
    <linearGradient id="linear-gradient-22" x1="39.88" y1="10.26" x2="29.59" y2="32.2" xlink:href="#linear-gradient"/>
    <linearGradient id="linear-gradient-23" x1="29.96" y1="17.84" x2="40.6" y2="17.84" xlink:href="#linear-gradient-4"/>
    <radialGradient id="radial-gradient" cx="10.11" cy="-403.36" fx="10.11" fy="-403.36" r=".94" gradientTransform="translate(-83.22 416.92) rotate(12.42)" gradientUnits="userSpaceOnUse">
      <stop offset="0" stop-color="#fff"/>
      <stop offset=".98" stop-color="#dbdbdb"/>
    </radialGradient>
    <radialGradient id="radial-gradient-2" cx="-2.22" cy="-403.36" fx="-2.22" fy="-403.36" r=".94" xlink:href="#radial-gradient"/>
    <radialGradient id="radial-gradient-3" cx="3.95" cy="-404.52" fx="3.95" fy="-404.52" r="6.7" gradientTransform="translate(-83.22 416.92) rotate(12.42)" gradientUnits="userSpaceOnUse">
      <stop offset=".11" stop-color="#30174a"/>
      <stop offset=".98" stop-color="#091b21"/>
    </radialGradient>
    <radialGradient id="radial-gradient-4" cx="7.67" cy="15.39" fx="7.67" fy="15.39" r="13.24" gradientUnits="userSpaceOnUse">
      <stop offset="0" stop-color="#ffc2ee"/>
      <stop offset=".98" stop-color="#f74594"/>
    </radialGradient>
    <linearGradient id="linear-gradient-24" x1="4.12" y1="-403.24" x2="3.65" y2="-411.54" gradientTransform="translate(-83.22 416.92) rotate(12.42)" gradientUnits="userSpaceOnUse">
      <stop offset=".6" stop-color="#fdd1d5" stop-opacity="0"/>
      <stop offset=".66" stop-color="#fdd1d5" stop-opacity=".01"/>
      <stop offset=".71" stop-color="#fdd3d7" stop-opacity=".06"/>
      <stop offset=".76" stop-color="#fdd7da" stop-opacity=".14"/>
      <stop offset=".8" stop-color="#fddcdf" stop-opacity=".24"/>
      <stop offset=".85" stop-color="#fde2e4" stop-opacity=".38"/>
      <stop offset=".9" stop-color="#feeaec" stop-opacity=".55"/>
      <stop offset=".95" stop-color="#fef3f4" stop-opacity=".75"/>
      <stop offset=".99" stop-color="#fefdfd" stop-opacity=".97"/>
      <stop offset="1" stop-color="#fff"/>
    </linearGradient>
    <linearGradient id="linear-gradient-25" x1="8.11" y1="17.46" x2="5.75" y2="26.6" gradientUnits="userSpaceOnUse">
      <stop offset="0" stop-color="#f5f8f7"/>
      <stop offset=".98" stop-color="#a7a7b5"/>
    </linearGradient>
    <linearGradient id="linear-gradient-26" x1="3.41" y1="20.67" x2="11.06" y2="21.85" gradientUnits="userSpaceOnUse">
      <stop offset="0" stop-color="#d13479"/>
      <stop offset="1" stop-color="#d32f72"/>
    </linearGradient>
    <radialGradient id="radial-gradient-5" cx="6.75" cy="18.77" fx="6.75" fy="18.77" r="5.66" gradientUnits="userSpaceOnUse">
      <stop offset="0" stop-color="#fbf6fa"/>
      <stop offset=".98" stop-color="#ff9cb3"/>
    </radialGradient>
    <linearGradient id="linear-gradient-27" x1="4.03" y1="20.83" x2="10.5" y2="21.83" xlink:href="#linear-gradient-26"/>
    <linearGradient id="linear-gradient-28" x1="7.14" y1="20.22" x2="6.54" y2="23.39" gradientTransform="translate(25.79 9.2) rotate(75.42)" xlink:href="#linear-gradient-25"/>
    <linearGradient id="linear-gradient-29" x1="6.4" y1="21.14" x2="7.48" y2="21.42" xlink:href="#linear-gradient-26"/>
    <radialGradient id="radial-gradient-6" cx="-.63" cy="-400.85" fx="-.63" fy="-400.85" r="7.52" gradientTransform="translate(-83.22 416.92) rotate(12.42)" gradientUnits="userSpaceOnUse">
      <stop offset="0" stop-color="#fff"/>
      <stop offset=".98" stop-color="#c2c5db"/>
    </radialGradient>
    <radialGradient id="radial-gradient-7" cx="2.35" cy="-401.91" fx="2.35" fy="-401.91" r="2.08" gradientTransform="translate(-83.22 416.92) rotate(12.42)" gradientUnits="userSpaceOnUse">
      <stop offset=".11" stop-color="#545355"/>
      <stop offset=".98" stop-color="#2f3436"/>
    </radialGradient>
    <radialGradient id="radial-gradient-8" cx="2.35" cy="-401.91" fx="2.35" fy="-401.91" r="1.56" xlink:href="#radial-gradient"/>
    <radialGradient id="radial-gradient-9" cx="2.35" cy="-401.91" fx="2.35" fy="-401.91" r=".88" xlink:href="#radial-gradient"/>
    <radialGradient id="radial-gradient-10" cx="5.49" cy="24.92" fx="5.49" fy="24.92" r=".99" gradientUnits="userSpaceOnUse">
      <stop offset="0" stop-color="#fcfcfc"/>
      <stop offset="1" stop-color="#636363"/>
    </radialGradient>
  </defs>
  <g class="cls-29">
    <g id="Layer_2" data-name="Layer 2">
      <g id="Layer_1-2" data-name="Layer 1">
        <g>
          <g>
            <path class="cls-28" d="M29.96,18.96s-.09-.01-.12-.04l-9.67-6.97c-.1-.11-.51-.75.25-2.33.75-1.55,4.51-4.14,4.67-4.25.04-.02.08-.04.12-.04s.09.01.12.04l9.18,6.44c.09.07.12.2.06.29l-4.43,6.75s-.08.08-.14.09c-.01,0-.03,0-.04,0Z"/>
            <path class="cls-26" d="M25.2,5.55l9.18,6.44-4.43,6.75-9.67-6.97s-.41-.55.32-2.06c.73-1.51,4.6-4.16,4.6-4.16M25.2,5.13c-.08,0-.17.02-.24.07-.41.28-3.98,2.76-4.74,4.33-.8,1.66-.37,2.38-.28,2.5.03.04.06.07.09.09l9.67,6.97c.07.05.16.08.25.08.03,0,.05,0,.08,0,.11-.02.22-.09.28-.19l4.43-6.75c.13-.19.08-.45-.11-.59l-9.18-6.44c-.07-.05-.16-.08-.25-.08h0Z"/>
          </g>
          <g>
            <path class="cls-17" d="M20.15,17.94c-.07,0-.13-.03-.17-.08l-.87-1.16-.27-1.32c-.01-.06,0-.13.04-.17,1.07-1.32,1.1-1.33,1.14-1.36.03-.02.08-.03.12-.03.14,0,1.3.21,1.79.3.06.01.11.04.14.09,1.39,2.13,1.39,2.14,1.39,2.22q0,.17-3.23,1.5s-.05.02-.08.02Z"/>
            <path class="cls-26" d="M20.13,14.02c.14,0,1.75.29,1.75.29,0,0,1.36,2.08,1.36,2.11s-3.1,1.3-3.1,1.3l-.87-1.16-.23-1.23s1.05-1.29,1.09-1.31c0,0,0,0,0,0M20.13,13.6c-.08,0-.16.02-.23.06-.08.05-.1.06-1.2,1.41-.08.1-.11.23-.09.35l.23,1.23c.01.06.04.12.08.18l.87,1.16c.08.11.21.17.34.17.05,0,.11-.01.16-.03q3.36-1.38,3.36-1.69,0-.16-1.43-2.34c-.06-.1-.17-.17-.28-.19-1.09-.2-1.71-.3-1.83-.3h0Z"/>
          </g>
          <g>
            <path class="cls-16" d="M11.9,27.35c-.81,0-2.35-.45-2.35-2.16,0-.09.04-.18.11-.24l9.57-8.22s.11-.07.17-.08l1.64-.18,1.45-1.36c.06-.06.14-.09.22-.09,0,0,.01,0,.02,0,.59.03,1.77.48,2.03,1.93.02.11-.02.22-.1.29-2.33,2.15-2.56,2.16-2.68,2.17-.05,0-.14,0-.25,0h-.85c-.15.11-6.39,5.71-8.78,7.85-.06.05-.14.08-.21.08Z"/>
            <path class="cls-26" d="M22.71,15.34s1.45.08,1.73,1.67c0,0-2.24,2.07-2.48,2.08-.05,0-.13,0-.23,0-.26,0-.65,0-.85,0-.07,0-.12,0-.13,0-.04.01-8.86,7.94-8.86,7.94,0,0-2.03,0-2.03-1.84l9.57-8.23,1.74-.2,1.53-1.43M22.71,14.69c-.16,0-.32.06-.44.17l-1.37,1.28-1.53.17c-.13.01-.25.07-.35.15l-9.57,8.23c-.14.12-.22.3-.22.49,0,1.82,1.6,2.48,2.67,2.48.16,0,.31-.06.43-.16,3.14-2.82,7.75-6.96,8.67-7.78h.25c.17,0,.34,0,.49,0,.11,0,.21,0,.27,0,.24-.01.46-.03,2.87-2.25.16-.15.24-.37.2-.58-.29-1.65-1.65-2.16-2.33-2.2-.01,0-.02,0-.04,0h0Z"/>
          </g>
          <g class="cls-23">
            <path class="cls-15" d="M22.79,15.6c.29.05,1.13.28,1.37,1.32-.98.9-2.07,1.85-2.22,1.92-.05,0-.12,0-.21,0-.14,0-.31,0-.47,0-.14,0-.28,0-.37,0-.13,0-.17,0-.21.02-.07.02-.09.03-8.87,7.92-.36-.02-1.61-.2-1.68-1.48l9.42-8.1,1.66-.19c.05,0,.1-.03.14-.07l1.44-1.35M22.71,15.34l-1.53,1.43-1.74.2-9.57,8.23c0,1.84,2.03,1.84,2.03,1.84,0,0,8.82-7.92,8.86-7.94,0,0,.06,0,.13,0,.2,0,.58,0,.85,0,.1,0,.18,0,.23,0,.23-.01,2.48-2.08,2.48-2.08-.28-1.58-1.73-1.67-1.73-1.67h0Z"/>
          </g>
          <g>
            <g>
              <g>
                <path class="cls-12" d="M30.87,8.95c-.08,0-.17-.03-.23-.1l-.88-.92c-.12-.12-.12-.32,0-.45l3.11-3.18v-.03s0,0,0,0c-.04,0-.25-.28-1.25-.68-1.05-.42-1.67-.48-1.96-.48-.02,0-.04,0-.06,0-.23.57-.94,2.6-.98,3.5-.02.61-.36.67-.5.67-.33,0-.75-.41-1.24-1.22-.04-.06-.05-.12-.04-.19l.24-2.77-1.16-.13c-.16-.02-.29-.16-.29-.32v-.62c0-.08.03-.15.08-.21l.86-1c.06-.07.15-.11.24-.11.07,0,.14.02.2.07l.72.58.69-.04,1.1-.93c.06-.05.13-.08.21-.08.01,0,.02,0,.03,0,.09,0,.17.05.22.12l.77,1,1.1.21,1.18-.61s.1-.04.15-.04c.04,0,.07,0,.11.02.08.03.15.09.19.17l.49,1.08,1.01.39,1.54-.28s.04,0,.06,0c.07,0,.14.02.19.07.07.05.12.14.12.23l.1,1.08.1.08c.06.05.09.11.11.18l.08.37c.03.13-.03.26-.13.33l-6.11,4.17c-.05.04-.12.06-.18.06Z"/>
                <path class="cls-26" d="M29.74.64l.85,1.1,1.33.25,1.28-.66.54,1.2,1.22.47,1.63-.3.11,1.22.21.17.08.37-6.11,4.17-.36-.38-.52-.55,3.22-3.29s.18-.3.21-.43l-.23.39s.17-.44-1.44-1.08c-1.06-.43-1.73-.51-2.08-.51-.17,0-.26.02-.28.03-.04.02-1.03,2.66-1.08,3.78-.01.26-.08.36-.18.36-.32,0-.96-1.07-.96-1.07l.27-3.08-1.47-.16v-.63l.86-1,.81.66.92-.05,1.18-.99M29.74,0c-.15,0-.3.05-.41.15l-1.02.86-.46.03-.62-.5c-.12-.1-.26-.14-.4-.14-.18,0-.36.08-.49.22l-.86,1c-.1.12-.16.27-.16.42v.63c0,.33.25.6.57.64l.85.09-.21,2.46c-.01.13.02.27.09.39.83,1.38,1.33,1.38,1.51,1.38.13,0,.78-.05.82-.98.04-.77.6-2.46.87-3.19.31.02.85.12,1.68.45.46.18.73.34.89.44l-2.86,2.92c-.24.25-.24.64,0,.89l.52.55.36.38c.13.13.29.2.46.2.13,0,.25-.04.36-.11l6.11-4.17c.21-.15.32-.41.27-.66l-.08-.37c-.03-.14-.11-.27-.22-.36h0s-.09-.95-.09-.95c-.02-.18-.11-.34-.25-.45-.11-.09-.25-.13-.39-.13-.04,0-.08,0-.12.01l-1.45.27-.81-.31-.43-.96c-.07-.16-.21-.28-.37-.34-.07-.02-.14-.04-.21-.04-.1,0-.2.02-.29.07l-1.09.56-.87-.16-.7-.91c-.11-.14-.27-.23-.44-.25-.02,0-.05,0-.07,0h0Z"/>
              </g>
              <polygon class="cls-32" points="36.98 4.46 30.87 8.63 30.51 8.25 36.7 3.92 36.9 4.09 36.98 4.46"/>
            </g>
            <g>
              <path class="cls-13" d="M19.52,10.92c-.4,0-.95-.23-1.34-.43l-.43-.24c-.47-.27-1.32-.83-1.53-1.22-.25-.47-.26-2.21.45-3.65.33-.67.77-1.2,1.31-1.58.81-.57,1.75-.87,2.72-.87.79,0,1.4.2,1.56.29.04.02.17.1,1.11.97.3.28.54.53.59.59.27.41-.19,2.32-.9,3.03-.59.58-1.29.98-1.54,1.11-.25.42-1.07,1.71-1.73,1.95-.08.03-.17.04-.28.04Z"/>
              <path class="cls-26" d="M20.7,3.26c.77,0,1.31.2,1.41.25.1.06.62.53,1.05.92.28.27.51.51.57.57.11.17-.2,1.91-.88,2.59-.69.68-1.54,1.1-1.54,1.1,0,0-.97,1.66-1.61,1.89-.05.02-.1.03-.17.03-.29,0-.73-.16-1.19-.39-.14-.08-.28-.15-.42-.23-.67-.39-1.28-.86-1.4-1.1-.19-.36-.22-1.99.45-3.36.27-.57.66-1.08,1.21-1.46.91-.63,1.82-.81,2.53-.81M20.7,2.62h0c-1.03,0-2.04.32-2.9.92-.59.4-1.07.98-1.42,1.7-.74,1.5-.76,3.33-.44,3.93.3.55,1.43,1.23,1.65,1.35l.22.12.2.11c.64.32,1.14.48,1.51.48.14,0,.27-.02.39-.06.71-.25,1.47-1.39,1.85-2.01.31-.17.97-.57,1.53-1.12.74-.73,1.34-2.82.97-3.39-.02-.02-.03-.05-.05-.07-.07-.09-.33-.35-.61-.61-.98-.9-1.1-.97-1.17-1.01-.23-.13-.9-.34-1.73-.34h0Z"/>
            </g>
            <g>
              <path class="cls-11" d="M18.32,10.42s-.07,0-.11-.03l-.42-.23c-.6-.34-1.32-.86-1.49-1.18-.24-.45-.25-2.14.45-3.55.03-.06.08-.1.14-.11.02,0,.03,0,.05,0,.04,0,.09.01.13.04l.24.18c.12.09.23.18.28.21-.02-.02.14-.11.25-.16.19-.09.38-.19.53-.23h0c.43,0,1.25.67,1.59.95.08.07.1.18.05.26-.01.02-1.12,2.08-1.37,3.11l-.14.58c-.01.07-.06.12-.12.15-.03.01-.06.02-.09.02Z"/>
              <path class="cls-26" d="M16.95,5.52c.22.16.51.39.57.41,0,0,.01,0,.02,0,.14,0,.64-.32.89-.38,0,0,.02,0,.03,0,.31,0,1.38.91,1.38.91,0,0-1.13,2.09-1.39,3.16-.04.19-.09.39-.14.58-.14-.08-.28-.15-.42-.23-.67-.39-1.28-.86-1.4-1.1-.19-.36-.22-1.99.45-3.36M16.95,5.09s-.07,0-.1.01c-.12.03-.23.11-.28.23-.7,1.42-.74,3.2-.45,3.74.27.51,1.44,1.19,1.57,1.27l.22.12.2.11c.07.04.14.05.21.05.06,0,.12-.01.18-.04.12-.06.21-.17.24-.3.02-.11.05-.22.08-.33l.06-.25c.24-1,1.33-3.03,1.35-3.05.1-.18.05-.4-.1-.53-.79-.67-1.35-1.01-1.66-1.01-.04,0-.1,0-.14.02-.16.04-.37.14-.57.24-.05.03-.11.06-.17.08-.04-.03-.09-.07-.14-.11-.08-.06-.17-.13-.25-.19-.07-.05-.16-.08-.25-.08h0Z"/>
            </g>
            <g class="cls-23">
              <path class="cls-10" d="M20.7,3.51h0c.72,0,1.21.18,1.28.22.06.04.36.29,1.01.89.25.23.45.44.51.5.02.31-.27,1.74-.83,2.29-.65.64-1.47,1.05-1.48,1.05-.04.02-.08.06-.11.1-.36.61-1.07,1.64-1.48,1.78,0,0-.03,0-.08,0-.22,0-.62-.13-1.07-.36l-.21-.12-.21-.11c-.73-.42-1.23-.85-1.31-1-.14-.27-.2-1.8.46-3.13.28-.58.66-1.04,1.13-1.36.73-.51,1.53-.76,2.39-.76M20.7,3.26c-.72,0-1.63.17-2.53.81-.55.38-.93.89-1.21,1.46-.68,1.37-.64,3-.45,3.36.13.24.74.71,1.4,1.1.14.08.28.15.42.23.46.23.91.39,1.19.39.06,0,.12,0,.17-.03.64-.23,1.61-1.89,1.61-1.89,0,0,.86-.42,1.54-1.1.69-.68.99-2.41.88-2.59-.05-.06-.28-.3-.57-.57-.43-.39-.95-.86-1.05-.92-.09-.05-.64-.25-1.41-.25h0Z"/>
            </g>
            <g>
              <path class="cls-14" d="M19.52,10.81c-.54,0-1.38-.46-1.72-.66-.07-.04-.11-.12-.11-.21,0-.05.55-4.76,5.42-5.73.01,0,.03,0,.04,0,.05,0,.11.02.15.06.29.27.53.52.58.58.22.33-.18,2.18-.89,2.88-.61.6-1.33,1-1.54,1.11-.2.33-1.04,1.7-1.69,1.93-.07.03-.15.04-.24.04Z"/>
              <path class="cls-26" d="M23.15,4.44c.28.27.51.51.57.57.11.17-.2,1.91-.88,2.59-.69.68-1.54,1.1-1.54,1.1,0,0-.97,1.66-1.61,1.89-.05.02-.1.03-.17.03-.38,0-1.02-.28-1.61-.63,0,0,.48-4.59,5.25-5.54M23.15,4.01s-.06,0-.08,0c-5.02,1-5.59,5.87-5.59,5.92-.02.17.06.33.21.41.44.26,1.26.68,1.83.68.12,0,.22-.02.32-.05.68-.24,1.46-1.46,1.77-1.97.27-.15.96-.54,1.54-1.11.71-.7,1.23-2.67.94-3.12-.01-.02-.02-.03-.03-.05-.07-.08-.32-.33-.6-.6-.08-.08-.19-.12-.29-.12h0Z"/>
            </g>
            <g>
              <path class="cls-33" d="M21.32,9.93s-.09-.01-.13-.04l-1.29-.95c-.08-.06-.11-.16-.08-.24.74-2.09,2.7-2.7,2.78-2.73.02,0,.04,0,.06,0,.05,0,.1.02.14.05l1.33,1.08s.08.1.08.16c0,.06-.02.12-.07.16l-2.67,2.46s-.09.06-.14.06Z"/>
              <path class="cls-26" d="M22.67,6.18l1.33,1.08-2.67,2.46-1.29-.95c.71-2.01,2.64-2.59,2.64-2.59M22.67,5.75s-.08,0-.12.02c-.09.03-2.14.67-2.92,2.86-.06.18,0,.38.15.49l1.29.95c.08.06.17.08.25.08.1,0,.21-.04.29-.11l2.67-2.46c.09-.08.14-.2.14-.33s-.06-.24-.16-.32l-1.33-1.08c-.08-.06-.17-.1-.27-.1h0Z"/>
            </g>
            <g>
              <path class="cls-34" d="M21.56,11.99c-.44,0-1.01-.09-1.26-.53-.21-.38-.1-.92.32-1.6,1.3-2.08,3.43-3.57,3.52-3.63.04-.03.08-.04.12-.04.01,0,.02,0,.03,0,.34.05,2.06.34,2.18,1.09.06.37-.24.71-.91,1.06-2.26,1.17-3.55,3.5-3.56,3.52-.03.06-.09.1-.16.11,0,0-.11.01-.28.01h0Z"/>
              <path class="cls-26" d="M24.26,6.41s3.55.53,1.2,1.75c-2.35,1.22-3.65,3.61-3.65,3.61,0,0-.1.01-.25.01-.56,0-1.77-.17-.76-1.8,1.29-2.07,3.46-3.57,3.46-3.57M24.26,5.98c-.09,0-.17.03-.24.08-.09.06-2.26,1.57-3.58,3.69-.47.76-.58,1.35-.32,1.81.23.42.73.64,1.45.64.18,0,.31-.02.31-.02.14-.02.26-.1.32-.22.01-.02,1.28-2.29,3.47-3.43.28-.15,1.14-.59,1.02-1.29-.14-.84-1.7-1.16-2.36-1.26-.02,0-.04,0-.06,0h0Z"/>
            </g>
            <g>
              <g>
                <path class="cls-35" d="M25.98,18.92c-.69,0-6.8-6.4-6.83-6.46-.12-.22-.26-1.41.16-2.42.29-.68.78-1.14,1.44-1.33.03,0,.06-.01.09-.01.07,0,.14.02.2.07l1.94,1.49c.13.1.17.29.07.43,0,0-.48.73-.15,1.22.05.07.14.16.37.16.34,0,.76-.2.89-.27.05-.03.1-.04.16-.04.02,0,.03,0,.05,0l.64.1c.05,0,.11.03.15.06l2,1.57c.07.06.11.14.12.23l.05.6c0,.07-.01.14-.05.2,0,0-.13.2-.29.48-.16.27-.45.78-.57,1.22-.09.31.63,1.03,1.33,1.48.08.05.13.13.14.23.01.09-.02.19-.08.26l-.36.4s-.09.08-.15.09c-.03,0-.72.2-1.16.23-.04,0-.09.01-.15.01Z"/>
                <path class="cls-26" d="M20.82,9.02l1.94,1.49s-.61.9-.15,1.58c.16.23.39.3.64.3.5,0,1.05-.31,1.05-.31l.64.1,2,1.57.05.6s-.13.2-.3.49c-.22.37-.48.87-.6,1.29-.22.75,1.47,1.84,1.47,1.84l-.36.4s-.68.19-1.1.22c-.05.01-.09.01-.13.01-.39,0-6.44-6.08-6.55-6.29-.12-.22-.38-2.78,1.4-3.29M20.82,8.38c-.06,0-.12,0-.18.02-.75.22-1.32.74-1.65,1.51-.43,1.04-.34,2.34-.14,2.7.03.06,6.21,6.62,7.11,6.62.07,0,.13,0,.21-.01.47-.04,1.12-.22,1.19-.24.12-.03.22-.1.3-.19l.36-.4c.13-.14.18-.33.16-.51s-.13-.35-.29-.45c-.59-.38-1.17-.95-1.2-1.17.08-.25.27-.67.53-1.1.16-.27.28-.46.29-.47.08-.12.11-.26.1-.4l-.05-.6c-.01-.18-.1-.34-.24-.45l-2-1.57c-.09-.07-.19-.11-.3-.13l-.64-.1s-.07,0-.1,0c-.11,0-.22.03-.32.09-.16.09-.49.23-.73.23-.07,0-.1-.01-.1-.02-.18-.27.07-.75.15-.87.18-.28.12-.66-.14-.87l-1.94-1.49c-.11-.09-.25-.13-.39-.13h0Z"/>
              </g>
              <path class="cls-21" d="M26.99,14.35s-.13.2-.3.49l-.26-1.03-1.55-1.32h-.53s-1.13.56-1.76.19c-.63-.36-.35-2.08-.35-2.08l-1.53-1.19s-.47.17-.65.53c-.18.36-.37,2.05-.37,2.05l6.41,6.6s-.09.01-.13.01c-.39,0-6.44-6.08-6.55-6.29-.12-.22-.38-2.78,1.4-3.29l1.94,1.49s-.61.9-.15,1.58c.47.69,1.69-.01,1.69-.01l.64.1,2,1.57.05.6Z"/>
            </g>
            <g>
              <g>
                <path class="cls-37" d="M30.93,13.48c-.08,0-.16-.03-.22-.09l-1.61-1.49h-.3c-.08,0-.16-.03-.22-.08l-1.01-.93-.21-.34c-.04-.07-.05-.15-.04-.22.02-.09.14-.92-.88-1.33-.67-.27-1.18-.33-1.48-.33-.23,0-.35.03-.35.03-.03,0-.06.01-.09.01-.08,0-.17-.03-.23-.09l-1.55-1.57-.36-.3c-.12-.1-.15-.28-.07-.41.03-.05.7-1.16,1.75-1.49.45-.14,1.1-.21,1.96-.21.5,0,.87.03.87.03.07,0,.13.03.18.07l6.87,5.67c.07.06.12.15.12.24,0,.09-.04.18-.11.25l-2.69,2.4-.14.12c-.06.05-.13.08-.21.08Z"/>
                <path class="cls-26" d="M26.02,4.95c.49,0,.85.02.85.02l6.87,5.67-.62.55-2.07,1.85-.13.11-1.7-1.58h-.43l-1.01-.93-.15-.26s.24-1.16-1.07-1.69c-.71-.29-1.25-.36-1.6-.36-.29,0-.44.05-.44.05l-1.55-1.57-.38-.32s.63-1.05,1.57-1.35c.51-.16,1.27-.19,1.86-.19M26.02,4.31h0c-.88,0-1.57.08-2.05.22-1.14.36-1.85,1.5-1.93,1.63-.16.27-.1.62.14.82l.36.3,1.53,1.55c.12.12.29.19.46.19.06,0,.12,0,.18-.03h0s.1-.02.26-.02c.27,0,.73.05,1.36.31.81.33.69.94.68.97-.03.15,0,.31.07.45l.15.26c.03.06.07.11.12.15l1.01.93c.12.11.27.17.44.17h.18l1.52,1.41c.12.11.28.17.44.17.15,0,.29-.05.41-.15l.13-.11,2.08-1.86.62-.55c.14-.12.22-.3.22-.49s-.09-.36-.23-.48l-6.87-5.67c-.1-.09-.23-.14-.37-.15,0,0-.38-.03-.89-.03h0Z"/>
              </g>
              <path class="cls-22" d="M22.95,6.41l1.63,1.55s1.96-.12,2.89.67c.94.8.69,1.78.69,1.78l.78.7.34-.02,1.77,1.96-.13.11-1.7-1.58h-.43l-1.01-.93-.15-.26s.24-1.16-1.07-1.69c-1.3-.53-2.04-.31-2.04-.31l-1.55-1.57-.38-.32s.63-1.05,1.57-1.35c.93-.29,2.71-.17,2.71-.17l6.87,5.67-.29.26-6.64-5.61s-2.06.03-2.82.22c-.75.2-1.04.89-1.04.89Z"/>
            </g>
            <g>
              <path class="cls-44" d="M30,26.22c-.05,0-.11-.01-.15-.04l-1.59-1.13c-.07-.03-.18-.09-.3-.15-.21-.12-.41-.26-.6-.42-.11-.09-.22-.19-.32-.3-2.38-2.43-1.71-7.37,1.51-11.25,1.33-1.59,2.92-2.83,4.61-3.59,1.13-.5,2.28-.77,3.32-.77,1.25,0,2.35.38,3.21,1.08l1.76,1.23c.07.05.12.13.13.21.01.09,0,.17-.06.24l-.38.5c.89,2.69-.14,6.34-2.64,9.36-1.41,1.7-3.18,3.03-4.99,3.75-.96.38-1.9.59-2.8.61l-.38.5c-.07.1-.21.17-.34.17Z"/>
              <path class="cls-26" d="M36.49,8.88c1.14,0,2.18.33,3,1.01l1.79,1.25-.49.64c.91,2.51,0,6.16-2.53,9.21-1.44,1.73-3.16,2.98-4.86,3.66-.97.39-1.93.59-2.83.59h-.02l-.47.62-.04.06-.49-.35-1.1-.78c-.11-.05-.22-.11-.32-.17-.19-.11-.38-.24-.55-.39-.11-.09-.2-.18-.3-.28,0,0,0,0,0,0-2.25-2.3-1.62-7.02,1.54-10.81,1.34-1.6,2.91-2.8,4.49-3.51,1.09-.49,2.18-.74,3.19-.74M36.49,8.24h0c-1.09,0-2.28.28-3.45.8-1.73.78-3.37,2.05-4.73,3.68-3.39,4.08-4.03,9.09-1.5,11.67.12.12.23.23.36.33.2.17.41.32.64.45.1.06.21.12.32.17l1.05.75.49.35c.11.08.24.12.37.12.19,0,.39-.09.51-.25l.04-.06.28-.37c.9-.04,1.82-.25,2.76-.63,1.85-.74,3.67-2.11,5.11-3.84,2.53-3.04,3.58-6.72,2.75-9.5l.28-.37c.11-.14.15-.32.12-.49-.03-.17-.12-.33-.27-.43l-1.76-1.23c-.91-.75-2.08-1.14-3.39-1.14h0Z"/>
            </g>
            <g>
              <path class="cls-45" d="M31.82,26.61c-1.06,0-1.96-.3-2.67-.89-1.22-1.01-1.7-2.75-1.36-4.88.34-2.07,1.42-4.29,3.05-6.25,2.35-2.83,5.41-4.59,7.97-4.59,1.06,0,1.96.3,2.67.89,1.22,1.01,1.7,2.75,1.36,4.88-.34,2.07-1.42,4.29-3.05,6.25-2.35,2.83-5.41,4.59-7.97,4.59Z"/>
              <path class="cls-26" d="M38.81,10.32c.95,0,1.8.26,2.46.82,2.33,1.94,1.56,6.72-1.73,10.68-2.35,2.83-5.35,4.47-7.72,4.47-.95,0-1.8-.26-2.46-.82-2.33-1.94-1.56-6.72,1.73-10.68,2.35-2.83,5.35-4.47,7.72-4.47M38.81,9.68h0c-2.66,0-5.81,1.8-8.22,4.7-3.57,4.3-4.3,9.39-1.65,11.59.76.63,1.75.97,2.87.97,2.66,0,5.81-1.8,8.22-4.7,3.57-4.3,4.3-9.39,1.65-11.59-.76-.63-1.75-.97-2.87-.97h0Z"/>
            </g>
            <g>
              <path class="cls-46" d="M34.7,26.11c-.08,0-.16-.03-.22-.08-.09-.08-.13-.22-.09-.33l.24-.75c.03-.08.08-.15.16-.19,3.51-1.78,6.01-5.47,6.94-8.33.46-1.43.53-2.63.18-3.3-.73-1.42-2.62-1.63-3.68-1.63-.56,0-.95.06-.96.06-.02,0-.03,0-.05,0-.1,0-.19-.05-.25-.13l-1.92-2.5c-.09-.12-.09-.29.02-.41l.42-.47s.08-.07.13-.09c.58-.21,1.19-.32,1.84-.32,1.92,0,3.46.94,3.52.98.03.02.06.05.09.08l2.8,3.69c.13.19.61,1.3-1.31,6.16-1.98,5.02-7.49,7.44-7.73,7.54-.04.02-.08.03-.13.03Z"/>
              <path class="cls-26" d="M37.46,7.96c1.85,0,3.35.93,3.35.93l2.8,3.69s.61.9-1.35,5.85c-1.96,4.95-7.56,7.36-7.56,7.36l.24-.75c5.36-2.72,8.45-9.76,7.26-12.07-.8-1.55-2.76-1.8-3.97-1.8-.59,0-1,.06-1,.06l-1.92-2.5.42-.47c.59-.22,1.17-.3,1.73-.3M37.46,7.31c-.68,0-1.34.11-1.95.34-.1.04-.19.1-.26.17l-.42.47c-.21.23-.22.57-.03.82l1.92,2.5c.12.16.31.25.51.25.03,0,.06,0,.09,0,0,0,.38-.05.91-.05.99,0,2.74.19,3.4,1.46.3.59.23,1.73-.2,3.06-.9,2.8-3.35,6.41-6.78,8.14-.15.08-.27.21-.32.38l-.24.75c-.08.24,0,.5.18.67.12.11.27.17.43.17.09,0,.17-.02.25-.05.24-.1,5.87-2.58,7.9-7.72,1.88-4.75,1.52-6.09,1.29-6.44l-2.82-3.72c-.05-.06-.11-.12-.17-.16-.07-.04-1.68-1.03-3.69-1.03h0Z"/>
            </g>
            <g class="cls-23">
              <path class="cls-36" d="M37.46,8.21c1.6,0,2.94.73,3.18.87l2.75,3.63s.46,1.02-1.37,5.63c-1.55,3.92-5.49,6.24-6.91,6.97l.03-.1c3.61-1.87,6.18-5.67,7.13-8.62.51-1.6.57-2.92.14-3.74-.87-1.69-3-1.94-4.19-1.94-.4,0-.72.03-.89.05l-1.7-2.23.24-.27c.5-.17,1.03-.26,1.58-.26M37.46,7.96c-.55,0-1.14.08-1.73.3l-.42.47,1.92,2.5s.41-.06,1-.06c1.21,0,3.17.25,3.97,1.8,1.19,2.31-1.9,9.35-7.26,12.07l-.24.75s5.6-2.41,7.56-7.36c1.96-4.95,1.35-5.85,1.35-5.85l-2.8-3.69s-1.5-.93-3.35-.93h0Z"/>
            </g>
            <g>
              <path class="cls-39" d="M31.41,26.49c-.37,0-.85-.15-1.43-.44-.18-.09-.36-.19-.55-.3-.43-.25-.9-.57-1.44-.96-.47-.35-.81-.63-.86-.67-2.36-2.4-1.69-7.28,1.5-11.12,1.32-1.58,2.9-2.81,4.57-3.56.03-.01.06-.02.09-.02.05,0,.11.02.15.06l3.36,3.17s.07.1.07.16v1.01c0,.11-.08.2-.18.21-.02,0-2.26.35-3.02,1.6-.28.47-.42,1.12-.56,1.81-.26,1.26-.56,2.69-1.83,3.78-.79.68-1.15,1.3-1,1.71.1.26.4.4.65.4.37,0,.92-.07,1.31-.12.27-.04.49-.06.59-.06.07,0,.19.04.23.1.04.06.57.93.57.93.03.04.04.09.03.14l-.05.37c-.02.12-.03.24-.04.35.31-.02.74-.14.89-.19.02,0,.04,0,.06,0,.06,0,.11.02.15.06.06.06.08.14.05.22l-.24.75c-.02.07-.07.12-.14.14-.06.02-1.53.5-2.91.5h-.02Z"/>
              <path class="cls-26" d="M33.29,9.63l3.36,3.17v1.01s-2.35.35-3.17,1.7c-.82,1.35-.43,3.89-2.35,5.53-1.92,1.64-.92,2.48-.22,2.48.63,0,1.66-.19,1.9-.19.03,0,.05,0,.05,0,.04.06.57.92.57.92,0,0-.03.17-.05.37-.03.18-.05.39-.06.51,0,.07.07.09.19.09.33,0,.99-.21.99-.21l-.24.75s-1.48.49-2.85.49h-.02c-.37,0-.84-.17-1.33-.42-.18-.09-.36-.19-.54-.29-.51-.3-1.02-.65-1.42-.95-.47-.35-.8-.62-.85-.66,0,0,0,0,0,0-2.25-2.3-1.62-7.02,1.54-10.81,1.34-1.6,2.91-2.8,4.49-3.51M34.52,25.04h0M33.29,9.2c-.06,0-.12.01-.18.04-1.7.76-3.31,2.02-4.65,3.62-3.26,3.93-3.93,8.93-1.51,11.39.01.01.03.03.04.04.06.05.39.32.87.68.55.4,1.02.72,1.46.98.19.11.38.21.56.31.61.31,1.11.46,1.52.46,1.44,0,2.94-.49,3-.51.13-.04.23-.15.27-.28l.23-.71c.02-.05.04-.11.04-.17,0-.24-.19-.43-.43-.43h0s-.09,0-.14.02c-.16.05-.38.11-.58.15,0-.02,0-.05.01-.07.03-.2.05-.37.05-.37.01-.1,0-.2-.06-.29,0,0-.54-.88-.58-.94-.06-.09-.18-.19-.4-.19-.12,0-.3.02-.62.06-.39.05-.93.12-1.28.12-.17,0-.39-.1-.45-.26-.09-.24.11-.76.94-1.47,1.32-1.13,1.64-2.66,1.9-3.9.14-.67.27-1.31.54-1.74.71-1.16,2.85-1.5,2.87-1.5.21-.03.36-.21.36-.42v-1.01c0-.12-.05-.23-.13-.31l-3.36-3.17c-.08-.08-.19-.12-.29-.12h0Z"/>
            </g>
            <g class="cls-23">
              <path class="cls-38" d="M33.2,10.22l2.96,2.79v.39c-.77.18-2.39.68-3.1,1.85-.35.57-.5,1.28-.65,2.03-.25,1.21-.51,2.45-1.59,3.38-1.34,1.15-1.4,1.99-1.21,2.5.22.59.84.87,1.32.87.42,0,.97-.07,1.41-.13.09-.01.19-.03.28-.04.1.16.23.37.32.52,0,.06-.02.13-.03.2-.03.2-.05.43-.06.55,0,.16.05.3.16.42.01.02.03.03.05.04-.48.1-1.07.19-1.62.19-.18,0-.51-.07-1.11-.37-.17-.08-.33-.18-.5-.28-.41-.24-.86-.54-1.38-.92-.45-.34-.78-.6-.8-.62-2.08-2.12-1.4-6.58,1.56-10.14,1.17-1.4,2.55-2.51,4.01-3.23M33.29,9.63c-1.58.71-3.16,1.9-4.49,3.51-3.15,3.79-3.79,8.52-1.54,10.81,0,0,0,0,0,0,.06.05.39.32.85.66.4.3.91.65,1.42.95.18.11.36.2.54.29.49.25.96.42,1.33.42h.02c1.36,0,2.85-.49,2.85-.49l.24-.75s-.66.21-.99.21c-.11,0-.19-.02-.19-.09,0-.12.03-.33.06-.51.03-.2.05-.37.05-.37,0,0-.53-.86-.57-.92,0,0-.02,0-.05,0-.25,0-1.27.19-1.9.19-.7,0-1.7-.84.22-2.48,1.92-1.64,1.53-4.19,2.35-5.53.82-1.35,3.17-1.7,3.17-1.7v-1.01l-3.36-3.17h0ZM34.52,25.04h0,0Z"/>
            </g>
            <g>
              <path class="cls-40" d="M33.39,23.91c-.38,0-.52-.21-.59-.33-.04,0-.1.02-.17.04-.31.06-.83.17-1.34.17-.27,0-.51-.03-.71-.09-.43-.12-.74-.45-.82-.87-.11-.59.22-1.25.9-1.76,1.18-.9,1.46-1.66,1.65-3.01.22-1.61,1.02-3.53,2.06-3.94.49-.19.91-.22,1.22-.22h.47c.1,0,.22,0,.28-.03-.03-.01-.2-.18-.37-.3-.05-.04-.08-.09-.09-.15,0-.06.01-.12.05-.17.05-.06,1.34-1.47,3.04-1.47.34,0,.69.06,1.01.18.31.11.52.34.61.66.23.82-.37,2.18-1.09,3.09-.18.23-.37.55-.26.8.13.29.62.44,1.04.46.31.02.52.25.53.6.02.77-.87,1.99-2.53,2.16-1.05.11-1.36.77-1.75,1.61-.33.71-.71,1.52-1.64,2.03-.66.37-1.15.55-1.49.55Z"/>
              <path class="cls-26" d="M38.96,11.98c.3,0,.62.05.94.17,1.07.39.31,2.3-.57,3.42-.88,1.11.13,1.57.94,1.61s.13,2.11-2.01,2.33c-2.14.22-1.57,2.61-3.48,3.67-.71.4-1.13.52-1.39.52-.43,0-.39-.34-.52-.34h0c-.15,0-.88.21-1.58.21-.23,0-.45-.02-.65-.08-.83-.24-1.04-1.35.15-2.26,1.19-.91,1.53-1.67,1.73-3.15.21-1.48.95-3.39,1.92-3.77.44-.17.82-.2,1.14-.2.18,0,.33,0,.47,0,.16,0,.29-.01.39-.07.34-.19-.35-.66-.35-.66,0,0,1.26-1.4,2.88-1.4M38.96,11.56c-1.79,0-3.14,1.47-3.2,1.54-.08.09-.12.21-.11.34.01.09.05.18.11.24-.06,0-.12,0-.19,0-.3,0-.77.02-1.3.23-1.26.5-2,2.73-2.19,4.11-.2,1.47-.54,2.09-1.57,2.87-.74.57-1.1,1.3-.98,1.97.1.51.46.89.97,1.04.22.06.48.1.77.1.53,0,1.06-.11,1.38-.17.01,0,.02,0,.03,0,.12.15.32.31.69.31.38,0,.89-.18,1.6-.57.99-.55,1.38-1.39,1.73-2.13.42-.89.7-1.4,1.58-1.49,1.79-.18,2.75-1.52,2.72-2.38-.01-.46-.31-.78-.73-.81-.41-.02-.78-.17-.86-.34-.05-.12.04-.33.23-.58.73-.93,1.4-2.35,1.13-3.28-.11-.39-.37-.67-.75-.8-.35-.13-.72-.19-1.09-.19h0Z"/>
            </g>
            <g class="cls-23">
              <path class="cls-41" d="M38.96,12.48h0c.26,0,.52.05.77.14.09.03.14.08.17.18.14.49-.3,1.61-.97,2.45-.55.7-.49,1.22-.35,1.54.3.65,1.1.82,1.5.87-.02.1-.08.27-.21.45-.17.24-.67.79-1.67.9-1.45.15-1.92,1.14-2.33,2.02-.32.67-.62,1.31-1.34,1.71-.68.38-.99.45-1.13.45-.05-.09-.2-.34-.53-.34-.1,0-.2.02-.39.06-.3.06-.76.15-1.19.15-.2,0-.37-.02-.51-.06-.12-.03-.27-.12-.31-.32-.05-.25.09-.65.63-1.06,1.36-1.04,1.72-1.99,1.92-3.48.22-1.57.95-3.12,1.61-3.37.38-.15.71-.17.96-.17.09,0,.17,0,.25,0s.15,0,.22,0c.2,0,.43-.02.63-.13.21-.12.34-.32.35-.55,0-.2-.08-.39-.21-.55.44-.36,1.24-.89,2.14-.89M38.96,11.98c-1.62,0-2.88,1.4-2.88,1.4,0,0,.69.47.35.66-.1.06-.23.07-.39.07-.14,0-.29,0-.47,0-.32,0-.7.03-1.14.2-.97.38-1.72,2.29-1.92,3.77-.21,1.48-.54,2.24-1.73,3.15-1.19.91-.98,2.02-.15,2.26.2.06.43.08.65.08.71,0,1.44-.21,1.58-.21h0c.12,0,.09.34.52.34.25,0,.67-.12,1.39-.52,1.91-1.06,1.33-3.45,3.48-3.67,2.14-.22,2.82-2.29,2.01-2.33s-1.82-.5-.94-1.61c.88-1.11,1.65-3.03.57-3.42-.32-.12-.64-.17-.94-.17h0Z"/>
            </g>
          </g>
        </g>
        <g>
          <g>
            <g>
              <path class="cls-27" d="M12.65,25.87s-.05,0-.07-.02c-.03-.02-.06-.05-.07-.09-.03-.09-.27-.88.03-1.28.08-.1.22-.22.48-.22.1,0,.2.02.32.05,1.15.33,1.1.83,1.09.88,0,.05-.05.1-.1.12l-1.64.55s-.03,0-.05,0Z"/>
              <path class="cls-1" d="M13.02,24.41c.08,0,.17.01.28.04,1.06.3.99.72.99.72l-1.64.55s-.41-1.31.37-1.31M13.02,24.12c-.32,0-.5.15-.59.28-.33.45-.1,1.25-.05,1.41.02.07.08.14.15.17.04.02.09.03.13.03.03,0,.06,0,.09-.02l1.64-.55c.1-.03.18-.12.2-.23.02-.11.05-.69-1.2-1.05-.13-.04-.25-.06-.36-.06h0Z"/>
            </g>
            <g>
              <path class="cls-9" d="M1.78,23.47s-.07-.01-.1-.04l-1.26-1.18s-.06-.09-.04-.15c.01-.04.13-.39.86-.39.14,0,.31.01.5.04.34.05.55.19.63.42.17.5-.42,1.17-.49,1.25-.03.03-.06.05-.1.05h0Z"/>
              <path class="cls-1" d="M1.25,21.86c.13,0,.29.01.48.04,1.18.19.05,1.42.05,1.42l-1.26-1.18s.08-.28.72-.28M1.25,21.57h0c-.82,0-.98.41-1,.49-.03.1,0,.22.08.29l1.26,1.18c.05.05.13.08.2.08,0,0,0,0,.01,0,.08,0,.15-.04.2-.09.12-.13.72-.83.52-1.39-.07-.19-.25-.44-.75-.51-.19-.03-.37-.05-.53-.05h0Z"/>
            </g>
          </g>
          <g>
            <path class="cls-8" d="M14.15,24.15c-.61,2.79-2.89,4.79-5.56,5.18-.78.12-1.6.1-2.42-.08-3.61-.8-5.89-4.37-5.1-7.98.8-3.61,4.37-5.89,7.98-5.1,1.05.23,1.99.7,2.78,1.34,1.91,1.54,2.89,4.08,2.32,6.64Z"/>
            <path class="cls-18" d="M14.15,24.15c-.61,2.79-2.89,4.79-5.56,5.18-2.71-.98-4.31-3.98-3.64-7.05.72-3.28,3.78-5.4,6.87-4.78,1.91,1.54,2.89,4.08,2.32,6.64Z"/>
          </g>
          <g>
            <g>
              <path class="cls-5" d="M9.48,25.42c-4.07,0-6.86-2.07-8.15-3.31-.54-.52-.82-.88-.84-.9-.04-.06-.06-.13-.04-.21.74-3.35,3.76-5.78,7.18-5.78.44,0,.89.04,1.33.12l.26.05c.63.14,1.23.35,1.77.64,2.67,1.36,4.23,4.17,3.98,7.16-.02.31-.07.64-.15.98-.02.08-.07.15-.15.18-.44.17-.86.32-1.28.45-.88.27-1.78.46-2.66.55-.43.04-.85.06-1.26.06Z"/>
              <path class="cls-26" d="M7.63,15.48c.43,0,.85.04,1.29.12.08.02.17.03.25.05.61.13,1.18.34,1.71.62,2.54,1.29,4.09,4.02,3.85,6.92-.02.31-.07.63-.14.95-.43.17-.85.32-1.26.44-.92.28-1.79.45-2.61.54-.42.04-.84.06-1.23.06-3.99,0-6.72-2.03-7.98-3.24-.53-.51-.81-.87-.81-.87.73-3.32,3.67-5.58,6.94-5.58M7.63,14.98h0c-3.54,0-6.66,2.51-7.43,5.98-.03.14,0,.29.09.41.01.02.31.4.86.93,1.33,1.26,4.17,3.38,8.33,3.38.42,0,.86-.02,1.29-.07.89-.09,1.81-.28,2.71-.56.42-.13.86-.28,1.29-.46.15-.06.27-.2.3-.36.08-.34.13-.68.15-1.01.26-3.09-1.36-5.99-4.12-7.4-.56-.29-1.18-.52-1.83-.66-.09-.02-.18-.04-.27-.05-.45-.08-.92-.13-1.38-.13h0Z"/>
            </g>
            <path class="cls-25" d="M14.59,24.12c-.43.17-.85.32-1.26.44-.92.28-1.79.45-2.61.54-4.66.48-7.82-1.85-9.22-3.17,2.35,1.4,7.29,3.51,13.23,1.24-.02.31-.07.63-.14.95Z"/>
            <path class="cls-25" d="M10.72,25.11c1.66-5.96-.85-8.71-1.8-9.51.08.02.17.03.25.05,3.84.84,6.26,4.64,5.42,8.48-1.39.56-2.68.86-3.87.98Z"/>
            <g class="cls-23">
              <path class="cls-48" d="M13.86,23.64c-.38.15-.74.28-1.1.39-.8.25-1.56.4-2.29.47-4.08.42-6.85-1.62-8.06-2.78-.47-.45-.71-.76-.71-.76.72-3.28,3.91-5.39,7.2-4.78.07.01.15.03.22.04.53.12,1.03.3,1.5.54,2.22,1.13,3.58,3.52,3.37,6.05-.02.27-.06.55-.12.83Z"/>
            </g>
            <path class="cls-19" d="M13.69,24.45c1.86-1.99-.43-7.09-2.81-8.19,2.81,1.43,4.42,4.63,3.71,7.86-.43.17-.49.2-.9.33Z"/>
            <g class="cls-23">
              <path class="cls-20" d="M9.21,16c.08.02.17.03.25.05.61.13,1.18.34,1.71.62.94.48,1.75,1.16,2.38,1.97-.66-.99-1.58-1.82-2.67-2.38-.53-.27-1.1-.48-1.71-.62-.09-.02-.17-.03-.25-.05-3.75-.69-7.4,1.72-8.23,5.47,0,0,.1.14.31.36.85-3.72,4.48-6.1,8.21-5.42Z"/>
            </g>
            <g class="cls-23">
              <g>
                <ellipse class="cls-20" cx="6.89" cy="16.32" rx="1.19" ry=".6" transform="translate(-1.19 .55) rotate(-4.24)"/>
                <ellipse class="cls-20" cx="7.02" cy="17.27" rx=".5" ry=".28" transform="translate(-1.26 .57) rotate(-4.24)"/>
              </g>
            </g>
          </g>
          <g>
            <g>
              <path class="cls-43" d="M7.54,19.26s-.82-1.63-2.46-1.17-2.34,2.67.95,6.01c0,0,3.78-.55,4.79-2.48s-1.04-3.68-3.29-2.36Z"/>
              <path class="cls-49" d="M5.64,18.01c1.26,0,1.89,1.25,1.89,1.25.55-.32,1.08-.46,1.56-.46,1.5,0,2.49,1.35,1.72,2.82-1.01,1.93-4.79,2.48-4.79,2.48-3.3-3.34-2.59-5.55-.95-6.01.2-.06.39-.08.57-.08M5.64,17.86h0c-.2,0-.4.03-.61.09-.71.2-1.23.7-1.41,1.38-.2.75-.16,2.37,2.3,4.87.03.03.06.04.1.04,0,0,.01,0,.02,0,.16-.02,3.87-.58,4.9-2.56.37-.71.38-1.46.01-2.05-.37-.61-1.07-.98-1.86-.98-.49,0-1.01.14-1.51.41-.21-.34-.85-1.2-1.95-1.2h0Z"/>
            </g>
            <path class="cls-20" d="M5.64,18.01v.09c1.19,0,1.81,1.19,1.82,1.2.01.02.03.04.05.04,0,0,.02,0,.02,0,.01,0,.03,0,.04-.01.5-.29,1.03-.45,1.52-.45.72,0,1.34.32,1.67.86.32.53.31,1.19-.02,1.83-.92,1.76-4.27,2.36-4.69,2.43-2.35-2.4-2.39-3.92-2.21-4.62.16-.61.6-1.04,1.25-1.22.19-.05.37-.08.55-.08v-.09M5.64,18.01c-.18,0-.37.02-.57.08-1.64.46-2.34,2.67.95,6.01,0,0,3.78-.55,4.79-2.48.77-1.46-.22-2.82-1.72-2.82-.48,0-1.02.14-1.56.46,0,0-.63-1.25-1.89-1.25h0Z"/>
            <g>
              <path class="cls-4" d="M7.29,19.8s-.44-1.22-1.62-1.24-2.62,1.53.41,5.13c0,0,3.04-.69,4.11-1.97s-.29-3.41-2.9-1.92Z"/>
              <path class="cls-47" d="M5.64,18.55s.02,0,.03,0c1.18.02,1.62,1.24,1.62,1.24.63-.36,1.19-.51,1.66-.51,1.47,0,2.06,1.46,1.24,2.43-1.07,1.28-4.11,1.97-4.11,1.97-3.01-3.58-1.61-5.13-.43-5.13M5.64,18.46h0c-.44,0-1.02.22-1.31.83-.28.6-.43,1.97,1.67,4.46.02.02.05.03.07.03,0,0,.01,0,.02,0,.13-.03,3.08-.71,4.16-2,.41-.49.51-1.13.25-1.68-.27-.57-.85-.91-1.57-.91-.5,0-1.04.16-1.61.47-.14-.31-.64-1.18-1.66-1.2h-.03Z"/>
            </g>
            <path class="cls-20" d="M5.64,18.64h.02c1.1.02,1.53,1.18,1.54,1.19,0,.02.03.04.05.05,0,0,.02,0,.03,0,.01,0,.03,0,.04-.01.58-.33,1.12-.5,1.62-.5.64,0,1.17.3,1.4.81.23.48.14,1.05-.22,1.49-.97,1.16-3.62,1.83-4.01,1.93-2-2.39-1.87-3.67-1.61-4.23.25-.54.75-.73,1.14-.73h0M5.64,18.55c-1.17,0-2.57,1.56.43,5.13,0,0,3.04-.69,4.11-1.97.81-.97.23-2.43-1.24-2.43-.47,0-1.03.15-1.66.51,0,0-.44-1.22-1.62-1.24,0,0-.02,0-.03,0h0Z"/>
            <g>
              <ellipse class="cls-42" cx="6.94" cy="21.28" rx="1.1" ry=".41" transform="translate(-15.4 22.64) rotate(-75.42)"/>
              <path class="cls-50" d="M7.18,20.21s.03,0,.04,0c.22.06.27.58.12,1.17-.14.55-.42.96-.63.96-.01,0-.03,0-.04,0-.22-.06-.27-.58-.12-1.17.14-.55.42-.96.63-.96M7.18,20.06h0c-.34,0-.63.54-.77,1.07-.16.6-.13,1.25.22,1.34.02,0,.05,0,.08,0,.34,0,.63-.54.77-1.07.08-.3.11-.6.08-.83-.04-.37-.19-.48-.31-.51-.02,0-.05,0-.08,0h0Z"/>
            </g>
            <path class="cls-20" d="M7.18,20.21l.02.09c.07.02.12.14.14.31.02.21,0,.48-.08.75-.15.59-.42.9-.57.9h0c-.13-.03-.21-.46-.06-1.06.15-.59.42-.9.55-.9v-.09M7.18,20.21c-.21,0-.49.41-.63.96-.15.59-.1,1.11.12,1.17.01,0,.03,0,.04,0,.21,0,.49-.41.63-.96.15-.59.1-1.11-.12-1.17-.01,0-.03,0-.04,0h0Z"/>
          </g>
          <g>
            <g>
              <path class="cls-3" d="M7.63,30.08c-.31,0-.62-.02-.94-.06-.22-.02-.44-.06-.66-.11-1.24-.27-2.39-.86-3.32-1.7-1.71-1.53-2.61-3.8-2.43-6.07,0-.1.08-.19.17-.22.03,0,.05-.01.08-.01.07,0,.14.03.19.09l.18.21c.28.32.89.95,1.8,1.6,1.36.97,3.6,2.13,6.56,2.13.35,0,.71-.02,1.08-.05,1.25-.12,2.55-.44,3.86-.95.03-.01.06-.02.09-.02.06,0,.13.02.17.07.07.07.1.17.06.26l-.05.13c-1.1,2.81-3.84,4.69-6.84,4.69Z"/>
              <path class="cls-26" d="M.52,22.16s.1.12.18.21c.31.35.94.99,1.85,1.64,1.49,1.07,3.75,2.18,6.71,2.18.36,0,.72-.02,1.1-.05,1.21-.11,2.52-.41,3.93-.97-.02.05-.03.09-.05.14-1.06,2.72-3.71,4.52-6.61,4.52-.3,0-.6-.02-.9-.06-.21-.02-.43-.06-.64-.11-1.24-.27-2.33-.85-3.21-1.64-1.62-1.45-2.53-3.61-2.35-5.86M.52,21.66s-.1,0-.15.02c-.19.06-.33.23-.35.43-.19,2.35.75,4.7,2.51,6.28.97.87,2.16,1.48,3.44,1.76.25.06.48.09.69.12.31.04.64.06.96.06,3.1,0,5.94-1.94,7.07-4.83.02-.06.04-.1.06-.16.06-.18.01-.39-.13-.52-.09-.09-.22-.14-.35-.14-.06,0-.12.01-.18.03-1.28.51-2.56.82-3.79.93-.35.03-.71.05-1.05.05-2.9,0-5.09-1.14-6.42-2.09-.89-.64-1.49-1.25-1.76-1.57-.07-.08-.13-.15-.17-.19-.1-.12-.24-.18-.39-.18h0Z"/>
            </g>
            <path class="cls-24" d="M14.29,25.18c-1.13,3.09-4.27,5.02-7.56,4.59-.21-.02-.43-.06-.64-.11-1.24-.27-2.33-.85-3.21-1.64-1-1.61-.78-3.02-.32-4.01,1.67,1.2,4.31,2.45,7.81,2.13,1.21-.11,2.52-.41,3.93-.97Z"/>
            <path class="cls-24" d="M14.29,25.18c-.93,2.52-3.19,4.27-5.78,4.6-.58.08-1.18.08-1.78,0,1.61-.89,2.93-2.07,3.64-3.63.8-.07,1.65-.23,2.54-.49.45-.13.91-.29,1.39-.47Z"/>
            <path class="cls-19" d="M14.29,25.18c-.93,2.52-3.19,4.27-5.78,4.6,1.6-.79,2.98-1.83,3.87-3.21.2-.31.37-.61.52-.92.45-.13.91-.29,1.39-.47Z"/>
            <g class="cls-23">
              <path class="cls-20" d="M6.92,29.18c-.21-.02-.43-.06-.64-.11-1.24-.27-2.33-.85-3.21-1.64-1.43-1.28-2.3-3.1-2.37-5.06-.08-.09-.14-.16-.18-.21-.18,2.26.73,4.41,2.35,5.86.88.79,1.97,1.37,3.21,1.64.21.05.43.08.64.11,3.29.42,6.43-1.51,7.56-4.59-.02,0-.04.02-.06.02-1.3,2.72-4.24,4.38-7.3,3.98Z"/>
            </g>
            <path class="cls-20" d="M14.29,25.18s-.03.09-.05.14c-1.91.91-4.3,1.58-6.76,1.06-4.56-.95-6.28-3.19-6.76-4.01.31.35.94.99,1.85,1.64,1.67,1.2,4.31,2.45,7.81,2.13,1.21-.11,2.52-.41,3.93-.97Z"/>
          </g>
          <g>
            <g>
              <path class="cls-2" d="M5.5,27c-.15,0-.3-.02-.45-.05-1.05-.23-1.74-1.21-1.62-2.27,0-.06.02-.13.03-.2.21-.95,1.06-1.63,2.03-1.63.15,0,.3.02.45.05.4.09.76.29,1.04.58.49.5.69,1.21.54,1.9-.21.95-1.06,1.63-2.03,1.63Z"/>
              <path class="cls-30" d="M5.49,22.95c.14,0,.28.02.43.05.39.09.73.28.99.55.44.46.66,1.12.51,1.8-.2.92-1.02,1.55-1.92,1.55-.14,0-.28-.01-.42-.05-1-.22-1.65-1.16-1.53-2.15,0-.06.02-.13.03-.19.2-.92,1.02-1.55,1.92-1.55M5.49,22.73h0c-1.02,0-1.92.72-2.13,1.72-.02.08-.03.15-.03.22-.13,1.11.6,2.14,1.7,2.38.15.03.31.05.47.05,1.02,0,1.92-.72,2.13-1.72.16-.72-.05-1.46-.57-2-.3-.31-.68-.52-1.1-.61-.16-.03-.31-.05-.47-.05h0Z"/>
            </g>
            <path class="cls-7" d="M7.02,25.25c-.01.07-.03.13-.06.19-.26.73-1.03,1.17-1.8,1-.84-.19-1.38-1.02-1.19-1.86.12-.54.5-.95.98-1.13.27-.1.58-.13.88-.06.84.19,1.37,1.02,1.19,1.86Z"/>
            <path class="cls-51" d="M6.96,25.44c-.26.73-1.03,1.17-1.8,1-.84-.19-1.38-1.02-1.19-1.86.12-.54.5-.95.98-1.13-.14.78.15,1.68,2.01,1.99Z"/>
            <g>
              <g>
                <path class="cls-6" d="M6.36,25.11c-.1.48-.58.77-1.05.67s-.78-.57-.67-1.05c.02-.08.04-.15.08-.22.18-.35.57-.55.97-.46.31.07.55.29.64.57.05.15.07.32.03.48Z"/>
                <path class="cls-31" d="M5.5,24.03c.06,0,.13,0,.19.02.31.07.55.29.64.57.05.15.07.32.03.48-.09.41-.46.69-.86.69-.06,0-.13,0-.19-.02-.48-.1-.78-.57-.67-1.05.02-.08.04-.15.08-.22.15-.29.45-.48.78-.48M5.5,23.93c-.36,0-.71.21-.87.53-.04.08-.07.16-.09.24-.06.26,0,.52.13.74.14.22.36.37.62.43.07.02.14.02.21.02.46,0,.86-.32.96-.77.04-.18.03-.37-.03-.54-.11-.32-.38-.56-.72-.64-.07-.02-.14-.02-.21-.02h0Z"/>
              </g>
              <path class="cls-51" d="M6.36,25.11c-.1.48-.58.77-1.05.67s-.78-.57-.67-1.05c.02-.08.04-.15.08-.22.2.18.52.37,1.01.36.23,0,.43-.1.6-.25.05.15.07.32.03.48Z"/>
              <ellipse class="cls-20" cx="5.4" cy="24.77" rx=".08" ry=".12" transform="translate(-19.95 24.72) rotate(-77.58)"/>
              <path class="cls-51" d="M5.37,25.5c-.43-.09-.71-.48-.69-.91-.02.04-.03.09-.05.14-.1.48.2.95.67,1.05s.95-.19,1.05-.67c.01-.05.02-.1.02-.15-.16.39-.58.63-1.01.54Z"/>
              <ellipse class="cls-20" cx="5.59" cy="24.34" rx=".3" ry=".42" transform="translate(-19.38 24.57) rotate(-77.58)"/>
            </g>
            <g class="cls-23">
              <path class="cls-20" d="M5.83,23.39c-.3-.07-.61-.04-.88.06-.48.18-.86.59-.98,1.13-.19.84.35,1.67,1.19,1.86.77.17,1.55-.27,1.8-1,.03-.06.04-.12.06-.19.19-.84-.35-1.68-1.19-1.86ZM6.85,25.4c-.24.68-.95,1.08-1.67.93-.78-.17-1.27-.94-1.1-1.72.11-.5.46-.88.91-1.04.25-.09.53-.12.82-.06.78.17,1.27.94,1.1,1.72-.01.06-.03.12-.05.17Z"/>
            </g>
          </g>
        </g>
      </g>
    </g>
  </g>
</svg>