<?xml version="1.0" encoding="UTF-8"?>
<svg xmlns="http://www.w3.org/2000/svg" xmlns:xlink="http://www.w3.org/1999/xlink" viewBox="0 0 34.6 15.84">
  <defs>
    <style>
      .cls-1 {
        fill: #1a7e9c;
      }

      .cls-2 {
        fill: url(#radial-gradient-6);
      }

      .cls-3 {
        fill: url(#radial-gradient-5);
      }

      .cls-4 {
        fill: url(#radial-gradient-4);
      }

      .cls-5 {
        fill: url(#radial-gradient-3);
      }

      .cls-6 {
        fill: url(#radial-gradient-2);
      }

      .cls-7 {
        fill: url(#linear-gradient-5);
      }

      .cls-8 {
        fill: url(#linear-gradient-4);
      }

      .cls-9 {
        fill: url(#linear-gradient-3);
      }

      .cls-10 {
        fill: url(#linear-gradient-2);
      }

      .cls-11 {
        opacity: .43;
      }

      .cls-11, .cls-12, .cls-13, .cls-14, .cls-15, .cls-16, .cls-17, .cls-18 {
        mix-blend-mode: overlay;
      }

      .cls-11, .cls-12, .cls-13, .cls-19 {
        fill: #fff;
      }

      .cls-12 {
        opacity: .64;
      }

      .cls-20 {
        fill: url(#radial-gradient);
      }

      .cls-21 {
        fill: #fdfef9;
      }

      .cls-22 {
        isolation: isolate;
      }

      .cls-23 {
        fill: #faeae5;
      }

      .cls-14 {
        fill: url(#linear-gradient);
      }

      .cls-24 {
        fill: #262a2b;
      }

      .cls-25 {
        fill: #e36356;
      }

      .cls-26 {
        fill: #fd2a0c;
      }

      .cls-16 {
        opacity: .26;
      }

      .cls-17 {
        opacity: .3;
      }

      .cls-18, .cls-27 {
        opacity: .54;
      }

      .cls-28 {
        fill: #4b3866;
      }

      .cls-29 {
        fill: #0e0b12;
      }

      .cls-27 {
        fill: #a0a0a0;
        mix-blend-mode: multiply;
      }

      .cls-30 {
        fill: #424a4c;
      }
    </style>
    <linearGradient id="linear-gradient" x1="7.82" y1="2.41" x2="7.72" y2="13.87" gradientUnits="userSpaceOnUse">
      <stop offset=".12" stop-color="#fff"/>
      <stop offset=".27" stop-color="#fff" stop-opacity=".62"/>
      <stop offset=".41" stop-color="#fff" stop-opacity=".29"/>
      <stop offset=".5" stop-color="#fff" stop-opacity=".08"/>
      <stop offset=".55" stop-color="#fff" stop-opacity="0"/>
    </linearGradient>
    <radialGradient id="radial-gradient" cx="-69.18" cy="-167.85" fx="-69.18" fy="-167.85" r="1.04" gradientTransform="translate(64.2 188.99) rotate(12.42)" gradientUnits="userSpaceOnUse">
      <stop offset="0" stop-color="#4b4c47"/>
      <stop offset=".98" stop-color="#515151"/>
    </radialGradient>
    <linearGradient id="linear-gradient-2" x1="-82.15" y1="-169.01" x2="-68.54" y2="-169.01" gradientTransform="translate(64.2 188.99) rotate(12.42)" gradientUnits="userSpaceOnUse">
      <stop offset=".26" stop-color="#f09159"/>
      <stop offset=".48" stop-color="#fff45a"/>
      <stop offset=".98" stop-color="#f09159"/>
    </linearGradient>
    <radialGradient id="radial-gradient-2" cx="27.01" cy=".41" fx="27.01" fy=".41" r="13.24" gradientTransform="matrix(1,0,0,1,0,0)" xlink:href="#radial-gradient"/>
    <linearGradient id="linear-gradient-3" x1="26.76" y1=".2" x2="28.82" y2="6.38" gradientTransform="matrix(1,0,0,1,0,0)" xlink:href="#linear-gradient-2"/>
    <linearGradient id="linear-gradient-4" x1="-75.17" y1="-167.74" x2="-75.64" y2="-176.03" gradientTransform="translate(64.2 188.99) rotate(12.42)" gradientUnits="userSpaceOnUse">
      <stop offset=".6" stop-color="#fdd1d5" stop-opacity="0"/>
      <stop offset=".66" stop-color="#fdd1d5" stop-opacity=".01"/>
      <stop offset=".71" stop-color="#fdd3d7" stop-opacity=".06"/>
      <stop offset=".76" stop-color="#fdd7da" stop-opacity=".14"/>
      <stop offset=".8" stop-color="#fddcdf" stop-opacity=".24"/>
      <stop offset=".85" stop-color="#fde2e4" stop-opacity=".38"/>
      <stop offset=".9" stop-color="#feeaec" stop-opacity=".55"/>
      <stop offset=".95" stop-color="#fef3f4" stop-opacity=".75"/>
      <stop offset=".99" stop-color="#fefdfd" stop-opacity=".97"/>
      <stop offset="1" stop-color="#fff"/>
    </linearGradient>
    <radialGradient id="radial-gradient-3" cx="22.08" cy="11.05" fx="22.08" fy="11.05" r="7.55" gradientTransform="matrix(1,0,0,1,0,0)" xlink:href="#radial-gradient"/>
    <linearGradient id="linear-gradient-5" x1="-77.6" y1="-168.37" x2="-76.28" y2="-164.43" xlink:href="#linear-gradient-2"/>
    <radialGradient id="radial-gradient-4" cx="24.55" cy="8.92" fx="24.55" fy="8.92" r="3.29" gradientUnits="userSpaceOnUse">
      <stop offset="0" stop-color="#ffcc5a"/>
      <stop offset=".98" stop-color="#f09159"/>
    </radialGradient>
    <radialGradient id="radial-gradient-5" cx="-76.94" cy="-166.4" fx="-76.94" fy="-166.4" r=".88" gradientTransform="translate(64.2 188.99) rotate(12.42)" gradientUnits="userSpaceOnUse">
      <stop offset="0" stop-color="#fff"/>
      <stop offset=".98" stop-color="#dbdbdb"/>
    </radialGradient>
    <radialGradient id="radial-gradient-6" cx="24.84" cy="9.94" fx="24.84" fy="9.94" r=".99" gradientUnits="userSpaceOnUse">
      <stop offset="0" stop-color="#fcfcfc"/>
      <stop offset="1" stop-color="#636363"/>
    </radialGradient>
  </defs>
  <g class="cls-22">
    <g id="Layer_2" data-name="Layer 2">
      <g id="Layer_1-2" data-name="Layer 1">
        <g>
          <g>
            <path class="cls-26" d="M7.77,15.34c-3.51,0-6.57-2.49-7.27-5.93-.06-.27-.1-.54-.12-.82-.02-.21-.03-.44-.03-.67C.34,3.82,3.67.49,7.77.49s7.43,3.33,7.43,7.42c0,.26-.01.51-.03.75-.03.31-.08.59-.15.87-.75,3.42-3.73,5.81-7.25,5.81Z"/>
            <path class="cls-1" d="M7.76.84c3.92,0,7.08,3.17,7.08,7.08,0,.25-.02.5-.03.73-.03.28-.08.55-.14.81-.7,3.17-3.52,5.54-6.91,5.54S1.49,12.58.84,9.34c-.05-.26-.09-.51-.12-.78-.02-.21-.03-.43-.03-.64C.69,4,3.85.84,7.76.84M7.76.15C3.48.15,0,3.63,0,7.91c0,.27.01.51.04.72.02.27.07.56.13.85.73,3.59,3.93,6.2,7.6,6.2s6.8-2.5,7.59-6.08c.07-.28.12-.58.15-.89.02-.28.04-.54.04-.81C15.54,3.63,12.05.15,7.76.15h0Z"/>
          </g>
          <path class="cls-14" d="M14.19,7.91c0,.23-.01.45-.03.66-.03.25-.07.5-.13.74-.63,2.88-3.19,5.02-6.27,5.02s-5.69-2.2-6.28-5.13c-.05-.23-.08-.46-.11-.71-.02-.19-.03-.39-.03-.58C1.35,4.37,4.22,1.5,7.77,1.5s6.43,2.87,6.43,6.42Z"/>
          <path class="cls-30" d="M14.82,8.64c-.03.28-.08.55-.14.81-.7,3.17-3.52,5.54-6.91,5.54S1.5,12.58.84,9.34c-.05-.26-.09-.51-.12-.78,1.98.5,7.4,1.54,14.1.09Z"/>
          <path class="cls-23" d="M14.69,9.46c-.7,3.17-3.52,5.54-6.91,5.54S1.51,12.58.85,9.34c2.09.64,7.22,1.75,13.84.12Z"/>
          <circle class="cls-30" cx="7.77" cy="9.34" r="2.89"/>
          <circle class="cls-23" cx="7.77" cy="9.34" r="2.1"/>
          <g>
            <ellipse class="cls-13" cx="7.71" cy="2.17" rx="1.62" ry=".67"/>
            <ellipse class="cls-13" cx="9.24" cy="3.35" rx=".73" ry=".4"/>
          </g>
        </g>
        <g>
          <g>
            <g>
              <path class="cls-20" d="M31.99,10.99s-.08,0-.11-.03c-.06-.03-.1-.08-.12-.15-.05-.15-.27-.94.04-1.37.09-.12.26-.27.56-.27.11,0,.22.02.35.05,1.21.34,1.19.89,1.17,1-.01.09-.08.17-.17.2l-1.64.55s-.05.01-.08.01Z"/>
              <path class="cls-28" d="M32.36,9.43c.08,0,.17.01.28.04,1.06.3.99.72.99.72l-1.64.55s-.41-1.31.37-1.31M32.36,8.93c-.32,0-.59.13-.76.37-.38.52-.16,1.35-.08,1.59.04.13.13.23.25.29.07.04.15.05.23.05.05,0,.11,0,.16-.03l1.64-.55c.18-.06.31-.21.34-.39.03-.2.03-.89-1.35-1.28-.15-.04-.29-.06-.42-.06h0Z"/>
            </g>
            <g>
              <path class="cls-29" d="M21.12,8.77c-.06,0-.12-.02-.17-.07l-1.26-1.18c-.07-.06-.09-.16-.07-.25.02-.08.17-.46.96-.46.14,0,.32.01.52.04.47.07.65.31.71.49.19.54-.39,1.22-.51,1.35-.04.05-.11.08-.17.08h0Z"/>
              <path class="cls-28" d="M20.59,7.06c.13,0,.29.01.48.04,1.18.19.05,1.42.05,1.42l-1.26-1.18s.08-.28.72-.28M20.59,6.56h0c-.97,0-1.17.54-1.2.65-.05.18,0,.37.14.5l1.26,1.18c.09.09.22.14.34.14,0,0,.01,0,.02,0,.13,0,.26-.06.35-.16.19-.21.79-.94.56-1.6-.09-.25-.31-.56-.91-.65-.2-.03-.39-.05-.56-.05h0Z"/>
            </g>
          </g>
          <g>
            <g>
              <path class="cls-10" d="M26.95,14.54c-.49,0-.98-.05-1.46-.16-1.78-.39-3.29-1.45-4.27-2.98-.98-1.53-1.3-3.35-.91-5.13.68-3.1,3.47-5.34,6.64-5.34.49,0,.99.05,1.47.16,1.05.23,2,.69,2.82,1.36,2.01,1.63,2.92,4.22,2.36,6.75-.6,2.74-2.87,4.86-5.65,5.27-.33.05-.66.07-1,.07Z"/>
              <path class="cls-24" d="M26.95,1.04c.48,0,.96.05,1.45.16,1.05.23,1.99.7,2.78,1.34,1.91,1.54,2.89,4.08,2.32,6.64-.61,2.79-2.89,4.79-5.56,5.18-.32.05-.65.07-.98.07-.48,0-.96-.05-1.44-.16-3.61-.8-5.89-4.37-5.1-7.98.69-3.13,3.46-5.26,6.53-5.26M26.95.82h0c-3.22,0-6.05,2.28-6.75,5.43-.82,3.72,1.54,7.42,5.26,8.24.49.11.99.16,1.49.16.34,0,.68-.03,1.01-.08,2.82-.42,5.13-2.57,5.74-5.35.57-2.57-.35-5.2-2.4-6.86-.84-.68-1.8-1.15-2.87-1.38-.49-.11-.99-.16-1.49-.16h0Z"/>
            </g>
            <path class="cls-11" d="M33.49,9.17c-.61,2.79-2.89,4.79-5.56,5.18-2.71-.98-4.31-3.98-3.64-7.05.72-3.28,3.78-5.4,6.87-4.78,1.91,1.54,2.89,4.08,2.32,6.64Z"/>
          </g>
          <g>
            <g>
              <path class="cls-6" d="M28.82,10.44c-4.06,0-6.85-2.07-8.15-3.3-.55-.52-.83-.9-.84-.91-.04-.06-.06-.13-.04-.2.05-.26.12-.51.21-.75.4-1.22,1.13-2.32,2.09-3.17.64-.58,1.38-1.03,2.2-1.35.87-.34,1.78-.51,2.7-.51.44,0,.88.04,1.32.12.07,0,.14.02.23.04.65.14,1.24.35,1.81.64.73.38,1.39.87,1.96,1.47.62.64,1.11,1.38,1.45,2.2.48,1.11.68,2.32.58,3.5-.01.12-.02.24-.04.35-.04.24-.07.44-.11.63-.02.08-.08.14-.15.17-.44.17-.85.32-1.27.46-.9.27-1.77.45-2.67.55-.43.04-.86.07-1.26.07Z"/>
              <path class="cls-28" d="M26.98.5c.42,0,.85.04,1.27.12.09.01.17.03.26.05.61.13,1.18.34,1.71.61.72.37,1.35.85,1.89,1.42.59.61,1.07,1.33,1.4,2.12.45,1.04.66,2.2.56,3.38-.01.11-.02.22-.04.33-.03.2-.06.41-.11.61-.43.17-.84.32-1.25.45-.92.28-1.79.45-2.62.54-.42.04-.84.06-1.24.06-3.99,0-6.71-2.03-7.97-3.23-.54-.51-.81-.88-.81-.88.05-.25.12-.49.2-.72.4-1.21,1.11-2.26,2.02-3.06.62-.56,1.34-1,2.12-1.3.82-.32,1.7-.5,2.61-.5M26.98,0h0c-.95,0-1.89.18-2.79.53-.84.32-1.61.79-2.27,1.39-.99.87-1.74,2.01-2.16,3.27-.09.27-.17.53-.22.78-.03.14,0,.28.09.39.01.02.3.41.87.95,1.32,1.26,4.17,3.37,8.32,3.37.42,0,.86-.02,1.29-.07.92-.1,1.8-.28,2.71-.56.4-.13.81-.27,1.29-.46.15-.06.26-.19.3-.34.05-.2.08-.42.11-.62.03-.15.04-.27.05-.39.1-1.23-.1-2.48-.6-3.62-.35-.84-.86-1.6-1.5-2.27-.59-.62-1.27-1.13-2.02-1.52-.59-.3-1.21-.52-1.83-.65-.13-.03-.21-.05-.31-.06-.41-.08-.87-.12-1.33-.12h0Z"/>
            </g>
            <path class="cls-9" d="M33.51,4.82c-1.04.19-2.01.27-2.92.27-4.3,0-7.13-1.82-8.34-2.79.16-.15.33-.29.51-.42.22-.16.46-.31.7-.45.29-.16.59-.31.91-.43,1.37.91,3.98,2.12,7.74,1.7.2.21.39.43.55.66.17.21.32.44.45.68.16.25.29.51.4.78Z"/>
            <path class="cls-25" d="M33.11,4.04c-.95.21-1.85.29-2.71.29-3.67,0-6.44-1.61-7.64-2.45.22-.16.46-.31.7-.45,1.52,1,4.94,2.74,9.2,1.93.17.21.32.44.45.68Z"/>
            <g>
              <path class="cls-21" d="M28.82,10.27c-4,0-6.75-2.04-8.03-3.25-.54-.51-.81-.87-.82-.89.04-.31.11-.56.19-.79,0-.03.03-.04.06-.05,0,0,0,0,.01,0,.02,0,.05.01.06.03.44.59,1.4,1.7,2.91,2.59-.04-.05.57-.72,1.81-.72.25,0,.52.03.79.09,1.6.35,1.9,1.9,1.94,2.24.06,0,.17,0,.3,0,1.09,0,3.85-.1,5.96-1.05,0,0,.02,0,.03,0,.02,0,.03,0,.04.02.02.02.03.04.03.07-.04.24-.07.43-.11.62-.48.22-.89.37-1.3.5-.88.27-1.75.45-2.63.54-.43.04-.84.06-1.24.06Z"/>
              <path class="cls-28" d="M20.23,5.36c.51.68,1.49,1.76,2.94,2.61,0,0,.6-.72,1.84-.72.23,0,.49.03.77.09,1.76.38,1.89,2.24,1.89,2.24,0,0,.13,0,.37,0,1,0,3.84-.09,5.99-1.06-.03.2-.06.41-.11.61-.43.17-.84.32-1.25.45-.92.28-1.79.45-2.62.54-.42.04-.84.06-1.24.06-3.99,0-6.71-2.03-7.97-3.23-.54-.51-.81-.88-.81-.88.05-.25.12-.49.2-.72M34.03,8.53h0M20.23,5.21s-.02,0-.02,0c-.05,0-.1.05-.12.1-.09.26-.16.5-.21.74,0,.04,0,.08.03.12.01.02.28.39.83.9,1.29,1.22,4.05,3.28,8.08,3.28.41,0,.83-.02,1.25-.06.89-.1,1.76-.28,2.65-.55.39-.12.79-.27,1.26-.45.04-.02.08-.06.09-.1.05-.2.08-.4.11-.59,0,0,0,0,0-.01,0-.01,0-.03,0-.05,0-.08-.07-.15-.15-.15h0s-.04,0-.06.01c-2.09.94-4.84,1.04-5.92,1.04-.1,0-.18,0-.24,0-.07-.45-.43-1.9-1.99-2.24-.27-.06-.54-.09-.8-.09-1.04,0-1.65.47-1.86.68-1.44-.87-2.37-1.94-2.79-2.51-.03-.04-.07-.06-.12-.06h0Z"/>
            </g>
            <path class="cls-17" d="M33.93,9.14c-.43.17-.85.32-1.26.44-.92.28-1.79.45-2.61.54-4.66.48-7.82-1.85-9.22-3.17,2.35,1.4,7.29,3.51,13.23,1.24-.02.31-.07.63-.14.95Z"/>
            <path class="cls-17" d="M30.06,10.13c1.66-5.96-.85-8.71-1.8-9.51.08.02.17.03.25.05,3.84.84,6.26,4.64,5.42,8.48-1.39.56-2.68.86-3.87.98Z"/>
            <g class="cls-15">
              <path class="cls-8" d="M33.2,8.66c-.38.15-.74.28-1.1.39-.8.25-1.56.4-2.29.47-4.08.42-6.85-1.62-8.06-2.78-.47-.45-.71-.76-.71-.76.72-3.28,3.91-5.39,7.2-4.78.07.01.15.03.22.04.53.12,1.03.3,1.5.54,2.22,1.13,3.58,3.52,3.37,6.05-.02.27-.06.55-.12.83Z"/>
            </g>
            <path class="cls-12" d="M33.03,9.47c1.86-1.99-.43-7.09-2.81-8.19,2.81,1.43,4.42,4.63,3.71,7.86-.43.17-.49.2-.9.33Z"/>
            <g class="cls-15">
              <path class="cls-19" d="M28.55,1.02c.08.02.17.03.25.05.61.13,1.18.34,1.71.62.94.48,1.75,1.16,2.38,1.97-.66-.99-1.58-1.82-2.67-2.38-.53-.27-1.1-.48-1.71-.62-.09-.02-.17-.03-.25-.05-3.75-.69-7.4,1.72-8.23,5.47,0,0,.1.14.31.36.85-3.72,4.48-6.1,8.21-5.42Z"/>
            </g>
            <g class="cls-15">
              <g>
                <ellipse class="cls-19" cx="26.23" cy="1.34" rx="1.19" ry=".6" transform="translate(-.03 1.94) rotate(-4.24)"/>
                <ellipse class="cls-19" cx="26.36" cy="2.29" rx=".5" ry=".28" transform="translate(-.1 1.96) rotate(-4.24)"/>
              </g>
            </g>
          </g>
          <g>
            <g>
              <path class="cls-5" d="M26.8,15.59c-.31,0-.63-.02-.95-.06-.21-.02-.43-.06-.66-.11-1.23-.27-2.38-.86-3.32-1.7-1.42-1.29-2.29-3.04-2.43-4.95-.03-.36-.03-.75,0-1.12,0-.1.07-.18.16-.21.03-.01.06-.02.09-.02.07,0,.13.03.18.07.03.03.08.09.14.16.35.39.96,1.03,1.86,1.67,1.35.97,3.59,2.13,6.56,2.13h0c.35,0,.71-.02,1.08-.05,1.26-.11,2.55-.43,3.86-.95.03-.01.06-.02.09-.02.06,0,.13.03.18.07.07.07.09.18.06.27-.02.06-.05.11-.07.16-.07.17-.14.35-.23.53-1.22,2.51-3.8,4.13-6.59,4.13Z"/>
              <path class="cls-28" d="M19.68,7.67s.11.12.19.21c.31.35.93.99,1.84,1.64,1.49,1.07,3.75,2.18,6.71,2.18.36,0,.72-.02,1.1-.05,1.21-.11,2.52-.41,3.93-.97-.02.05-.04.1-.06.14-.07.18-.14.35-.23.52-1.18,2.43-3.66,4-6.37,4-.3,0-.61-.02-.91-.06-.21-.02-.42-.06-.64-.11-1.24-.27-2.33-.85-3.21-1.64-1.35-1.22-2.21-2.93-2.35-4.78-.03-.35-.03-.72,0-1.08M19.68,7.17c-.06,0-.12.01-.17.03-.18.07-.31.23-.33.43-.03.39-.03.79,0,1.16.15,1.96,1.04,3.78,2.51,5.11.97.87,2.16,1.48,3.44,1.76.27.06.49.1.7.12.31.04.64.06.96.06,2.88,0,5.55-1.68,6.82-4.28.09-.17.16-.35.25-.56,0,0,.03-.07.06-.14.07-.19.03-.4-.11-.54-.1-.1-.22-.15-.35-.15-.06,0-.12.01-.18.04-1.28.51-2.56.82-3.79.94-.35.03-.71.05-1.06.05-2.9,0-5.09-1.13-6.42-2.09-.88-.63-1.48-1.25-1.76-1.57l-.04-.05c-.07-.08-.13-.15-.17-.18-.1-.1-.22-.15-.35-.15h0Z"/>
            </g>
            <path class="cls-16" d="M33.45,10.68c-1.13,3.09-4.27,5.02-7.56,4.59-.21-.02-.43-.06-.64-.11-1.24-.27-2.33-.85-3.21-1.64-1-1.61-.78-3.02-.32-4.01,1.67,1.2,4.31,2.45,7.81,2.13,1.21-.11,2.52-.41,3.93-.97Z"/>
            <g>
              <path class="cls-21" d="M24.92,12.93c-.32,0-.65-.06-.99-.17-1.79-.6-1.68-2.01-1.68-2.02-.62-.29-1.29-.84-1.88-1.33-.25-.21-.5-.41-.73-.59-.06-.41-.06-.78-.03-1.15,0-.03.02-.05.05-.06,0,0,.02,0,.03,0,.02,0,.04,0,.05.02.03.03.08.08.13.15.42.47,1.02,1.08,1.89,1.69,1.38.99,3.65,2.17,6.66,2.17h0c.36,0,.72-.02,1.1-.05,1.27-.12,2.59-.44,3.91-.96,0,0,.02,0,.03,0,.02,0,.04,0,.05.02.02.02.03.05.02.08-.02.05-.04.1-.06.15-.07.18-.14.35-.23.52-2.04.76-3.97.92-5.24.92-.87,0-1.42-.07-1.45-.08.04.01-.51.72-1.62.72Z"/>
              <path class="cls-28" d="M19.68,7.67s.11.12.19.21c.31.35.93.99,1.84,1.64,1.49,1.07,3.75,2.18,6.71,2.18.36,0,.73-.02,1.1-.05,1.21-.11,2.52-.41,3.93-.97-.02.05-.04.1-.06.14-.07.18-.14.35-.23.52-1.99.73-3.92.88-5.17.88-.89,0-1.44-.08-1.44-.08,0,0-.54.72-1.63.72-.29,0-.61-.05-.97-.17-1.76-.59-1.63-1.94-1.63-1.94-.93-.51-1.86-1.39-2.64-1.99-.03-.35-.03-.72,0-1.08M19.68,7.52s-.03,0-.05,0c-.05.02-.09.07-.1.13-.03.37-.03.75,0,1.11,0,.04.02.08.06.11.23.18.48.38.73.59.57.47,1.21,1,1.85,1.37.01.34.17,1.47,1.73,2,.35.12.69.18,1.02.18.96,0,1.52-.52,1.7-.71.19.02.68.07,1.38.07,1.27,0,3.21-.15,5.22-.88.03-.01.06-.04.08-.07.09-.17.16-.34.24-.54.02-.03.04-.08.06-.14.02-.06,0-.12-.03-.16-.03-.03-.07-.04-.11-.04-.02,0-.04,0-.06.01-1.31.52-2.62.85-3.89.96-.36.03-.73.05-1.09.05-2.99,0-5.25-1.17-6.62-2.15-.91-.65-1.53-1.29-1.82-1.62l-.04-.05c-.06-.07-.12-.13-.15-.17-.03-.03-.07-.04-.11-.04h0Z"/>
            </g>
            <path class="cls-16" d="M33.45,10.68c-.93,2.52-3.19,4.27-5.78,4.6-.58.08-1.18.08-1.78,0,1.61-.89,2.93-2.07,3.64-3.63.8-.07,1.65-.23,2.54-.49.45-.13.91-.29,1.39-.47Z"/>
            <path class="cls-12" d="M33.45,10.68c-.93,2.52-3.19,4.27-5.78,4.6,1.6-.79,2.98-1.83,3.87-3.21.2-.31.37-.61.52-.92.45-.13.91-.29,1.39-.47Z"/>
            <g class="cls-15">
              <path class="cls-19" d="M26.09,14.69c-.21-.02-.43-.06-.64-.11-1.24-.27-2.33-.85-3.21-1.64-1.43-1.28-2.3-3.1-2.37-5.06-.08-.09-.14-.16-.18-.21-.18,2.26.73,4.41,2.35,5.86.88.79,1.97,1.37,3.21,1.64.21.05.43.08.64.11,3.29.42,6.43-1.51,7.56-4.59-.02,0-.04.02-.06.02-1.3,2.72-4.24,4.38-7.3,3.98Z"/>
            </g>
          </g>
          <g>
            <g>
              <path class="cls-7" d="M24.84,12.02c-.15,0-.3-.02-.45-.05-1.05-.23-1.74-1.21-1.62-2.27,0-.06.02-.13.03-.2.21-.95,1.06-1.63,2.03-1.63.15,0,.3.02.45.05.4.09.76.29,1.04.58.49.5.69,1.21.54,1.9-.21.95-1.06,1.63-2.03,1.63Z"/>
              <path class="cls-24" d="M24.83,7.97c.14,0,.28.02.43.05.39.09.73.28.99.55.44.46.66,1.12.51,1.8-.2.92-1.02,1.55-1.92,1.55-.14,0-.28-.01-.42-.05-1-.22-1.65-1.16-1.53-2.15,0-.06.02-.13.03-.19.2-.92,1.02-1.55,1.92-1.55M24.83,7.75c-1.02,0-1.91.72-2.13,1.72-.02.08-.03.15-.04.22-.13,1.11.6,2.14,1.7,2.38.15.03.31.05.47.05,1.02,0,1.91-.72,2.13-1.72.16-.72-.05-1.46-.57-2-.3-.31-.68-.52-1.1-.61-.16-.03-.31-.05-.47-.05h0Z"/>
            </g>
            <path class="cls-4" d="M26.36,10.27c-.01.07-.03.13-.06.19-.26.73-1.03,1.17-1.8,1-.84-.19-1.38-1.02-1.19-1.86.12-.54.5-.95.98-1.13.27-.1.58-.13.88-.06.84.19,1.37,1.02,1.19,1.86Z"/>
            <path class="cls-18" d="M26.3,10.46c-.26.73-1.03,1.17-1.8,1-.84-.19-1.38-1.02-1.19-1.86.12-.54.5-.95.98-1.13-.14.78.15,1.68,2.01,1.99Z"/>
            <g>
              <g>
                <path class="cls-3" d="M25.7,10.13c-.1.48-.58.77-1.05.67s-.78-.57-.67-1.05c.02-.08.04-.15.08-.22.18-.35.57-.55.97-.46.31.07.55.29.64.57.05.15.07.32.03.48Z"/>
                <path class="cls-2" d="M24.84,9.05c.06,0,.13,0,.19.02.31.07.55.29.64.57.05.15.07.32.03.48-.09.41-.46.69-.86.69-.06,0-.13,0-.19-.02-.48-.1-.78-.57-.67-1.05.02-.08.04-.15.08-.22.15-.29.45-.48.78-.48M24.84,8.95h0c-.36,0-.71.21-.87.53-.04.08-.07.16-.09.24-.06.26,0,.52.13.74.14.22.36.37.62.43.07.02.14.02.21.02.46,0,.86-.32.96-.77.04-.18.03-.37-.03-.54-.11-.32-.38-.56-.72-.64-.07-.02-.14-.02-.21-.02h0Z"/>
              </g>
              <path class="cls-27" d="M25.7,10.13c-.1.48-.58.77-1.05.67s-.78-.57-.67-1.05c.02-.08.04-.15.08-.22.2.18.52.37,1.01.36.23,0,.43-.1.6-.25.05.15.07.32.03.48Z"/>
              <ellipse class="cls-19" cx="24.74" cy="9.79" rx=".08" ry=".12" transform="translate(9.86 31.85) rotate(-77.58)"/>
              <path class="cls-27" d="M24.71,10.52c-.43-.09-.71-.48-.69-.91-.02.04-.03.09-.05.14-.1.48.2.95.67,1.05s.95-.19,1.05-.67c.01-.05.02-.1.02-.15-.16.39-.58.63-1.01.54Z"/>
              <ellipse class="cls-19" cx="24.93" cy="9.36" rx=".3" ry=".42" transform="translate(10.43 31.7) rotate(-77.58)"/>
            </g>
            <g class="cls-15">
              <path class="cls-19" d="M25.17,8.41c-.3-.07-.61-.04-.88.06-.48.18-.86.59-.98,1.13-.19.84.35,1.67,1.19,1.86.77.17,1.55-.27,1.8-1,.03-.06.04-.12.06-.19.19-.84-.35-1.68-1.19-1.86ZM26.19,10.42c-.24.68-.95,1.08-1.67.93-.78-.17-1.27-.94-1.1-1.72.11-.5.46-.88.91-1.04.25-.09.53-.12.82-.06.78.17,1.27.94,1.1,1.72-.01.06-.03.12-.05.17Z"/>
            </g>
          </g>
        </g>
      </g>
    </g>
  </g>
</svg>