<?xml version="1.0" encoding="UTF-8"?>
<svg xmlns="http://www.w3.org/2000/svg" xmlns:xlink="http://www.w3.org/1999/xlink" viewBox="0 0 44.83 28.18">
  <defs>
    <style>
      .cls-1 {
        fill: #a82a12;
      }

      .cls-2 {
        fill: url(#radial-gradient-2);
      }

      .cls-3 {
        fill: url(#linear-gradient-8);
      }

      .cls-4 {
        fill: url(#linear-gradient-7);
      }

      .cls-5 {
        fill: url(#linear-gradient-5);
      }

      .cls-6 {
        fill: url(#linear-gradient-6);
      }

      .cls-7 {
        fill: url(#linear-gradient-9);
      }

      .cls-8 {
        fill: url(#linear-gradient-2);
      }

      .cls-9 {
        fill: url(#radial-gradient);
      }

      .cls-10 {
        fill: #85210e;
      }

      .cls-11 {
        isolation: isolate;
      }

      .cls-12 {
        fill: url(#linear-gradient);
      }

      .cls-12, .cls-13, .cls-14, .cls-15, .cls-16, .cls-17, .cls-18, .cls-19, .cls-20 {
        mix-blend-mode: overlay;
      }

      .cls-21 {
        fill: #ffc73d;
      }

      .cls-13 {
        fill: url(#linear-gradient-3);
      }

      .cls-14 {
        fill: url(#linear-gradient-4);
      }

      .cls-22 {
        fill: #f3b826;
      }

      .cls-23 {
        fill: #262a2b;
      }

      .cls-24 {
        fill: #141617;
      }

      .cls-25 {
        fill: #fff;
      }

      .cls-15 {
        fill: url(#linear-gradient-10);
      }

      .cls-16 {
        fill: url(#linear-gradient-12);
      }

      .cls-17 {
        fill: url(#linear-gradient-11);
      }

      .cls-26 {
        fill: #ffb026;
      }

      .cls-19, .cls-27 {
        opacity: .54;
      }

      .cls-20 {
        opacity: .79;
      }

      .cls-27 {
        fill: #a0a0a0;
        mix-blend-mode: multiply;
      }

      .cls-28 {
        fill: #d96518;
      }
    </style>
    <linearGradient id="linear-gradient" x1="-2.05" y1="358.08" x2="-1.83" y2="384.53" gradientTransform="translate(-99.84 -340.93) rotate(-18.1)" gradientUnits="userSpaceOnUse">
      <stop offset=".15" stop-color="#fff"/>
      <stop offset=".15" stop-color="#fff" stop-opacity=".98"/>
      <stop offset=".27" stop-color="#fff" stop-opacity=".69"/>
      <stop offset=".38" stop-color="#fff" stop-opacity=".44"/>
      <stop offset=".48" stop-color="#fff" stop-opacity=".25"/>
      <stop offset=".57" stop-color="#fff" stop-opacity=".11"/>
      <stop offset=".64" stop-color="#fff" stop-opacity=".03"/>
      <stop offset=".69" stop-color="#fff" stop-opacity="0"/>
    </linearGradient>
    <linearGradient id="linear-gradient-2" x1="24.12" y1="-109.89" x2="26.23" y2="-93.22" gradientTransform="translate(3.9 116.27) rotate(4.56)" gradientUnits="userSpaceOnUse">
      <stop offset=".17" stop-color="#ff432f"/>
      <stop offset="1" stop-color="#d64339"/>
    </linearGradient>
    <linearGradient id="linear-gradient-3" x1="24.88" y1="-101.16" x2="25.3" y2="-96.78" gradientTransform="translate(3.9 116.27) rotate(4.56)" gradientUnits="userSpaceOnUse">
      <stop offset=".3" stop-color="#fdd1d5" stop-opacity="0"/>
      <stop offset=".36" stop-color="#fdd1d5" stop-opacity=".01"/>
      <stop offset=".42" stop-color="#fdd3d7" stop-opacity=".06"/>
      <stop offset=".47" stop-color="#fdd7da" stop-opacity=".14"/>
      <stop offset=".52" stop-color="#fddcdf" stop-opacity=".24"/>
      <stop offset=".58" stop-color="#fde2e4" stop-opacity=".38"/>
      <stop offset=".63" stop-color="#feeaec" stop-opacity=".55"/>
      <stop offset=".68" stop-color="#fef3f4" stop-opacity=".75"/>
      <stop offset=".73" stop-color="#fefdfd" stop-opacity=".97"/>
      <stop offset=".74" stop-color="#fff"/>
    </linearGradient>
    <linearGradient id="linear-gradient-4" x1="25.5" y1="-100.52" x2="24.09" y2="-109.86" xlink:href="#linear-gradient-3"/>
    <linearGradient id="linear-gradient-5" x1="26.76" y1="-99.89" x2="32.13" y2="-99.89" gradientTransform="translate(3.9 116.27) rotate(4.56)" gradientUnits="userSpaceOnUse">
      <stop offset=".17" stop-color="#242529"/>
      <stop offset="1" stop-color="#252429"/>
    </linearGradient>
    <linearGradient id="linear-gradient-6" x1="17.8" y1="-100.75" x2="20.42" y2="-100.75" xlink:href="#linear-gradient-5"/>
    <linearGradient id="linear-gradient-7" x1="28.08" y1="-100.39" x2="31.97" y2="-100.39" xlink:href="#linear-gradient-2"/>
    <linearGradient id="linear-gradient-8" x1="18.05" y1="-100.83" x2="20.03" y2="-100.83" xlink:href="#linear-gradient-2"/>
    <linearGradient id="linear-gradient-9" x1="-68.91" y1="-375.49" x2="-67.4" y2="-370.96" gradientTransform="translate(20.16 399.29) rotate(16.97) scale(1 .99) skewX(4.35)" gradientUnits="userSpaceOnUse">
      <stop offset=".26" stop-color="#31312f"/>
      <stop offset=".48" stop-color="#252429"/>
      <stop offset=".98" stop-color="#252429"/>
    </linearGradient>
    <radialGradient id="radial-gradient" cx="59.96" cy="-99.32" fx="59.96" fy="-99.32" r="3.89" gradientTransform="translate(-24.38 113.3) rotate(4.53) scale(.98 1) skewX(4.38)" gradientUnits="userSpaceOnUse">
      <stop offset="0" stop-color="#e3483f"/>
      <stop offset=".98" stop-color="#8c2d27"/>
    </radialGradient>
    <radialGradient id="radial-gradient-2" cx="-68.16" cy="-373.22" fx="-68.16" fy="-373.22" r="1.1" gradientTransform="translate(26.54 370.63) rotate(16.97) scale(1 .91) skewX(4.01)" xlink:href="#radial-gradient"/>
    <linearGradient id="linear-gradient-10" x1="32.37" y1="-98.03" x2="24.06" y2="-105.28" gradientTransform="translate(3.9 116.27) rotate(4.56)" gradientUnits="userSpaceOnUse">
      <stop offset=".3" stop-color="#fdd1d5" stop-opacity="0"/>
      <stop offset=".4" stop-color="#fdd1d5" stop-opacity=".01"/>
      <stop offset=".48" stop-color="#fdd3d7" stop-opacity=".06"/>
      <stop offset=".57" stop-color="#fdd7da" stop-opacity=".14"/>
      <stop offset=".66" stop-color="#fddcdf" stop-opacity=".24"/>
      <stop offset=".74" stop-color="#fde2e4" stop-opacity=".38"/>
      <stop offset=".82" stop-color="#feeaec" stop-opacity=".55"/>
      <stop offset=".91" stop-color="#fef3f4" stop-opacity=".75"/>
      <stop offset=".99" stop-color="#fefdfd" stop-opacity=".97"/>
      <stop offset="1" stop-color="#fff"/>
    </linearGradient>
    <linearGradient id="linear-gradient-11" x1="19.98" y1="-106.15" x2="22.32" y2="-107.42" gradientTransform="translate(-32.63 97.63) rotate(26.12)" xlink:href="#linear-gradient-3"/>
    <linearGradient id="linear-gradient-12" x1="20.49" y1="-105.21" x2="22.83" y2="-106.49" gradientTransform="translate(-32.31 97.26) rotate(26.12)" xlink:href="#linear-gradient-3"/>
  </defs>
  <g class="cls-11">
    <g id="Layer_2" data-name="Layer 2">
      <g id="Layer_1-2" data-name="Layer 1">
        <g>
          <g>
            <path class="cls-22" d="M9.5,27.39s-.17-.01-.21-.02c-1.19-.2-1.53-1.9-1.88-3.7-.07-.37-.17-.86-.24-1.08-.21-.1-.7-.23-1.03-.32-1.16-.31-2.35-.63-2.77-1.48-.54-1.11.64-2.1,1.58-2.9.02-.01.03-.03.05-.04-.05,0-.1-.02-.15-.03-1-.18-1.86-.34-2.09-1.07-.26-.79.43-1.36,1.11-1.79-2.03-1.48-3.41-2.62-2.98-3.73.38-1.01,1.97-1.26,4.18-1.49.09,0,.18-.02.25-.03-.01-.05-.03-.1-.04-.14-.17-.56-.32-1.03-.13-1.47.05-.13.21-.54,1.25-.94-2.2-4.9-1.67-5.19-1.12-5.5.16-.09.34-.13.55-.13.75,0,2.43.7,3.43,1.15,1.27-1.67,1.66-1.79,1.83-1.85.08-.03.19-.04.27-.04.33,0,.77,0,2.08,2.1,1.46-1.6,1.81-1.66,2.03-1.69.04,0,.09,0,.13,0,.35,0,.81,0,1.56,1.84.62-.33,1.31-.65,1.76-.65.2,0,.38.05.53.14.37.22.71.44.53,4.68,1.94.11,3.07.53,3.38,1.24.28.62.19,1.51.07,2.13,1.91.85,2.95,1.66,3.09,2.4.18.88-.61,1.61-1.61,2.28,1.17.85,2.39,1.99,2.48,3.28.03.44-.11.85-.41,1.19-.74.82-2.3,1.04-3.96,1.11.29,1.21.57,3.04-.87,3.45-.19.05-.4.08-.62.08h0c-.86,0-1.82-.41-2.58-.76h0c.06,1.12.08,1.77-.3,2.18-.15.16-.44.29-.65.29-.41,0-.82-.19-1.41-.48-.07-.03-.15-.07-.23-.11-.33.47-.84,1.13-1.65,1.13-.24,0-.47-.06-.69-.18-.57-.31-.97-.79-1.29-1.16-.05-.05-.1-.11-.15-.17-.15.15-.33.34-.48.5-.83.88-1.69,1.79-2.61,1.79ZM18.02,16.92c.44.63,1.23,1.43,1.74,1.43.31-.08.6-.21.67-.46.07-.24-.04-.56-.29-.83,0,0-.21-.2-1.12-.2-.34,0-.7.03-1.01.06ZM10.19,16.92c-.57,0-1.04.1-1.38.29-.25.14-.34.32-.29.54.05.2.25.42.56.42.06,0,.13,0,.2-.03.62-.16,1.22-.71,1.6-1.18-.21-.03-.45-.04-.69-.04ZM12.94,9.4c-.06,0-.16.01-.24.12-.13.18-.13.54.01.98.15.46.45.85.74,1.13.15-.74.19-1.65-.27-2.11-.07-.07-.16-.11-.25-.11Z"/>
            <path class="cls-21" d="M11.37,1.58c.44,0,1.96,2.64,1.96,2.64,0,0,1.89-2.18,2.26-2.24,0,0,0,0,.01,0,.38,0,1.14,2.2,1.14,2.2,0,0,1.63-1.01,2.18-1.01.05,0,.09,0,.12.03.35.21.12,4.77.12,4.77,0,0,3.16.05,3.48.8.33.74-.14,2.28-.14,2.28,0,0,3.08,1.27,3.24,2.09.17.81-2.26,2.03-2.26,2.1,0,.07,3,1.72,3.12,3.36.12,1.65-4.48,1.41-4.57,1.49-.09.09,1.08,3.1-.1,3.44-.12.04-.26.05-.4.05-1.19,0-2.93-1.1-3.28-1.1-.01,0-.02,0-.03,0-.28.09.24,2.8-.23,2.81-.44,0-1.52-.71-1.85-.71-.02,0-.03,0-.04,0-.22.07-.7,1.26-1.37,1.26-.1,0-.2-.03-.31-.09-.84-.46-1.29-1.47-1.76-1.61-.01,0-.02,0-.03,0-.49,0-2.13,2.47-3.11,2.47-.03,0-.06,0-.09,0-.98-.16-1.24-3.94-1.6-4.49-.36-.55-3.28-.73-3.74-1.66-.45-.94,2.45-2.47,2.26-2.94-.18-.47-2.65-.45-2.83-.99-.18-.54,1.72-1.32,1.68-1.52-.06-.2-3.92-2.58-3.57-3.47.34-.89,4.12-.96,4.49-1.13.38-.17-.4-1.59-.24-1.97.15-.39,1.61-.78,1.61-.78,0,0-2.32-5.01-1.82-5.29.04-.02.1-.03.17-.03.84,0,3.68,1.34,3.68,1.34,0,0,1.43-1.96,1.83-2.09,0,0,.02,0,.03,0M13.9,12.85s.01,0,.02,0c0,0,1.06-2.65-.17-3.9-.22-.23-.52-.34-.81-.34-.72,0-1.44.69-.98,2.12.43,1.3,1.69,2.12,1.94,2.12M19.77,19.14c.1,0,.19-.01.29-.04,1.42-.4,1.48-1.69.69-2.57-.32-.36-1-.46-1.71-.46-1.03,0-2.1.23-2.1.23-.25.32,1.45,2.85,2.83,2.85M9.08,18.96c.13,0,.26-.02.39-.05,1.54-.39,2.72-2.31,2.58-2.52,0,0-.87-.27-1.87-.27-.59,0-1.23.09-1.77.39-1.31.74-.64,2.44.66,2.44M11.37,0h0c-.14,0-.31.02-.45.06-.02,0-.05.01-.07.02-.29.1-.71.23-1.83,1.63-1.19-.51-2.45-.97-3.19-.97-.35,0-.67.08-.95.24-1.34.75-1.12,2.19.47,5.81-.71.42-.87.83-.96,1.05-.17.39-.16.8-.09,1.19-2.14.25-3.68.62-4.17,1.93-.57,1.49.79,2.78,2.43,4.02-.5.5-.84,1.16-.56,2.01.23.69.75,1.06,1.36,1.28-.71.77-1.25,1.74-.72,2.85.59,1.19,2.02,1.57,3.28,1.91.17.05.39.1.57.16.04.2.09.43.13.63.39,1.99.8,4.04,2.53,4.33.12.02.23.03.34.03,1.2,0,2.15-.95,3.06-1.91.29.3.64.62,1.08.86.34.19.7.28,1.07.28.85,0,1.46-.47,1.88-.94.46.21.91.38,1.38.39.5,0,.93-.2,1.25-.55.38-.41.51-.92.54-1.52.57.2,1.17.35,1.76.35.29,0,.58-.04.84-.11,1.68-.48,1.79-2.13,1.6-3.48,1.48-.13,2.83-.46,3.6-1.31.45-.49.66-1.13.62-1.78-.09-1.26-.94-2.32-1.97-3.2.73-.64,1.29-1.46,1.09-2.46-.08-.39-.27-1.37-2.99-2.7.07-.65.05-1.38-.22-1.99-.16-.38-.57-1.32-3.28-1.64.12-3.8-.24-4.21-.94-4.63-.28-.17-.61-.26-.95-.26-.16,0-.55,0-1.37.36-.57-1.13-1.14-1.56-1.94-1.56h0c-.08,0-.17,0-.25.02-.35.05-.71.1-1.8,1.2C12.52.14,11.97,0,11.37,0h0Z"/>
          </g>
          <g>
            <path class="cls-26" d="M9.37,26.89c-.79-.13-1.11-1.46-1.48-3.31-.1-.52-.23-1.17-.32-1.31-.1-.14-.83-.34-1.3-.46-1.05-.28-2.13-.57-2.46-1.23-.37-.76.6-1.58,1.46-2.31.26-.22.6-.51.73-.68-.21-.1-.73-.19-1.06-.25-.88-.16-1.57-.29-1.72-.74-.19-.57.58-1.04,1.26-1.45.08-.05.17-.1.25-.16-.13-.1-.3-.22-.46-.34-2.12-1.54-3.22-2.52-2.94-3.24.28-.75,1.88-.98,3.77-1.18.3-.03.64-.07.8-.1,0-.16-.11-.49-.17-.7-.14-.46-.26-.86-.15-1.13.15-.37.88-.67,1.47-.85-2.27-4.96-1.78-5.23-1.54-5.36.08-.05.19-.07.32-.07.76,0,2.86.93,3.59,1.27.57-.77,1.44-1.87,1.83-2,.03,0,.09-.02.12-.02.14,0,.57,0,2.01,2.43,1.14-1.3,1.87-1.98,2.17-2.02h.03c.22,0,.62.08,1.33,2.05.54-.32,1.54-.86,2.02-.86.11,0,.2.02.28.07.15.09.49.3.28,4.73,1.01.04,3.11.2,3.44.97.29.65.08,1.72-.05,2.22.94.41,3.02,1.38,3.18,2.21.16.75-.94,1.51-2.02,2.17,1.23.82,2.78,2.03,2.88,3.33.02.31-.07.59-.29.82-.7.78-2.49.92-4.15.97-.02,0-.05,0-.07,0,0,.03.02.06.02.09.26.98.79,3.01-.4,3.35-.15.04-.31.06-.48.06h0c-.84,0-1.86-.47-2.61-.82-.16-.08-.35-.16-.49-.22,0,.21.01.54.03.8.06,1.05.06,1.57-.17,1.81-.05.06-.22.14-.3.14-.29,0-.66-.17-1.19-.43-.19-.09-.47-.23-.61-.27-.05.06-.11.15-.16.22-.28.41-.71,1.02-1.32,1.02-.15,0-.31-.04-.46-.12-.49-.27-.86-.7-1.15-1.05-.21-.24-.42-.49-.55-.53-.06.05-.49.5-.8.83-.73.77-1.55,1.64-2.25,1.64-.02,0-.12,0-.13-.01ZM17.24,16.54c.23.63,1.52,2.3,2.52,2.3.07,0,.14,0,.2-.03.51-.14.83-.41.94-.79.12-.4-.03-.9-.39-1.3-.21-.23-.73-.36-1.48-.36-.7,0-1.42.11-1.79.17ZM10.19,16.43c-.65,0-1.2.12-1.62.35-.44.25-.64.66-.52,1.09.1.38.47.79,1.04.79.1,0,.21-.01.32-.04,1.12-.28,2.05-1.49,2.3-2.01-.32-.07-.89-.18-1.51-.18ZM12.94,8.91c-.25,0-.49.12-.63.32-.23.31-.25.82-.06,1.41.3.93,1.09,1.59,1.49,1.82.22-.67.66-2.42-.2-3.3-.16-.16-.37-.25-.6-.25Z"/>
            <path class="cls-28" d="M11.37,1.58c.44,0,1.96,2.64,1.96,2.64,0,0,1.89-2.18,2.26-2.24,0,0,0,0,.01,0,.38,0,1.14,2.2,1.14,2.2,0,0,1.63-1.01,2.18-1.01.05,0,.09,0,.12.03.35.21.12,4.77.12,4.77,0,0,3.16.05,3.48.8.33.74-.14,2.28-.14,2.28,0,0,3.08,1.27,3.24,2.09.17.81-2.26,2.03-2.26,2.1,0,.07,3,1.72,3.12,3.36.12,1.65-4.48,1.41-4.57,1.49-.09.09,1.08,3.1-.1,3.44-.12.04-.26.05-.4.05-1.19,0-2.93-1.1-3.28-1.1-.01,0-.02,0-.03,0-.28.09.24,2.8-.23,2.81-.44,0-1.52-.71-1.85-.71-.02,0-.03,0-.04,0-.22.07-.7,1.26-1.37,1.26-.1,0-.2-.03-.31-.09-.84-.46-1.29-1.47-1.76-1.61-.01,0-.02,0-.03,0-.49,0-2.13,2.47-3.11,2.47-.03,0-.06,0-.09,0-.98-.16-1.24-3.94-1.6-4.49-.36-.55-3.28-.73-3.74-1.66-.45-.94,2.45-2.47,2.26-2.94-.18-.47-2.65-.45-2.83-.99-.18-.54,1.72-1.32,1.68-1.52-.06-.2-3.92-2.58-3.57-3.47.34-.89,4.12-.96,4.49-1.13.38-.17-.4-1.59-.24-1.97.15-.39,1.61-.78,1.61-.78,0,0-2.32-5.01-1.82-5.29.04-.02.1-.03.17-.03.84,0,3.68,1.34,3.68,1.34,0,0,1.43-1.96,1.83-2.09,0,0,.02,0,.03,0M13.9,12.85s.01,0,.02,0c0,0,1.06-2.65-.17-3.9-.22-.23-.52-.34-.81-.34-.72,0-1.44.69-.98,2.12.43,1.3,1.69,2.12,1.94,2.12M19.77,19.14c.1,0,.19-.01.29-.04,1.42-.4,1.48-1.69.69-2.57-.32-.36-1-.46-1.71-.46-1.03,0-2.1.23-2.1.23-.25.32,1.45,2.85,2.83,2.85M9.08,18.96c.13,0,.26-.02.39-.05,1.54-.39,2.72-2.31,2.58-2.52,0,0-.87-.27-1.87-.27-.59,0-1.23.09-1.77.39-1.31.74-.64,2.44.66,2.44M11.37.98h0c-.05,0-.13.01-.19.03-.16.05-.55.18-1.86,1.92-.91-.41-2.73-1.19-3.49-1.19-.18,0-.33.04-.46.11-.44.25-.94.53,1.28,5.44-.75.27-1.2.58-1.34.93-.15.36-.02.81.14,1.33.03.1.07.23.1.36-.15.02-.32.03-.48.05-2.07.22-3.68.46-4.03,1.38-.35.92.7,1.89,3.04,3.59.03.02.07.05.1.07-.71.43-1.51.97-1.26,1.72.2.62,1.01.77,1.95.94.15.03.35.06.54.1-.12.1-.24.21-.35.3-.89.75-2,1.69-1.53,2.66.39.78,1.54,1.09,2.65,1.39.39.1.96.26,1.14.37.07.18.18.75.27,1.17.33,1.66.67,3.38,1.73,3.55.06,0,.12.01.18.01.83,0,1.66-.88,2.47-1.73.2-.21.45-.48.63-.64.08.09.19.22.28.32.31.37.7.82,1.24,1.12.19.11.4.16.6.16.76,0,1.24-.69,1.56-1.15,0-.01.01-.02.02-.03.11.05.26.12.37.18.56.27.96.45,1.31.46.21,0,.39-.09.53-.23.32-.35.31-.97.25-2.03,0-.1-.01-.21-.02-.32.02,0,.04.02.06.03.77.36,1.83.84,2.73.84.2,0,.39-.03.57-.07,1.36-.39.97-2.31.68-3.45,1.63-.06,3.33-.25,4.06-1.06.27-.3.39-.66.37-1.05-.1-1.29-1.43-2.45-2.63-3.3,1.02-.66,1.93-1.41,1.76-2.24-.17-.86-1.86-1.76-3.12-2.32.13-.6.26-1.53-.03-2.17-.34-.79-1.92-1.06-3.4-1.13.19-4.31-.14-4.52-.43-4.7-.13-.08-.27-.12-.44-.12-.46,0-1.25.38-1.86.73-.74-1.92-1.17-1.92-1.46-1.92-.03,0-.07,0-.1,0-.17.03-.52.08-2.08,1.81-1.36-2.22-1.79-2.22-2.05-2.22h0ZM13.57,11.98c-.36-.29-.82-.78-1.03-1.43-.16-.49-.15-.91.01-1.14.12-.17.3-.19.39-.19.14,0,.28.06.38.16.59.6.46,1.79.25,2.61h0ZM17.7,16.77c.37-.05.86-.1,1.33-.1.98,0,1.22.22,1.26.26.29.33.42.71.33,1.02-.1.34-.45.5-.73.58-.04.01-.08.02-.13.02-.68,0-1.65-1.09-2.06-1.77h0ZM9.08,18.36c-.41,0-.68-.29-.75-.56-.05-.18-.06-.51.38-.75.37-.21.87-.31,1.47-.31.38,0,.74.04,1.04.09-.37.53-1.09,1.3-1.9,1.5-.08.02-.17.03-.25.03h0Z"/>
          </g>
          <path class="cls-12" d="M24.63,13.2c-.22-.42-2.94-1.82-3.01-1.85-.06-.02.37-1.65.07-2.14-.31-.5-3.17-.59-3.29-.74-.1-.15.17-3.99-.14-4.25-.32-.25-1.69,1.06-1.82,1.03-.13-.03-.59-1.86-.95-2.1-.35-.25-2.05,2.29-2.13,2.25-.07-.03-1.46-2.44-1.77-2.6-.32-.16-1.69,1.87-1.85,1.92s-3.06-1.5-3.27-1.22c-.21.29,1.92,4.66,1.82,4.74-.1.08-1.4.31-1.56.73-.15.41.43,1.48.29,1.8-.14.32-4.14.44-4.21,1.06-.08.62,3.7,2.63,3.79,3.06.09.41-1.51.64-1.55,1.12-.05.5,2.19.88,2.39,1.26.2.39-2.44,1.99-2.11,2.48.33.48,3.6,1.33,3.6,1.33,0,0,.54,3.8,1.34,3.88.81.08,1.93-2.19,2.2-2.19.28,0,1.74,1.55,2.17,1.63.42.07.92-1.07,1.2-1.16s1.2.59,1.54.59c.35,0-.03-2.48.12-2.53s2.97,1.35,3.45,1.06c.48-.29.12-3.02.17-3.07.04-.04,4.28-.53,4.09-1.39-.18-.86-2.9-2.72-2.9-2.84-.01-.11,2.53-1.44,2.31-1.85ZM9.75,18.55c-1.45.36-2.33-1.48-.99-2.24,1.35-.75,3.41-.12,3.41-.12.14.19-.98,2-2.42,2.36ZM13.92,12.86c-.19.04-1.43-.73-1.84-1.98-.61-1.89.96-2.41,1.67-1.67,1.15,1.17.16,3.65.16,3.65ZM19.67,18.72c-1.33.38-3.18-2.32-2.93-2.63,0,0,2.84-.6,3.57.22.74.83.69,2.04-.64,2.41Z"/>
        </g>
        <g>
          <g>
            <path class="cls-8" d="M36.99,24.5c-.21,0-.41,0-.62-.02-3.12-.25-5.75-2.33-6.71-5.31l-.07-.21c-.02-.08-.04-.29,0-.35.25-.32.59-.87.76-1.72.18-.87-.18-1.57-.41-1.9-.08-.12-.15-.21-.19-.25-.06-.07-.12-.21-.1-.29,1.03-3.18,3.97-5.31,7.3-5.31.2,0,.41,0,.62.02.5.04,1,.13,1.48.27,2.88.81,5.04,3.25,5.5,6.22.01.09-.02.17-.08.23-.03.03-.1.08-.18.17-.1.1-.24.25-.37.44-.3.44-.44.94-.42,1.46.04.86.28,1.45.47,1.8.04.07.04.15,0,.22-.13.3-.29.59-.46.87-1.39,2.27-3.9,3.69-6.55,3.69Z"/>
            <path class="cls-10" d="M36.97,9.36c.2,0,.4,0,.6.02.5.04.97.13,1.43.26,2.8.79,4.88,3.16,5.32,6.02-.03.03-.1.09-.19.17-.11.11-.26.27-.4.48-.26.38-.49.93-.46,1.61.04.87.27,1.5.5,1.91-.13.29-.28.57-.44.83-1.32,2.16-3.69,3.57-6.34,3.57-.2,0-.4,0-.6-.02-3.09-.25-5.59-2.36-6.49-5.14-.02-.07-.04-.14-.06-.21-.01-.04-.02-.09-.03-.13.29-.37.63-.96.81-1.83.2-.94-.17-1.69-.44-2.1-.08-.13-.16-.22-.21-.28l-.03-.03-.02-.02c.98-3.01,3.81-5.14,7.06-5.14M36.97,8.86h0c-3.44,0-6.47,2.2-7.54,5.48-.05.17-.02.35.09.48,0,0,.04.04.04.05.04.05.11.13.18.23.25.37.52.97.37,1.72-.17.8-.48,1.32-.71,1.62-.1.13-.13.29-.09.45v.05s.03.07.03.07c.02.08.04.15.07.23.99,3.07,3.71,5.22,6.92,5.48.21.02.43.03.64.03,2.74,0,5.33-1.46,6.77-3.81.18-.28.34-.58.47-.89.06-.14.06-.31-.02-.44-.18-.32-.4-.88-.44-1.69-.02-.47.11-.91.38-1.31.12-.18.25-.32.34-.41.08-.07.14-.13.17-.15.13-.11.2-.29.17-.46-.47-3.06-2.7-5.59-5.68-6.42-.49-.14-1.01-.24-1.53-.28-.21-.02-.43-.03-.64-.03h0Z"/>
          </g>
          <path class="cls-20" d="M43.27,17.93c.04.87.27,1.5.5,1.91-.08.18-.17.37-.28.54-.05.1-.11.2-.16.29-1.41,2.32-4.05,3.78-6.94,3.55s-5.3-2.11-6.31-4.66c-.07-.16-.12-.32-.18-.48-.02-.07-.04-.14-.06-.21,1.67.31,7.09.91,9.05-3.98.85-2.12.63-3.91.12-5.25,2.8.79,4.88,3.16,5.32,6.02-.08.06-.35.29-.6.66-.26.38-.49.93-.46,1.61Z"/>
          <path class="cls-13" d="M43.49,20.39c-.05.1-.11.2-.16.29-1.41,2.32-4.05,3.78-6.94,3.55s-5.3-2.11-6.31-4.66c.79,1.37,3,4.41,7.01,4.36,3.28-.04,5.34-2.07,6.41-3.54Z"/>
          <path class="cls-14" d="M32.47,18.34s-.38-2.12-.63-2.52-1.25-1.19-1.25-1.19c0,0,1.9-5.34,7.48-4.44,4.67.76,5.52,5.42,5.52,5.42,0,0-.67.98-2.44,1.21s-2.31.53-2.64,1.34-.37,1.25-.37,1.25"/>
          <path class="cls-23" d="M36.53,19.89c-2.68-.21-4.75-1.22-4.78-1.23l.11-.22s3.4,1.65,7.07,1.15l.03.25c-.84.11-1.66.12-2.44.06Z"/>
          <g>
            <path class="cls-5" d="M39.95,21.92c-.26,0-.68-.13-1.01-.51-.28-.31-.59-.88-.49-1.85.19-1.77,1.59-2.31,1.61-2.32,2.07-.15,3.17-.68,3.64-.98.01,0,.02-.01.03-.01.02,0,.03,0,.04.02.02.02.02.05,0,.08-.33.48-.48,1.01-.45,1.57.04.9.29,1.52.49,1.88-.13.35-.28.63-.44.9-1.62,1.02-3.28,1.2-3.35,1.21,0,0-.07,0-.07,0Z"/>
            <path class="cls-24" d="M43.73,16.32c-.26.38-.49.93-.46,1.61.04.87.27,1.5.5,1.91-.13.29-.28.57-.44.83-1.37.86-2.85,1.13-3.3,1.18-.02,0-.04,0-.07,0-.55,0-1.61-.6-1.44-2.28.18-1.75,1.57-2.26,1.57-2.26,2.05-.14,3.16-.67,3.65-.99M43.73,16.2s-.05,0-.07.02c-.47.3-1.55.83-3.59.97-.01,0-.02,0-.03,0-.06.02-1.46.56-1.65,2.37-.1.99.22,1.58.5,1.89.35.39.78.53,1.06.53.03,0,.06,0,.08,0,.07,0,1.75-.18,3.36-1.19.02-.01.03-.02.04-.04.17-.27.32-.56.45-.85.02-.04.01-.08,0-.11-.2-.36-.44-.97-.48-1.86-.02-.55.12-1.07.44-1.54.03-.05.03-.11-.01-.16-.02-.02-.06-.04-.09-.04h0ZM43.73,16.45h0,0Z"/>
          </g>
          <g>
            <path class="cls-6" d="M31.19,20.2c-.43,0-.89-.37-1.35-1.08-.04-.13-.07-.24-.11-.35.27-.39.63-.97.81-1.85.25-1.22-.45-2.11-.67-2.35-.02-.02-.02-.06,0-.09.01-.01.03-.02.04-.02s.03,0,.04.02l1.43,1.4s.9,1.43.75,2.94c-.09.85-.46,1.38-.96,1.38Z"/>
            <path class="cls-24" d="M29.93,14.52l1.43,1.4s.88,1.38.73,2.89c-.08.8-.42,1.32-.9,1.32-.37,0-.82-.31-1.29-1.06-.04-.11-.07-.22-.1-.33.29-.37.63-.96.81-1.83.27-1.31-.54-2.24-.68-2.4M29.93,14.4s-.06.01-.09.03c-.05.05-.05.12,0,.17.22.24.9,1.1.65,2.3-.18.87-.53,1.45-.79,1.77-.02.03-.03.07-.02.11.03.11.06.22.1.34,0,.01,0,.02.01.03.47.73.95,1.11,1.4,1.11.54,0,.93-.55,1.02-1.43.15-1.54-.71-2.91-.75-2.97l-1.45-1.43s-.06-.04-.09-.04h0Z"/>
          </g>
          <g>
            <path class="cls-4" d="M40.22,19.53c-.22-.02-.39-.2-.4-.42,0-.24.18-.44.42-.45.02,0,1.81-.08,2.86-.93.08-.06.17-.1.27-.1.13,0,.26.06.34.16.15.19.12.46-.06.61-1.28,1.04-3.29,1.12-3.38,1.12,0,0-.02,0-.02,0,0,0-.03,0-.03,0Z"/>
            <path class="cls-1" d="M43.37,17.7c.11,0,.22.05.29.14.13.16.11.4-.05.53-1.27,1.03-3.25,1.11-3.34,1.11,0,0,0,0-.01,0-.01,0-.02,0-.03,0-.19-.01-.34-.17-.34-.36,0-.21.15-.38.36-.39.02,0,1.82-.08,2.89-.94.07-.06.15-.08.23-.08M43.37,17.57c-.11,0-.22.04-.31.11-1.04.84-2.8.92-2.82.92-.13,0-.26.06-.35.16-.09.1-.14.22-.13.36,0,.25.21.46.46.48,0,0,.04,0,.04,0,.1,0,2.13-.09,3.43-1.14.1-.08.17-.2.18-.34.01-.13-.02-.26-.11-.37-.1-.12-.24-.18-.39-.18h0Z"/>
          </g>
          <g>
            <path class="cls-3" d="M31.38,18.23c-.05,0-.1-.02-.14-.04-1.24-.56-1.29-1.33-1.29-1.42,0-.12.04-.23.12-.31.08-.08.19-.13.31-.13.24,0,.43.17.45.41h0s.07.34.78.66c.11.05.19.13.23.24.04.11.04.23-.01.33-.07.16-.23.26-.4.26,0,0-.03,0-.03,0Z"/>
            <path class="cls-1" d="M30.37,16.39c.2,0,.37.15.38.35,0,.03.09.39.81.71.19.08.27.31.19.49-.06.14-.2.22-.34.22,0,0-.02,0-.03,0-.04,0-.08-.01-.12-.03-1.2-.54-1.25-1.28-1.26-1.36,0-.21.16-.38.36-.38,0,0,0,0,0,0M30.37,16.27s0,0,0,0c-.28,0-.49.23-.49.51,0,.09.06.9,1.33,1.47.05.02.11.04.16.04,0,0,.04,0,.04,0,.2,0,.37-.12.45-.29.05-.12.06-.26.01-.38-.05-.12-.14-.22-.26-.28-.67-.3-.74-.62-.74-.62-.02-.25-.23-.45-.5-.45h0Z"/>
          </g>
          <g>
            <g>
              <path class="cls-7" d="M35.31,21.81c-.23,0-.46-.03-.68-.1-1.18-.36-1.95-1.55-1.8-2.76,0-.08.02-.15.04-.23.22-1.01,1.1-1.71,2.12-1.71.23,0,.46.04.69.1.45.14.85.4,1.17.76.54.63.77,1.46.59,2.23-.22,1.01-1.1,1.71-2.12,1.71Z"/>
              <path class="cls-24" d="M34.97,17.06c.22,0,.44.03.67.1.45.14.84.4,1.14.74.51.59.76,1.39.58,2.18-.23,1.01-1.08,1.67-2.06,1.67-.22,0-.44-.03-.66-.1-1.15-.35-1.9-1.53-1.76-2.7,0-.08.02-.15.04-.23.23-1.01,1.08-1.67,2.06-1.67M34.97,16.94h0c-1.05,0-1.95.72-2.18,1.76-.02.08-.03.16-.04.24-.15,1.24.64,2.46,1.85,2.82.23.07.47.11.7.11,1.05,0,1.95-.72,2.18-1.76.18-.79-.05-1.65-.61-2.29-.32-.37-.74-.64-1.2-.78-.23-.07-.47-.11-.7-.11h0Z"/>
            </g>
            <path class="cls-9" d="M36.91,19.95c-.02.08-.04.15-.07.22-.3.85-1.2,1.3-2.09,1.02-.98-.3-1.59-1.33-1.37-2.32.14-.63.59-1.08,1.14-1.25.32-.09.67-.1,1.02,0,.97.3,1.59,1.34,1.37,2.32Z"/>
            <path class="cls-19" d="M36.84,20.16c-.3.85-1.2,1.3-2.09,1.02-.98-.3-1.59-1.33-1.37-2.32.14-.63.59-1.08,1.14-1.25-.17.91.16,2.01,2.32,2.54Z"/>
            <g>
              <g>
                <path class="cls-2" d="M35.22,20.52c-.11,0-.21-.02-.32-.05-.58-.18-.95-.8-.82-1.38.02-.09.05-.18.1-.26.17-.33.51-.53.88-.53.11,0,.21.02.31.05.37.11.66.4.78.78.07.2.08.41.04.61-.1.47-.51.79-.98.79Z"/>
                <path d="M35.07,18.36c.1,0,.2.01.3.04.36.11.63.39.74.74.06.18.08.38.03.57-.1.45-.48.74-.92.74-.1,0-.2-.01-.3-.05-.55-.17-.9-.75-.77-1.31.02-.09.05-.17.09-.25.16-.31.48-.5.83-.5M35.07,18.23c-.4,0-.76.22-.94.56-.05.09-.08.18-.1.28-.14.61.25,1.26.86,1.45.11.03.22.05.33.05.5,0,.93-.34,1.04-.84.05-.21.03-.43-.04-.64-.13-.39-.43-.7-.82-.81-.11-.03-.22-.05-.33-.05h0Z"/>
              </g>
              <path class="cls-27" d="M36.14,19.71c-.12.55-.67.87-1.22.7s-.9-.75-.77-1.31c.02-.09.05-.17.09-.25.23.24.6.48,1.17.52.27.02.5-.08.7-.24.06.18.08.38.03.57Z"/>
              <ellipse class="cls-25" cx="35.03" cy="19.22" rx=".1" ry=".14" transform="translate(4.26 44.71) rotate(-68.39)"/>
              <path class="cls-27" d="M34.99,20.08c-.49-.15-.82-.64-.79-1.14-.02.05-.04.1-.05.16-.12.55.22,1.14.77,1.31s1.1-.14,1.22-.7c.01-.06.02-.12.02-.17-.18.45-.67.69-1.17.54Z"/>
              <ellipse class="cls-25" cx="35.26" cy="18.73" rx=".34" ry=".49" transform="translate(5.01 44.78) rotate(-68.72)"/>
            </g>
            <g class="cls-18">
              <path class="cls-25" d="M35.54,17.63c-.35-.11-.71-.1-1.02,0-.55.17-1,.62-1.14,1.25-.22.98.39,2.02,1.37,2.32.9.27,1.79-.18,2.09-1.02.03-.07.05-.14.07-.22.22-.98-.39-2.02-1.37-2.32ZM36.71,20.11c-.28.78-1.11,1.2-1.94.95-.9-.28-1.47-1.23-1.27-2.14.13-.58.54-1,1.05-1.16.29-.09.62-.09.95,0,.9.27,1.47,1.24,1.26,2.14-.02.07-.03.14-.06.2Z"/>
            </g>
          </g>
          <path class="cls-15" d="M44.33,15.66s-.1.09-.19.17c-.4-1.71-1.46-5.03-5.6-5.83-5.88-1.14-7.63,3.36-8.37,4.82-.08-.13-.16-.22-.21-.28l-.03-.03-.02-.02c1.04-3.2,4.16-5.39,7.66-5.11.5.04.97.13,1.43.26,2.8.79,4.88,3.16,5.32,6.02Z"/>
          <ellipse class="cls-17" cx="34.59" cy="11.01" rx="1.1" ry=".49" transform="translate(-1.63 13.48) rotate(-21.56)"/>
          <ellipse class="cls-16" cx="35.72" cy="11.67" rx=".54" ry=".33" transform="translate(-1.79 13.94) rotate(-21.56)"/>
        </g>
      </g>
    </g>
  </g>
</svg>