<?xml version="1.0" encoding="UTF-8"?>
<svg xmlns="http://www.w3.org/2000/svg" xmlns:xlink="http://www.w3.org/1999/xlink" viewBox="0 0 64.43 25.31">
  <defs>
    <style>
      .cls-1 {
        fill: url(#linear-gradient-4);
      }

      .cls-2 {
        fill: #402766;
      }

      .cls-3 {
        isolation: isolate;
      }

      .cls-4 {
        fill: url(#linear-gradient);
      }

      .cls-4, .cls-5, .cls-6, .cls-7, .cls-8, .cls-9, .cls-10 {
        mix-blend-mode: overlay;
      }

      .cls-5 {
        fill: url(#linear-gradient-8);
      }

      .cls-6 {
        fill: url(#linear-gradient-2);
      }

      .cls-7 {
        fill: url(#linear-gradient-3);
      }

      .cls-8 {
        fill: url(#linear-gradient-6);
      }

      .cls-9 {
        fill: url(#linear-gradient-5);
      }

      .cls-10 {
        fill: url(#linear-gradient-7);
      }

      .cls-11 {
        fill: #f06297;
      }

      .cls-12 {
        fill: #512791;
      }

      .cls-13 {
        fill: #ff80ac;
      }
    </style>
    <linearGradient id="linear-gradient" x1="4.66" y1="5.36" x2="4.72" y2="13.18" gradientUnits="userSpaceOnUse">
      <stop offset=".15" stop-color="#fff"/>
      <stop offset=".15" stop-color="#fff" stop-opacity=".98"/>
      <stop offset=".27" stop-color="#fff" stop-opacity=".69"/>
      <stop offset=".38" stop-color="#fff" stop-opacity=".44"/>
      <stop offset=".48" stop-color="#fff" stop-opacity=".25"/>
      <stop offset=".57" stop-color="#fff" stop-opacity=".11"/>
      <stop offset=".64" stop-color="#fff" stop-opacity=".03"/>
      <stop offset=".69" stop-color="#fff" stop-opacity="0"/>
    </linearGradient>
    <linearGradient id="linear-gradient-2" x1="17.67" x2="17.73" xlink:href="#linear-gradient"/>
    <linearGradient id="linear-gradient-3" x1="30.68" y1="5.36" x2="30.74" y2="13.18" xlink:href="#linear-gradient"/>
    <linearGradient id="linear-gradient-4" x1="-68.82" y1="374.07" x2="-45.55" y2="374.07" gradientTransform="translate(17.53 -364.52) rotate(-13.86)" gradientUnits="userSpaceOnUse">
      <stop offset="0" stop-color="#fce3e3"/>
      <stop offset="1" stop-color="#f7dad9"/>
    </linearGradient>
    <linearGradient id="linear-gradient-5" x1="-62.02" y1="375.85" x2="-70.33" y2="390.62" gradientTransform="translate(17.53 -364.52) rotate(-13.86)" gradientUnits="userSpaceOnUse">
      <stop offset=".12" stop-color="#e8f7ff"/>
      <stop offset=".27" stop-color="#f0faff" stop-opacity=".62"/>
      <stop offset=".41" stop-color="#f8fcff" stop-opacity=".29"/>
      <stop offset=".5" stop-color="#fdfeff" stop-opacity=".08"/>
      <stop offset=".55" stop-color="#fff" stop-opacity="0"/>
    </linearGradient>
    <linearGradient id="linear-gradient-6" x1="-65.35" y1="367.46" x2="-66.68" y2="369.82" gradientTransform="translate(107.33 -359.62)" xlink:href="#linear-gradient-5"/>
    <linearGradient id="linear-gradient-7" x1="-63.49" y1="369.23" x2="-64.19" y2="370.47" gradientTransform="translate(107.77 -360.1)" xlink:href="#linear-gradient-5"/>
    <linearGradient id="linear-gradient-8" x1="-53.58" y1="383.39" x2="-59.47" y2="393.88" xlink:href="#linear-gradient-5"/>
  </defs>
  <g class="cls-3">
    <g id="Layer_2" data-name="Layer 2">
      <g id="Layer_1-2" data-name="Layer 1">
        <g>
          <g>
            <g>
              <path class="cls-13" d="M4.69,13.87c-.1,0-.19-.06-.22-.16-.87-2.57-1.51-3.21-4.08-4.08-.09-.03-.16-.12-.16-.22s.06-.19.16-.22c2.57-.87,3.22-1.52,4.08-4.08.03-.09.12-.16.22-.16s.19.06.22.16c.87,2.57,1.51,3.22,4.08,4.08.09.03.16.12.16.22s-.06.19-.16.22c-2.57.87-3.22,1.51-4.08,4.08-.03.09-.12.16-.22.16h0Z"/>
              <path class="cls-12" d="M4.69,5.18c.89,2.62,1.6,3.34,4.23,4.23-2.62.89-3.34,1.6-4.23,4.23-.89-2.62-1.6-3.34-4.23-4.23,2.62-.89,3.34-1.6,4.23-4.23M4.69,4.71c-.2,0-.38.13-.44.32-.84,2.48-1.46,3.1-3.94,3.94-.19.06-.32.24-.32.44s.13.38.32.44c2.48.84,3.1,1.46,3.94,3.94.06.19.24.32.44.32h0c.2,0,.38-.13.44-.32.84-2.48,1.46-3.1,3.94-3.94.19-.06.32-.24.32-.44s-.13-.38-.32-.44c-2.48-.84-3.1-1.46-3.94-3.94-.06-.19-.24-.32-.44-.32h0Z"/>
            </g>
            <path class="cls-4" d="M8.06,9.41c-2.09.71-2.66,1.28-3.37,3.37-.71-2.09-1.28-2.66-3.37-3.37,2.09-.71,2.66-1.28,3.37-3.37.71,2.09,1.28,2.66,3.37,3.37Z"/>
          </g>
          <g>
            <g>
              <path class="cls-13" d="M17.7,13.87c-.1,0-.19-.06-.22-.16-.87-2.57-1.51-3.22-4.08-4.08-.09-.03-.16-.12-.16-.22s.06-.19.16-.22c2.57-.87,3.22-1.51,4.08-4.08.03-.09.12-.16.22-.16h0c.1,0,.19.06.22.16.87,2.57,1.51,3.22,4.08,4.08.09.03.16.12.16.22s-.06.19-.16.22c-2.57.87-3.22,1.52-4.08,4.08-.03.09-.12.16-.22.16Z"/>
              <path class="cls-12" d="M17.7,5.18c.89,2.62,1.6,3.34,4.23,4.23-2.62.89-3.34,1.6-4.23,4.23-.89-2.62-1.6-3.34-4.23-4.23,2.62-.89,3.34-1.6,4.23-4.23M17.7,4.71c-.2,0-.38.13-.44.32-.84,2.48-1.46,3.1-3.94,3.94-.19.06-.32.24-.32.44s.13.38.32.44c2.48.84,3.1,1.46,3.94,3.94.06.19.24.32.44.32s.38-.13.44-.32c.84-2.48,1.46-3.1,3.94-3.94.19-.06.32-.24.32-.44s-.13-.38-.32-.44c-2.48-.84-3.1-1.46-3.94-3.94-.06-.19-.24-.32-.44-.32h0Z"/>
            </g>
            <path class="cls-6" d="M21.07,9.41c-2.09.71-2.66,1.28-3.37,3.37-.71-2.09-1.28-2.66-3.37-3.37,2.09-.71,2.66-1.28,3.37-3.37.71,2.09,1.28,2.66,3.37,3.37Z"/>
          </g>
          <g>
            <g>
              <path class="cls-13" d="M30.71,13.87c-.1,0-.19-.06-.22-.16-.87-2.57-1.51-3.22-4.08-4.08-.09-.03-.16-.12-.16-.22s.06-.19.16-.22c2.57-.87,3.22-1.51,4.08-4.08.03-.09.12-.16.22-.16s.19.06.22.16c.87,2.57,1.51,3.22,4.08,4.08.09.03.16.12.16.22s-.06.19-.16.22c-2.57.87-3.21,1.52-4.08,4.08-.03.09-.12.16-.22.16Z"/>
              <path class="cls-12" d="M30.71,5.18c.89,2.62,1.6,3.34,4.23,4.23-2.62.89-3.34,1.6-4.23,4.23-.89-2.62-1.6-3.34-4.23-4.23,2.62-.89,3.34-1.6,4.23-4.23M30.71,4.71c-.2,0-.38.13-.44.32-.84,2.48-1.46,3.1-3.94,3.94-.19.06-.32.24-.32.44s.13.38.32.44c2.48.84,3.1,1.46,3.94,3.94.06.19.24.32.44.32h0c.2,0,.38-.13.44-.32.84-2.48,1.46-3.1,3.94-3.94.19-.06.32-.24.32-.44s-.13-.38-.32-.44c-2.48-.84-3.1-1.46-3.94-3.94-.06-.19-.24-.32-.44-.32h0Z"/>
            </g>
            <path class="cls-7" d="M34.08,9.41c-2.09.71-2.66,1.28-3.37,3.37-.71-2.09-1.28-2.66-3.37-3.37,2.09-.71,2.66-1.28,3.37-3.37.71,2.09,1.28,2.66,3.37,3.37Z"/>
          </g>
        </g>
        <g>
          <g>
            <path class="cls-1" d="M50.89,24.8c-1,0-2.1-.16-3.27-.49-2-.54-3.59-1.42-4.75-2.62-2-2.13-2.45-5.18-1.21-8.18.64-1.57.32-2.12-.37-3.31-.28-.49-.61-1.04-.92-1.77-.57-1.32-.22-2.31.18-2.91.72-1.09,2.08-1.68,2.99-1.68,0,0,.09,0,.1,0,.61.03,1.13.25,1.54.5.14-1.48.96-3.32,3.43-3.76.25-.05.49-.07.71-.07,1.93,0,2.96,1.48,3.39,2.34.67-.38,1.87-.95,3.04-.95.56,0,1.05.13,1.48.38,3.45,2.03,2.11,5.43.95,7.67.24-.02.54-.04.86-.04,1.9,0,3.33.63,4.11,1.83.71,1.08.94,2.09.67,2.99-.25.82-.93,1.53-1.88,1.93-.29.12-.55.21-.79.3-.99.35-1.58.56-2.38,2.22-1.58,3.33-3.75,5.13-6.64,5.53-.39.06-.81.09-1.23.09Z"/>
            <path class="cls-2" d="M49.32,1.02c2.32,0,3.16,2.58,3.16,2.58,0,0,1.7-1.19,3.27-1.19.43,0,.84.09,1.21.31,3.31,1.95,1.68,5.31.34,7.78-.02.03-.03.08-.05.11,0,0,.23-.06.6-.1.31-.04.72-.08,1.18-.08,1.24,0,2.83.29,3.69,1.6,1.54,2.33.2,3.67-.99,4.17-1.45.61-2.34.48-3.43,2.77-1.22,2.57-3.08,4.81-6.25,5.24-.37.05-.76.08-1.16.08-.93,0-1.97-.15-3.13-.47-2.05-.55-3.51-1.43-4.52-2.48-2.08-2.21-2.12-5.18-1.11-7.63,1.02-2.51-.21-2.97-1.3-5.48-1.06-2.45,1.45-3.88,2.7-3.88.03,0,.05,0,.08,0,1.23.06,2.1,1.07,2.1,1.07,0,0-.56-3.71,2.99-4.35.22-.04.43-.06.62-.06M49.32,0c-.26,0-.53.03-.81.08-2.38.43-3.39,2.01-3.73,3.5-.34-.13-.71-.22-1.13-.24-.04,0-.08,0-.12,0-1.07,0-2.59.66-3.41,1.91-.66,1-.73,2.21-.22,3.4.33.76.67,1.35.95,1.83.66,1.14.89,1.52.34,2.86-1.32,3.18-.83,6.44,1.31,8.71,1.23,1.28,2.91,2.21,4.99,2.77,1.21.33,2.35.5,3.4.5.45,0,.89-.03,1.31-.09,3.06-.42,5.36-2.32,7.02-5.82.7-1.47,1.14-1.63,2.09-1.96.26-.09.53-.19.82-.31,1.09-.47,1.88-1.29,2.17-2.26.32-1.05.07-2.2-.73-3.42-.89-1.34-2.46-2.06-4.54-2.06h-.02c1.08-2.34,1.89-5.56-1.53-7.56-.5-.3-1.08-.45-1.73-.45-1.06,0-2.1.41-2.84.78-.59-.95-1.71-2.16-3.59-2.16h0Z"/>
          </g>
          <path class="cls-9" d="M46.05,6.16s-.83-1.19-2.57-.97c-1.74.23-2.89,1.88-1.4,3.82,1.51,1.95,1.42,3.55.15,7.14-.75,2.07.14,3.96,1.01,5.19-2.08-2.21-2.12-5.18-1.11-7.63,1.02-2.51-.21-2.97-1.3-5.48-1.08-2.5,1.55-3.94,2.77-3.88,1.23.06,2.1,1.07,2.1,1.07,0,0-.56-3.71,2.99-4.35,2.79-.51,3.78,2.52,3.78,2.52,0,0,2.75-1.92,4.49-.88,3.32,1.95,1.68,5.31.34,7.78-.15,0-.23,0-.23,0,.08-.02,1.6-3.92-.13-6.26-1.71-2.33-4.39.52-4.39.52,0,0-.55-2.43-3.32-2.63-2.78-.2-3.19,4.04-3.19,4.04Z"/>
          <ellipse class="cls-8" cx="42.28" cy="7.3" rx="1.22" ry="1.86" transform="translate(-.52 10.34) rotate(-13.86)"/>
          <ellipse class="cls-10" cx="44.43" cy="8.86" rx=".6" ry=".98" transform="translate(-.83 10.9) rotate(-13.86)"/>
          <path class="cls-5" d="M61.73,16.19c-1.45.61-2.34.48-3.43,2.77-1.22,2.57-3.08,4.81-6.25,5.24,1.37-.58,3-1.42,3.91-2.46,1.75-2.02,1.72-4.89,3.71-5.89,1.98-1.01,2.87-1.31,1.86-3.48-.7-1.5-2.6-1.82-3.67-1.87,1.15-.16,3.69-.27,4.87,1.51,1.54,2.33.2,3.67-.99,4.17Z"/>
          <path class="cls-2" d="M45.38,4.02c.69,1.3,1.15,2.68,1.35,4.12-.44-1.33-1.15-2.6-2.02-3.68-.35-.45.38-.94.66-.44h0Z"/>
          <path class="cls-2" d="M53.18,2.89c-.12,1.41-.37,2.78-.75,4.11.12-1.37.1-2.76-.04-4.09-.07-.58.83-.6.79-.02h0Z"/>
          <path class="cls-2" d="M58.38,10.26c-.98.41-1.88,1.15-2.35,2.13.25-1.15,1.03-2.15,1.99-2.84.18-.13.43-.08.56.1.15.21.05.52-.19.6h0Z"/>
          <path class="cls-11" d="M46.8,20.11c-1.24-.73-4.35-2.72-1.52-5.86,2.83-3.14,8.36-.91,9.33,1.67s-1.62,7.84-7.81,4.19Z"/>
        </g>
      </g>
    </g>
  </g>
</svg>