<?xml version="1.0" encoding="UTF-8"?>
<svg xmlns="http://www.w3.org/2000/svg" xmlns:xlink="http://www.w3.org/1999/xlink" viewBox="0 0 24.52 22.54">
  <defs>
    <style>
      .cls-1 {
        fill: #a1958d;
      }

      .cls-2 {
        fill: #756f67;
      }

      .cls-3 {
        isolation: isolate;
      }

      .cls-4 {
        fill: url(#linear-gradient);
        mix-blend-mode: overlay;
      }

      .cls-5 {
        fill: #efebea;
      }
    </style>
    <linearGradient id="linear-gradient" x1="21.82" y1="22.42" x2="9.26" y2="8.1" gradientUnits="userSpaceOnUse">
      <stop offset=".15" stop-color="#fff"/>
      <stop offset=".15" stop-color="#fff" stop-opacity=".98"/>
      <stop offset=".27" stop-color="#fff" stop-opacity=".69"/>
      <stop offset=".38" stop-color="#fff" stop-opacity=".44"/>
      <stop offset=".48" stop-color="#fff" stop-opacity=".25"/>
      <stop offset=".57" stop-color="#fff" stop-opacity=".11"/>
      <stop offset=".64" stop-color="#fff" stop-opacity=".03"/>
      <stop offset=".69" stop-color="#fff" stop-opacity="0"/>
    </linearGradient>
  </defs>
  <g class="cls-3">
    <g id="Layer_2" data-name="Layer 2">
      <g id="Layer_1-2" data-name="Layer 1">
        <g>
          <g>
            <path class="cls-1" d="M8.93,22.16c-1.21,0-2.31-.34-3.11-.95-.02,0-.03,0-.05,0-.22.03-.58.08-1.01.08-1.41,0-3.26-.54-4.04-3.12-.34-1.13-.43-2.29-.26-3.43.41-2.45,1.98-4.29,3.67-4.29,1.22.01,1.75,1.02,2.04,1.77.11.28.21.58.3.87,0,0,.17.52.18.54.22.62.42.94.67,1,.15.04.32.07.5.07,1.06,0,2.11-.76,2.13-1.2,0-.49-1.07-1.55-2.26-2.67-.26-.25-1.49-1.41-1.84-1.74-.6-.58-1.14-1.31-1.55-2.12-.83-1.68-.94-3.4-.27-4.51.34-.56,1.04-1.23,2.45-1.26h0c.9,0,1.93.35,3.1,1.04,1.48.88,2.87,2.37,3.92,3.57l.51.57c.81.91,1.81,2.04,2.19,2.06.01-.18-.03-.85-1.06-2.29-.23-.34-.41-.65-.56-.96-.06-.11-.12-.25-.15-.38-.53-1.29-.54-2.58,0-3.41.28-.44.87-.97,2.02-1.02h.18c.88,0,1.87.21,2.85.61,2.01.82,4.27,2.59,4.63,5.08.18,1.34,0,3.42-1.83,5.68.42,1.46,1.25,5.96-2.88,8.18-1.37.73-2.71,1.1-3.98,1.1s-2.18-.38-2.65-.64c-.37.56-1.26,1.54-3.12,1.73-.24.02-.47.03-.69.03Z"/>
            <path class="cls-2" d="M16.62.75c.84,0,1.78.21,2.7.58,2.12.87,4.09,2.61,4.4,4.79.43,3.19-1.86,5.46-1.86,5.54,0,.09,1.93,5.48-2.66,7.94-1.5.8-2.78,1.06-3.8,1.06-1.8,0-2.79-.8-2.79-.8,0,0-.63,1.65-3.02,1.89-.23.02-.45.03-.66.03-1.94,0-2.88-.88-2.98-.96,0,0-.01,0-.03,0-.12,0-.57.1-1.16.1-1.19,0-2.94-.41-3.68-2.86-.35-1.15-.4-2.26-.25-3.27h0c.38-2.29,1.84-3.97,3.29-3.97,0,0,.02,0,.03,0,.9.01,1.35.71,1.67,1.53.17.44.31.91.46,1.34h0c.22.65.48,1.16.93,1.29.19.06.4.08.61.08,1.19,0,2.48-.85,2.5-1.56.01-.63-.84-1.51-2.38-2.96-.53-.51-1.15-1.08-1.84-1.74-.62-.59-1.11-1.3-1.47-2.02-1.21-2.43-.88-5.17,1.85-5.22.01,0,.02,0,.03,0,.86,0,1.85.39,2.87.99,1.4.83,2.72,2.22,3.83,3.49,1.32,1.48,2.37,2.77,2.99,2.77.07,0,.14-.02.2-.06.28-.06.36-.97-.97-2.83-.19-.28-.37-.58-.52-.9-.05-.1-.1-.21-.13-.32-.73-1.78-.55-3.87,1.67-3.95.06,0,.11,0,.17,0M16.62,0c-.07,0-.13,0-.19,0-1.32.05-1.99.67-2.32,1.19-.6.93-.61,2.33-.03,3.76.05.16.11.3.17.41.15.31.33.64.57.99.31.44.53.8.68,1.09-.39-.39-.83-.9-1.21-1.32l-.51-.58c-1.06-1.21-2.48-2.73-4.01-3.63-1.24-.74-2.31-1.1-3.25-1.1-1.62.03-2.42.8-2.81,1.44-.74,1.21-.64,3.08.25,4.87.43.85.99,1.62,1.62,2.23.34.33.67.64.98.92.31.29.59.56.86.81.69.65,2.12,2,2.15,2.41-.06.21-.88.82-1.76.82-.14,0-.28-.02-.4-.05-.02,0-.17-.07-.41-.75,0-.02-.01-.04-.02-.06-.05-.15-.11-.31-.16-.48-.1-.3-.2-.6-.31-.89-.19-.49-.78-1.99-2.36-2.01-1.9,0-3.63,1.97-4.07,4.59,0,.02,0,.04,0,.06-.17,1.19-.08,2.39.28,3.56.67,2.19,2.23,3.39,4.4,3.39.4,0,.74-.04.97-.07.86.61,1.98.94,3.2.94.24,0,.48-.01.73-.04,1.74-.17,2.7-1,3.2-1.63.55.26,1.41.54,2.54.54,1.33,0,2.73-.39,4.15-1.15,4.21-2.26,3.57-6.72,3.13-8.44,1.8-2.31,1.97-4.42,1.78-5.8-.38-2.66-2.76-4.52-4.86-5.38-1.02-.42-2.06-.64-2.99-.64h0Z"/>
          </g>
          <path class="cls-5" d="M17.5,5.19c-.96.35-1.83.21-2.58-.17-.87-1.84-.81-4.19,1.54-4.27.88-.03,1.89.19,2.87.59.15,1.37-.04,3.19-1.82,3.85Z"/>
          <path class="cls-5" d="M6.28,13.69h0c-.32,1.41-1.06,3.02-2.71,3.08-1.46.06-2.27-.94-2.73-1.99h0c.37-2.3,1.86-3.99,3.32-3.97,1.38.02,1.69,1.64,2.12,2.87Z"/>
          <path class="cls-5" d="M6.9,7.11c1.13-.1,1.77-.7,2.13-1.49.38-1.04.28-2.37.17-3.16-.97-.55-1.91-.9-2.72-.89-2.5.04-2.98,2.34-2.13,4.59.45.53,1.22.97,2.55.96Z"/>
          <path class="cls-4" d="M21.31,11.26s1.34,5.55-2.44,7.63-6.29.07-6.29.07c0,0-1.36,2.33-3.88,1.96s-2.98-1.36-2.98-1.36c0,0-1.89.8-3.13-.51-1.25-1.31-1.28-2.85-1.28-2.85l4.51-3.85c.17.44.31.91.46,1.34h0c.22.65.48,1.16.93,1.29,1.31.38,3.08-.64,3.11-1.48.01-.63-.84-1.51-2.38-2.96l5.27-4.5c1.48,1.65,2.62,3.07,3.19,2.71.28-.06.36-.97-.97-2.83-.19-.28-.37-.58-.52-.9-.05-.1-.1-.21-.13-.32l3.45-2.95s4.31,1.31,4.88,4.46c.57,3.14-1.8,5.05-1.8,5.05Z"/>
        </g>
      </g>
    </g>
  </g>
</svg>